<svg id="Icon_Languag" data-name="Icon Languag" xmlns="http://www.w3.org/2000/svg" width="28" height="28" viewBox="0 0 28 28">
  <metadata><?xpacket begin="﻿" id="W5M0MpCehiHzreSzNTczkc9d"?>
<x:xmpmeta xmlns:x="adobe:ns:meta/" x:xmptk="Adobe XMP Core 5.6-c140 79.160451, 2017/05/06-01:08:21        ">
   <rdf:RDF xmlns:rdf="http://www.w3.org/1999/02/22-rdf-syntax-ns#">
      <rdf:Description rdf:about=""/>
   </rdf:RDF>
</x:xmpmeta>
                                                                                                    
                                                                                                    
                                                                                                    
                                                                                                    
                                                                                                    
                                                                                                    
                                                                                                    
                                                                                                    
                                                                                                    
                                                                                                    
                                                                                                    
                                                                                                    
                                                                                                    
                                                                                                    
                                                                                                    
                                                                                                    
                                                                                                    
                                                                                                    
                                                                                                    
                                                                                                    
                           
<?xpacket end="w"?></metadata>
<defs>
    <style>
      .cls-1 {
        fill-rule: evenodd;
      }
    </style>
  </defs>
  <g id="icon_about" data-name="icon about">
    <path id="Rounded_Rectangle_10" data-name="Rounded Rectangle 10" class="cls-1" d="M7.16,2H18.68C18.724,2.016,23.047,6.491,23,6.364c0,0,0-.752,0-0.046-0.02,5.087,0,17.5,0,17.5A2.171,2.171,0,0,1,20.84,26H7.16A2.171,2.171,0,0,1,5,23.818V4.182A2.171,2.171,0,0,1,7.16,2ZM7,3H18c0,0.011.007,1.15,0,2a2.363,2.363,0,0,0,2,2c0.988-.019,2,0.009,2,0V24a0.989,0.989,0,0,1-1,1H7a1.045,1.045,0,0,1-1-1V4A1,1,0,0,1,7,3Z"/>
    <path class="cls-1" d="M11,13a2.507,2.507,0,0,1,2-1c1.358-.021,2.31.787,2,2s-0.989,2.2-1,3a1.192,1.192,0,0,0,1,1v1s-2.473.434-3-1c-0.5-1.356,1.071-2.957,1-4-0.026-.387-0.585-1.013-2,0C10.971,14.021,11,13,11,13Z"/>
    <circle cx="14.5" cy="9.5" r="1.5"/>
  </g>
</svg>
