<!-- Generated by IcoMoon.io -->
<svg version="1.1" xmlns="http://www.w3.org/2000/svg" width="32" height="32" viewBox="0 0 32 32">
<title>about</title>
<path d="M10.286 5.714c-1.266 0-2.286 1.020-2.286 2.286v16c0 1.266 1.020 2.286 2.286 2.286h13.714v-20.571h-13.714zM5.714 8c0-2.528 2.043-4.571 4.571-4.571h13.714c1.26 0 2.286 1.026 2.286 2.286v20.571c0 1.26-1.026 2.286-2.286 2.286h-13.714c-2.528 0-4.571-2.043-4.571-4.571v-16zM18.412 21.589c-0.526 0.206-0.937 0.366-1.246 0.469s-0.674 0.16-1.086 0.16c-0.629 0-1.12-0.16-1.474-0.457-0.354-0.309-0.526-0.697-0.526-1.177 0-0.183 0.011-0.377 0.034-0.56 0.023-0.194 0.069-0.411 0.126-0.651l0.651-2.309c0.039-0.149 0.073-0.299 0.105-0.441v0l0-0c0.015-0.064 0.029-0.127 0.043-0.188 0.034-0.194 0.057-0.377 0.057-0.537 0-0.297-0.057-0.503-0.183-0.617s-0.354-0.171-0.697-0.171c-0.171 0-0.343 0.023-0.514 0.080-0.072 0.024-0.142 0.046-0.209 0.067v0c-0.091 0.029-0.176 0.055-0.248 0.082l0.171-0.709c0.423-0.171 0.834-0.32 1.223-0.446s0.754-0.183 1.109-0.183c0.629 0 1.109 0.149 1.451 0.457 0.343 0.297 0.514 0.697 0.514 1.177 0 0.103-0.011 0.274-0.034 0.526s-0.069 0.48-0.126 0.697l-0.651 2.297c-0.057 0.183-0.103 0.4-0.149 0.629-0.046 0.24-0.057 0.411-0.057 0.537 0 0.309 0.069 0.514 0.206 0.629s0.377 0.171 0.709 0.171c0.16 0 0.331-0.023 0.537-0.080 0.194-0.057 0.343-0.103 0.434-0.149l-0.171 0.697zM17.2 12.686c0.434 0 0.8-0.137 1.097-0.423s0.446-0.629 0.457-1.017c0-0.4-0.16-0.743-0.457-1.029-0.309-0.286-0.674-0.423-1.097-0.423s-0.789 0.137-1.097 0.423c-0.297 0.286-0.457 0.629-0.457 1.029 0 0.389 0.149 0.731 0.457 1.017s0.674 0.423 1.097 0.423z"></path>
</svg>
