<svg id="D_2_copy_7" data-name="D 2 copy 7" xmlns="http://www.w3.org/2000/svg" width="24" height="24" viewBox="0 0 24 24">
  <metadata><?xpacket begin="﻿" id="W5M0MpCehiHzreSzNTczkc9d"?>
<x:xmpmeta xmlns:x="adobe:ns:meta/" x:xmptk="Adobe XMP Core 5.6-c140 79.160451, 2017/05/06-01:08:21        ">
   <rdf:RDF xmlns:rdf="http://www.w3.org/1999/02/22-rdf-syntax-ns#">
      <rdf:Description rdf:about=""/>
   </rdf:RDF>
</x:xmpmeta>
                                                                                                    
                                                                                                    
                                                                                                    
                                                                                                    
                                                                                                    
                                                                                                    
                                                                                                    
                                                                                                    
                                                                                                    
                                                                                                    
                                                                                                    
                                                                                                    
                                                                                                    
                                                                                                    
                                                                                                    
                                                                                                    
                                                                                                    
                                                                                                    
                                                                                                    
                                                                                                    
                           
<?xpacket end="w"?></metadata>
<defs>
    <style>
      .cls-1 {
        fill-rule: evenodd;
      }
    </style>
  </defs>
  <path id="Rounded_Rectangle_1185_copy" data-name="Rounded Rectangle 1185 copy" class="cls-1" d="M9,5h7c0.022,0.029,2.016,2.067,2,2V17a2,2,0,0,1-2,2H9a2,2,0,0,1-2-2V7A2,2,0,0,1,9,5ZM9,6h6c0.032,0.023,0,1.448,0,2,0,0,1.992-.031,2-0.016C17.021,8.025,17,17,17,17a1,1,0,0,1-1,1H9a1,1,0,0,1-1-1V7A1,1,0,0,1,9,6Z"/>
  <rect x="12" y="9" width="1" height="7"/>
  <rect id="Rectangle_1187_copy" data-name="Rectangle 1187 copy" x="9" y="12" width="7" height="1"/>
  <path class="cls-1" d="M5,7H6V18a2.043,2.043,0,0,0,2,2c0.8,0.01,8,0,8,0v1H8a2.882,2.882,0,0,1-3-3C5,17.988,5,7,5,7Z"/>
</svg>
