<!-- Generated by IcoMoon.io -->
<svg version="1.1" xmlns="http://www.w3.org/2000/svg" width="32" height="32" viewBox="0 0 32 32">
<title>addWord</title>
<path d="M13.333 13.132c0.201 0.126 0.445 0.201 0.707 0.201v0c0.003 0 0.006 0 0.009 0 0.211 0 0.41-0.049 0.586-0.137l-0.008 0.003 2.064-1.015 2.051 1.013c0.172 0.087 0.376 0.138 0.591 0.138 0.736 0 1.333-0.597 1.333-1.333 0-0.001 0-0.002 0-0.004v0-5.333h2.667v7.067c0 0.736 0.597 1.333 1.333 1.333s1.333-0.597 1.333-1.333v0-7.067c0-1.473-1.194-2.667-2.667-2.667v0h-14.667c-2.209 0-4 1.791-4 4v0 16c0 2.209 1.791 4 4 4v0h8.4c0.736 0 1.333-0.597 1.333-1.333s-0.597-1.333-1.333-1.333v0h-8.4c-0.736 0-1.333-0.597-1.333-1.333v0-16c0-0.736 0.597-1.333 1.333-1.333v0h4.040v5.333c0 0 0 0.001 0 0.001 0 0.475 0.248 0.891 0.621 1.127l0.005 0.003zM18 9.853l-0.716-0.355c-0.172-0.087-0.375-0.137-0.589-0.137s-0.417 0.051-0.597 0.141l0.008-0.004-0.732 0.361v-3.193h2.627z"></path>
<path d="M28.667 21.333h-2.667v-2.667c0-0.736-0.597-1.333-1.333-1.333s-1.333 0.597-1.333 1.333v0 2.667h-2.667c-0.736 0-1.333 0.597-1.333 1.333s0.597 1.333 1.333 1.333v0h2.667v2.667c0 0.736 0.597 1.333 1.333 1.333s1.333-0.597 1.333-1.333v0-2.667h2.667c0.736 0 1.333-0.597 1.333-1.333s-0.597-1.333-1.333-1.333v0z"></path>
</svg>
