<!-- Generated by IcoMoon.io -->
<svg version="1.1" xmlns="http://www.w3.org/2000/svg" width="32" height="32" viewBox="0 0 32 32">
<title>addWord</title>
<path d="M8 8c0-0.73 0.603-1.333 1.333-1.333h5.347v6.667c0 0.539 0.324 1.024 0.822 1.231s1.070 0.094 1.452-0.286l1.711-1.702 1.7 1.7c0.381 0.381 0.955 0.495 1.453 0.289s0.823-0.693 0.823-1.232v-6.667h1.36v18.667h-14.667c-0.73 0-1.333-0.603-1.333-1.333v-16zM19.973 6.667v3.448l-0.364-0.364c-0.52-0.52-1.362-0.521-1.883-0.002l-0.38 0.378v-3.459h2.627zM9.333 4c-2.203 0-4 1.797-4 4v16c0 2.203 1.797 4 4 4h14.667c1.47 0 2.667-1.197 2.667-2.667v-18.667c0-1.47-1.197-2.667-2.667-2.667h-14.667z"></path>
</svg>
