<!-- Generated by IcoMoon.io -->
<svg version="1.1" xmlns="http://www.w3.org/2000/svg" width="32" height="32" viewBox="0 0 32 32">
<path d="M23.075 13.055c-0.694 0.694-1.82 0.694-2.514 0l-4.561-4.561-4.561 4.561c-0.694 0.694-1.82 0.694-2.514 0s-0.694-1.82 0-2.514l5.818-5.818c0.333-0.333 0.786-0.521 1.257-0.521s0.924 0.187 1.257 0.521l5.818 5.818c0.694 0.694 0.694 1.82 0 2.514z"></path>
<path d="M8.925 18.945c0.694-0.694 1.82-0.694 2.514 0l4.561 4.561 4.561-4.561c0.694-0.694 1.82-0.694 2.514 0s0.694 1.82 0 2.514l-5.818 5.818c-0.333 0.333-0.785 0.521-1.257 0.521s-0.924-0.187-1.257-0.521l-5.818-5.818c-0.694-0.694-0.694-1.82 0-2.514z"></path>
</svg>
