<svg width="24" height="24" viewBox="0 0 24 24" fill="none" xmlns="http://www.w3.org/2000/svg">
<path d="M8.83266 5.23107L9.17692 6.15424C9.46486 6.92613 10.0736 7.53514 10.8458 7.82308L11.7689 8.16734C12.077 8.28218 12.077 8.71782 11.7689 8.83266L10.8458 9.17692C10.0739 9.46486 9.46486 10.0736 9.17692 10.8458L8.83266 11.7689C8.71782 12.077 8.28218 12.077 8.16734 11.7689L7.82308 10.8458C7.53514 10.0739 6.92641 9.46486 6.15424 9.17692L5.23107 8.83266C4.92298 8.71782 4.92298 8.28218 5.23107 8.16734L6.15424 7.82308C6.92613 7.53514 7.53514 6.92641 7.82308 6.15424L8.16734 5.23107C8.28218 4.92298 8.71782 4.92298 8.83266 5.23107Z" fill="#444444"/>
<path d="M17.7376 8.16505L17.9835 8.82446C18.1892 9.37581 18.624 9.81081 19.1755 10.0165L19.835 10.2624C20.055 10.3444 20.055 10.6556 19.835 10.7376L19.1755 10.9835C18.6242 11.1892 18.1892 11.624 17.9835 12.1755L17.7376 12.835C17.6556 13.055 17.3444 13.055 17.2624 12.835L17.0165 12.1755C16.8108 11.6242 16.376 11.1892 15.8245 10.9835L15.165 10.7376C14.945 10.6556 14.945 10.3444 15.165 10.2624L15.8245 10.0165C16.3758 9.81081 16.8108 9.37601 17.0165 8.82446L17.2624 8.16505C17.3444 7.94498 17.6556 7.94498 17.7376 8.16505Z" fill="#444444"/>
<path d="M11.7376 15.165L11.9835 15.8245C12.1892 16.3758 12.624 16.8108 13.1755 17.0165L13.835 17.2624C14.055 17.3444 14.055 17.6556 13.835 17.7376L13.1755 17.9835C12.6242 18.1892 12.1892 18.624 11.9835 19.1755L11.7376 19.835C11.6556 20.055 11.3444 20.055 11.2624 19.835L11.0165 19.1755C10.8108 18.6242 10.376 18.1892 9.82446 17.9835L9.16505 17.7376C8.94498 17.6556 8.94498 17.3444 9.16505 17.2624L9.82446 17.0165C10.3758 16.8108 10.8108 16.376 11.0165 15.8245L11.2624 15.165C11.3444 14.945 11.6556 14.945 11.7376 15.165Z" fill="#444444"/>
</svg>
