<!-- Generated by IcoMoon.io -->
<svg version="1.1" xmlns="http://www.w3.org/2000/svg" width="32" height="32" viewBox="0 0 32 32">
<title>sug-arrow-up</title>
<path d="M20.363 19.504c-0.364-0.002-0.694-0.15-0.933-0.388l-3.429-3.407-3.423 3.407c-0.241 0.24-0.574 0.388-0.941 0.388-0.737 0-1.334-0.597-1.334-1.334 0-0.369 0.15-0.704 0.393-0.945l0-0 4.371-4.341c0.241-0.24 0.573-0.388 0.94-0.388s0.699 0.148 0.94 0.388l-0-0 4.364 4.341c0.243 0.242 0.393 0.576 0.393 0.945 0 0.736-0.597 1.333-1.333 1.333-0 0-0.001 0-0.001 0h0z"></path>
</svg>
