<!-- Generated by IcoMoon.io -->
<svg version="1.1" xmlns="http://www.w3.org/2000/svg" width="32" height="32" viewBox="0 0 32 32">
<title>close</title>
<path d="M8.914 7.096c-0.536-0.505-1.38-0.479-1.885 0.057s-0.479 1.38 0.057 1.885l7.398 6.962-7.398 6.962c-0.536 0.505-0.562 1.348-0.057 1.885s1.349 0.562 1.885 0.057l7.515-7.073 7.515 7.073c0.536 0.505 1.38 0.479 1.885-0.057s0.479-1.38-0.057-1.885l-7.397-6.962 7.397-6.962c0.536-0.505 0.562-1.349 0.057-1.885s-1.349-0.562-1.885-0.057l-7.515 7.073-7.515-7.073z"></path>
</svg>
