<!-- Generated by IcoMoon.io -->
<svg version="1.1" xmlns="http://www.w3.org/2000/svg" width="32" height="32" viewBox="0 0 32 32">
<title>description</title>
<path d="M15.007 4.089c4.943-0.572 9.153 3.265 9.153 8.111 0 2.040-0.751 3.907-1.992 5.34l-0.001 0.001c-0.236 0.272-0.367 0.617-0.367 0.966 0 2.283-1.85 4.133-4.133 4.133h-3.32c-2.283 0-4.133-1.85-4.133-4.133 0-0.331-0.132-0.68-0.38-0.966l-0.002-0.003c-1.508-1.747-2.308-4.14-1.88-6.702 0.577-3.532 3.502-6.331 7.054-6.747l0.002-0zM15.314 6.738c-2.367 0.278-4.347 2.17-4.732 4.53l-0.001 0.006c-0.29 1.73 0.243 3.334 1.266 4.52 0.631 0.728 1.032 1.685 1.032 2.713 0 0.81 0.656 1.467 1.467 1.467h3.32c0.81 0 1.467-0.656 1.467-1.467 0-1.011 0.376-1.973 1.020-2.714 0.838-0.967 1.34-2.219 1.34-3.592 0-3.26-2.829-5.85-6.179-5.462z"></path>
<path d="M11.853 25.333c0-0.736 0.597-1.333 1.333-1.333h5.627c0.736 0 1.333 0.597 1.333 1.333s-0.597 1.333-1.333 1.333h-5.627c-0.736 0-1.333-0.597-1.333-1.333z"></path>
</svg>
