<svg id="wsc" xmlns="http://www.w3.org/2000/svg" width="24" height="24" viewBox="0 0 24 24">
  <metadata><?xpacket begin="﻿" id="W5M0MpCehiHzreSzNTczkc9d"?>
<x:xmpmeta xmlns:x="adobe:ns:meta/" x:xmptk="Adobe XMP Core 5.6-c140 79.160451, 2017/05/06-01:08:21        ">
   <rdf:RDF xmlns:rdf="http://www.w3.org/1999/02/22-rdf-syntax-ns#">
      <rdf:Description rdf:about=""/>
   </rdf:RDF>
</x:xmpmeta>
                                                                                                    
                                                                                                    
                                                                                                    
                                                                                                    
                                                                                                    
                                                                                                    
                                                                                                    
                                                                                                    
                                                                                                    
                                                                                                    
                                                                                                    
                                                                                                    
                                                                                                    
                                                                                                    
                                                                                                    
                                                                                                    
                                                                                                    
                                                                                                    
                                                                                                    
                                                                                                    
                           
<?xpacket end="w"?></metadata>
<defs>
    <style>
      .cls-1 {
        fill-rule: evenodd;
      }
    </style>
  </defs>
  <path class="cls-1" d="M16.265,6.915A5.459,5.459,0,0,0,12.337,4.06,4.9,4.9,0,0,0,11.513,4H11.5a4.9,4.9,0,0,0-.824.062A5.46,5.46,0,0,0,6.745,6.915a4.8,4.8,0,0,0,.037,4.451c0.286,0.543.618,1.062,0.94,1.565L8.107,13.54A7.331,7.331,0,0,1,9.35,16.482l0.09,0.884a0.589,0.589,0,0,0,.475.486,1.331,1.331,0,0,0,.172.019h2.837a1.33,1.33,0,0,0,.172-0.019,0.589,0.589,0,0,0,.475-0.486l0.09-.884A7.331,7.331,0,0,1,14.9,13.54l0.386-.609c0.321-.5.654-1.021,0.94-1.565A4.8,4.8,0,0,0,16.265,6.915Zm-1.029,3.954c-0.265.5-.57,0.98-0.894,1.485l-0.394.622a8.207,8.207,0,0,0-1.4,3.39l-0.043.417h-2l-0.043-.417a8.207,8.207,0,0,0-1.4-3.39l-0.394-.622c-0.324-.505-0.629-0.983-0.894-1.485A3.743,3.743,0,0,1,7.745,7.4a4.341,4.341,0,0,1,3.127-2.266,3.938,3.938,0,0,1,1.265,0A4.341,4.341,0,0,1,15.265,7.4,3.743,3.743,0,0,1,15.236,10.869ZM13.066,20H9.945a0.506,0.506,0,0,1-.511-0.5h0a0.506,0.506,0,0,1,.511-0.5h3.12a0.506,0.506,0,0,1,.511.5h0A0.506,0.506,0,0,1,13.066,20ZM11.505,11.83h0a0.506,0.506,0,0,1-.511-0.5V7.366a0.506,0.506,0,0,1,.511-0.5h0a0.506,0.506,0,0,1,.511.5v3.966A0.506,0.506,0,0,1,11.505,11.83Zm0.511,1.646a0.511,0.511,0,1,1-.511-0.5A0.5,0.5,0,0,1,12.016,13.476Z"/>
</svg>
