<svg id="icon_dictionary" data-name="icon dictionary" xmlns="http://www.w3.org/2000/svg" width="28" height="28" viewBox="0 0 28 28">
  <metadata><?xpacket begin="﻿" id="W5M0MpCehiHzreSzNTczkc9d"?>
<x:xmpmeta xmlns:x="adobe:ns:meta/" x:xmptk="Adobe XMP Core 5.6-c140 79.160451, 2017/05/06-01:08:21        ">
   <rdf:RDF xmlns:rdf="http://www.w3.org/1999/02/22-rdf-syntax-ns#">
      <rdf:Description rdf:about=""/>
   </rdf:RDF>
</x:xmpmeta>
                                                                                                    
                                                                                                    
                                                                                                    
                                                                                                    
                                                                                                    
                                                                                                    
                                                                                                    
                                                                                                    
                                                                                                    
                                                                                                    
                                                                                                    
                                                                                                    
                                                                                                    
                                                                                                    
                                                                                                    
                                                                                                    
                                                                                                    
                                                                                                    
                                                                                                    
                                                                                                    
                           
<?xpacket end="w"?></metadata>
<defs>
    <style>
      .cls-1 {
        fill-rule: evenodd;
      }
    </style>
  </defs>
  <path id="Aa" class="cls-1" d="M12.762,21.068L13.65,18.74a4.406,4.406,0,0,0,.17-0.54q0.039,0.156.083,0.294t0.083,0.242l0.888,2.332H12.762Zm1.444-3.6H13.433L11.172,23.2h0.592a0.25,0.25,0,0,0,.166-0.056,0.281,0.281,0,0,0,.091-0.128l0.529-1.384h2.538l0.529,1.384a0.318,0.318,0,0,0,.095.132,0.252,0.252,0,0,0,.166.052h0.592Zm5.008,4.748a2.25,2.25,0,0,1-.243.228,1.631,1.631,0,0,1-.261.172,1.267,1.267,0,0,1-.29.11,1.413,1.413,0,0,1-.339.038,0.946,0.946,0,0,1-.259-0.034,0.558,0.558,0,0,1-.209-0.108,0.511,0.511,0,0,1-.14-0.19,0.679,0.679,0,0,1-.051-0.276,0.512,0.512,0,0,1,.1-0.3,0.77,0.77,0,0,1,.312-0.236,2.334,2.334,0,0,1,.556-0.162,5.788,5.788,0,0,1,.827-0.078v0.84Zm-2.143-2.268a0.344,0.344,0,0,0,.087.094,0.2,0.2,0,0,0,.122.038,0.316,0.316,0,0,0,.184-0.066q0.093-.066.221-0.148a1.624,1.624,0,0,1,.3-0.148,1.248,1.248,0,0,1,.436-0.066,0.721,0.721,0,0,1,.588.242,1.094,1.094,0,0,1,.2.714V20.92a5.738,5.738,0,0,0-1.152.126,2.748,2.748,0,0,0-.762.282,1.147,1.147,0,0,0-.422.394,0.9,0.9,0,0,0-.13.462,1.181,1.181,0,0,0,.089.478,0.931,0.931,0,0,0,.241.334,1.007,1.007,0,0,0,.357.2,1.422,1.422,0,0,0,.438.066,1.908,1.908,0,0,0,.416-0.042,1.7,1.7,0,0,0,.353-0.12,1.762,1.762,0,0,0,.316-0.192,3.948,3.948,0,0,0,.308-0.262l0.079,0.384a0.231,0.231,0,0,0,.087.134,0.3,0.3,0,0,0,.158.034H19.9V20.6a2.042,2.042,0,0,0-.091-0.624,1.327,1.327,0,0,0-.268-0.484,1.224,1.224,0,0,0-.438-0.312,1.5,1.5,0,0,0-.6-0.112,2.181,2.181,0,0,0-.849.16,2.282,2.282,0,0,0-.714.484Z"/>
  <path class="cls-1" d="M10,26v2H8V26h2Z"/>
  <path id="Rounded_Rectangle_12_copy" data-name="Rounded Rectangle 12 copy" class="cls-1" d="M7,2H21a2,2,0,0,1,2,2V24a2,2,0,0,1-2,2H7a2,2,0,0,1-2-2V4A2,2,0,0,1,7,2ZM8,3H21a1,1,0,0,1,1,1V24a1,1,0,0,1-1,1H8c0.024,0.03,0-.448,0-1V4C8,3.448,8,3,8,3Z"/>
</svg>
