<!-- Generated by IcoMoon.io -->
<svg version="1.1" xmlns="http://www.w3.org/2000/svg" width="32" height="32" viewBox="0 0 32 32">
<title>dictionaries</title>
<path d="M11.429 26.286h12.571v-20.571h-2.309v5.714c0 0.462-0.278 0.879-0.706 1.056s-0.919 0.079-1.245-0.248l-1.457-1.457-1.466 1.459c-0.327 0.326-0.818 0.422-1.245 0.245s-0.704-0.594-0.704-1.055v-5.714h-3.44v20.571zM19.406 5.714h-2.251v2.965l0.325-0.324c0.447-0.444 1.169-0.444 1.614 0.002l0.312 0.312v-2.955zM24 28.571h-13.714c-2.528 0-4.571-2.043-4.571-4.571v-16c0-2.528 2.043-4.571 4.571-4.571h13.714c1.26 0 2.286 1.026 2.286 2.286v20.571c0 1.26-1.026 2.286-2.286 2.286zM9.143 6.018c-0.684 0.394-1.143 1.133-1.143 1.982v16c0 0.849 0.459 1.587 1.143 1.982v-19.963z"></path>
</svg>
