<!-- Generated by IcoMoon.io -->
<svg version="1.1" xmlns="http://www.w3.org/2000/svg" width="32" height="32" viewBox="0 0 32 32">
<title>disable-rule</title>
<path d="M12.8 28h-3.467c-2.267 0-4-1.733-4-4v-16c0-2.267 1.733-4 4-4h14.667c1.467 0 2.667 1.2 2.667 2.667v5.733c0 0.8-0.533 1.333-1.333 1.333s-1.333-0.533-1.333-1.333v-5.733h-14.667c-0.8 0-1.333 0.533-1.333 1.333v16c0 0.8 0.533 1.333 1.333 1.333h3.467c0.8 0 1.333 0.533 1.333 1.333s-0.533 1.333-1.333 1.333z"></path>
<path d="M19.2 14.667h-6.667c-0.8 0-1.333-0.533-1.333-1.333s0.533-1.333 1.333-1.333h6.667c0.8 0 1.333 0.533 1.333 1.333s-0.533 1.333-1.333 1.333z"></path>
<path d="M26.667 26.667c-0.4 0-0.667-0.133-0.933-0.4l-6.4-6.4c-0.533-0.533-0.533-1.333 0-1.867s1.333-0.533 1.867 0l6.4 6.4c0.533 0.533 0.533 1.333 0 1.867-0.267 0.267-0.533 0.4-0.933 0.4z"></path>
<path d="M20.267 26.667c-0.4 0-0.667-0.133-0.933-0.4-0.533-0.533-0.533-1.333 0-1.867l6.4-6.4c0.533-0.533 1.333-0.533 1.867 0s0.533 1.333 0 1.867l-6.4 6.4c-0.267 0.267-0.533 0.4-0.933 0.4z"></path>
<path d="M15.2 20h-2.667c-0.8 0-1.333-0.533-1.333-1.333s0.533-1.333 1.333-1.333h2.667c0.8 0 1.333 0.533 1.333 1.333s-0.533 1.333-1.333 1.333z"></path>
</svg>
