<!-- Generated by IcoMoon.io -->
<svg version="1.1" xmlns="http://www.w3.org/2000/svg" width="32" height="32" viewBox="0 0 32 32">
<title>disableRule</title>
<path d="M26.749 9.528l-5.256-5.148c-0.24-0.235-0.569-0.38-0.932-0.38-0 0-0.001 0-0.001 0h-9.411c-2.209 0-4 1.791-4 4v0 4.523c0 0.736 0.597 1.333 1.333 1.333s1.333-0.597 1.333-1.333v0-4.523c0-0.736 0.597-1.333 1.333-1.333v0h6.744v2.481c0 2.209 1.791 4 4 4v0h2.589v10.852c0 0.736-0.597 1.333-1.333 1.333v0h-3.923c-0.736 0-1.333 0.597-1.333 1.333s0.597 1.333 1.333 1.333v0h3.923c2.209 0 4-1.791 4-4v0-13.519c0-0 0-0.001 0-0.001 0-0.373-0.153-0.71-0.4-0.952l-0-0zM20.56 9.148v-1.948l3.352 3.281h-2.019c-0.736 0-1.333-0.597-1.333-1.333v0z"></path>
<path d="M11.084 15.533c-3.443 0-6.233 2.791-6.233 6.233s2.791 6.233 6.233 6.233c3.443 0 6.233-2.791 6.233-6.233v0c-0.004-3.441-2.792-6.23-6.233-6.233h-0zM14.651 21.767c0 0 0 0 0 0.001 0 0.504-0.105 0.984-0.294 1.418l0.009-0.023-4.676-4.677c0.412-0.18 0.893-0.285 1.397-0.285 1.968 0 3.564 1.596 3.564 3.564 0 0.001 0 0.002 0 0.003v-0zM7.517 21.767c0-0.504 0.105-0.984 0.294-1.419l-0.009 0.023 4.677 4.677c-0.412 0.18-0.893 0.285-1.397 0.285-1.969 0-3.565-1.596-3.565-3.565 0-0 0-0.001 0-0.001v0z"></path>
</svg>
