<!-- Generated by IcoMoon.io -->
<svg version="1.1" xmlns="http://www.w3.org/2000/svg" width="32" height="32" viewBox="0 0 32 32">
<title>disconnect</title>
<path d="M4 16c0-0.736 0.597-1.333 1.333-1.333h2.667c0.736 0 1.333 0.597 1.333 1.333s-0.597 1.333-1.333 1.333h-2.667c-0.736 0-1.333-0.597-1.333-1.333z"></path>
<path d="M8.356 18.977c0.521 0.521 0.521 1.365 0 1.886l-1.96 1.96c-0.521 0.521-1.365 0.521-1.886 0s-0.521-1.365 0-1.886l1.96-1.96c0.521-0.521 1.365-0.521 1.886 0z"></path>
<path d="M4.511 9.177c0.521-0.521 1.365-0.521 1.886 0l1.96 1.96c0.521 0.521 0.521 1.365 0 1.886s-1.365 0.521-1.886 0l-1.96-1.96c-0.521-0.521-0.521-1.365 0-1.886z"></path>
<path d="M22.667 16c0-0.736 0.597-1.333 1.333-1.333h2.667c0.736 0 1.333 0.597 1.333 1.333s-0.597 1.333-1.333 1.333h-2.667c-0.736 0-1.333-0.597-1.333-1.333z"></path>
<path d="M23.644 18.977c0.521-0.521 1.365-0.521 1.886 0l1.96 1.96c0.521 0.521 0.521 1.365 0 1.886s-1.365 0.521-1.886 0l-1.96-1.96c-0.521-0.521-0.521-1.365 0-1.886z"></path>
<path d="M27.489 9.177c0.521 0.521 0.521 1.365 0 1.886l-1.96 1.96c-0.521 0.521-1.365 0.521-1.886 0s-0.521-1.365 0-1.886l1.96-1.96c0.521-0.521 1.365-0.521 1.886 0z"></path>
<path d="M16 7.267c-1.464 0-2.667 1.203-2.667 2.667v3.413c0 0.736-0.597 1.333-1.333 1.333s-1.333-0.597-1.333-1.333v-3.413c0-2.936 2.397-5.333 5.333-5.333s5.333 2.397 5.333 5.333v3.413c0 0.736-0.597 1.333-1.333 1.333s-1.333-0.597-1.333-1.333v-3.413c0-1.464-1.203-2.667-2.667-2.667z"></path>
<path d="M12 17.32c0.736 0 1.333 0.597 1.333 1.333v3.413c0 1.464 1.203 2.667 2.667 2.667s2.667-1.203 2.667-2.667v-3.413c0-0.736 0.597-1.333 1.333-1.333s1.333 0.597 1.333 1.333v3.413c0 2.936-2.397 5.333-5.333 5.333s-5.333-2.397-5.333-5.333v-3.413c0-0.736 0.597-1.333 1.333-1.333z"></path>
</svg>
