<!-- Generated by IcoMoon.io -->
<svg version="1.1" xmlns="http://www.w3.org/2000/svg" width="32" height="32" viewBox="0 0 32 32">
<title>edit</title>
<path d="M20.32 10.459l1.877 1.877-12.042 12.062-2.361 0.473 0.474-2.361 12.052-12.052zM19.377 7.631l-13.28 13.28c-0.186 0.186-0.313 0.423-0.364 0.681l-0.947 4.72c-0.088 0.437 0.049 0.89 0.364 1.205s0.768 0.452 1.205 0.365l4.72-0.947c0.258-0.052 0.495-0.179 0.681-0.365l13.124-13.146c0.054-0.040 0.106-0.084 0.155-0.133s0.094-0.102 0.134-0.157l2.594-2.599c1.056-1.037 1.036-2.739 0.005-3.77v0l-1.875-1.875c-1.037-1.057-2.739-1.037-3.771-0.005l-2.747 2.747zM22.206 8.573l1.801-1.801 1.874 1.874-1.8 1.803-1.876-1.876zM16 26.667c0-0.736 0.597-1.333 1.333-1.333h9.413c0.736 0 1.333 0.597 1.333 1.333s-0.597 1.333-1.333 1.333h-9.413c-0.736 0-1.333-0.597-1.333-1.333z"></path>
</svg>
