<svg xmlns="http://www.w3.org/2000/svg" width="30" height="30" viewBox="0 0 30 30">
  <metadata><?xpacket begin="﻿" id="W5M0MpCehiHzreSzNTczkc9d"?>
<x:xmpmeta xmlns:x="adobe:ns:meta/" x:xmptk="Adobe XMP Core 5.6-c140 79.160451, 2017/05/06-01:08:21        ">
   <rdf:RDF xmlns:rdf="http://www.w3.org/1999/02/22-rdf-syntax-ns#">
      <rdf:Description rdf:about=""/>
   </rdf:RDF>
</x:xmpmeta>
                                                                                                    
                                                                                                    
                                                                                                    
                                                                                                    
                                                                                                    
                                                                                                    
                                                                                                    
                                                                                                    
                                                                                                    
                                                                                                    
                                                                                                    
                                                                                                    
                                                                                                    
                                                                                                    
                                                                                                    
                                                                                                    
                                                                                                    
                                                                                                    
                                                                                                    
                                                                                                    
                           
<?xpacket end="w"?></metadata>
<defs>
    <style>
      .cls-1 {
        fill-rule: evenodd;
      }
    </style>
  </defs>
  <path class="cls-1" d="M20.481,6.131L24.8,10.445l-9.7,9.708-4.317-4.316ZM9.821,16.65l4.322,4.322L7.23,23.565Zm18-9.233L25.675,9.564l-4.31-4.313L23.515,3.1ZM26,15v9a1.957,1.957,0,0,1-2,2H6a1.957,1.957,0,0,1-2-2V6A1.957,1.957,0,0,1,6,4h9l0.023-2L5.55,2.017A3.537,3.537,0,0,0,2.017,5.55V24.488A3.538,3.538,0,0,0,5.55,28.021H24.488a3.538,3.538,0,0,0,3.533-3.533V15.019Z"/>
</svg>
