<svg xmlns="http://www.w3.org/2000/svg" width="24" height="24" viewBox="0 0 24 24">
  <metadata><?xpacket begin="﻿" id="W5M0MpCehiHzreSzNTczkc9d"?>
<x:xmpmeta xmlns:x="adobe:ns:meta/" x:xmptk="Adobe XMP Core 5.6-c140 79.160451, 2017/05/06-01:08:21        ">
   <rdf:RDF xmlns:rdf="http://www.w3.org/1999/02/22-rdf-syntax-ns#">
      <rdf:Description rdf:about=""/>
   </rdf:RDF>
</x:xmpmeta>
                                                                                                    
                                                                                                    
                                                                                                    
                                                                                                    
                                                                                                    
                                                                                                    
                                                                                                    
                                                                                                    
                                                                                                    
                                                                                                    
                                                                                                    
                                                                                                    
                                                                                                    
                                                                                                    
                                                                                                    
                                                                                                    
                                                                                                    
                                                                                                    
                                                                                                    
                                                                                                    
                           
<?xpacket end="w"?></metadata>
<defs>
    <style>
      .cls-1 {
        fill-rule: evenodd;
      }
    </style>
  </defs>
  <path class="cls-1" d="M15.772,5.855l2.983,2.981-6.7,6.709L9.069,12.563ZM8.405,13.125l2.987,2.987L6.615,17.9ZM20.846,6.744L19.362,8.227,16.384,5.247l1.485-1.483ZM19.969,12v6.544a1.429,1.429,0,0,1-1.427,1.427H5.454a1.429,1.429,0,0,1-1.427-1.427V5.453A1.428,1.428,0,0,1,5.454,4.026L12,4V3l-6.546.012A2.444,2.444,0,0,0,3.012,5.453V18.541a2.445,2.445,0,0,0,2.442,2.442H18.541a2.445,2.445,0,0,0,2.442-2.442V12H19.969Z"/>
</svg>
