<!-- Generated by IcoMoon.io -->
<svg version="1.1" xmlns="http://www.w3.org/2000/svg" width="32" height="32" viewBox="0 0 32 32">
<title>ignore</title>
<path d="M16 28c-6.667 0-12-5.333-12-12s5.333-12 12-12 12 5.333 12 12-5.333 12-12 12zM16 6.667c-5.2 0-9.333 4.133-9.333 9.333s4.133 9.333 9.333 9.333 9.333-4.133 9.333-9.333-4.133-9.333-9.333-9.333z"></path>
<path d="M20 21.333c-0.4 0-0.667-0.133-0.933-0.4l-8-8c-0.533-0.533-0.533-1.333 0-1.867s1.333-0.533 1.867 0l8 8c0.533 0.533 0.533 1.333 0 1.867-0.267 0.267-0.533 0.4-0.933 0.4z"></path>
<path d="M12 21.333c-0.4 0-0.667-0.133-0.933-0.4-0.533-0.533-0.533-1.333 0-1.867l8-8c0.533-0.533 1.333-0.533 1.867 0s0.533 1.333 0 1.867l-8 8c-0.267 0.267-0.533 0.4-0.933 0.4z"></path>
</svg>
