<!-- Generated by IcoMoon.io -->
<svg version="1.1" xmlns="http://www.w3.org/2000/svg" width="32" height="32" viewBox="0 0 32 32">
<title>ignoreAll</title>
<path d="M14.897 25.333h-6.589c-0.736 0-1.333-0.597-1.333-1.333v0-16c0-0.736 0.597-1.333 1.333-1.333v0h13.333c0.736 0 1.333 0.597 1.333 1.333v0 8.332c0 0.736 0.597 1.333 1.333 1.333s1.333-0.597 1.333-1.333v0-8.332c0-2.209-1.791-4-4-4v0h-13.333c-2.209 0-4 1.791-4 4v0 16c0 2.209 1.791 4 4 4v0h6.589c0.736 0 1.333-0.597 1.333-1.333s-0.597-1.333-1.333-1.333v0z"></path>
<path d="M18.231 11.333h-6.645c-0.736 0-1.333 0.597-1.333 1.333s0.597 1.333 1.333 1.333v0h6.645c0.736 0 1.333-0.597 1.333-1.333s-0.597-1.333-1.333-1.333v0z"></path>
<path d="M25.381 23.805l1.92-1.92c0.232-0.24 0.374-0.566 0.374-0.926 0-0.736-0.597-1.333-1.333-1.333-0.36 0-0.687 0.143-0.927 0.375l-1.92 1.92-1.919-1.92c-0.243-0.251-0.583-0.407-0.959-0.407-0.736 0-1.333 0.597-1.333 1.333 0 0.376 0.156 0.716 0.407 0.959l1.919 1.92-1.919 1.919c-0.251 0.243-0.407 0.583-0.407 0.959 0 0.736 0.597 1.333 1.333 1.333 0.376 0 0.716-0.156 0.959-0.407l1.919-1.919 1.92 1.919c0.24 0.232 0.566 0.374 0.926 0.374 0.736 0 1.333-0.597 1.333-1.333 0-0.36-0.143-0.687-0.375-0.927l0 0z"></path>
<path d="M14.975 17.333h-3.389c-0.736 0-1.333 0.597-1.333 1.333s0.597 1.333 1.333 1.333v0h3.389c0.736 0 1.333-0.597 1.333-1.333s-0.597-1.333-1.333-1.333v0z"></path>
</svg>
