<!-- Generated by IcoMoon.io -->
<svg version="1.1" xmlns="http://www.w3.org/2000/svg" width="32" height="32" viewBox="0 0 32 32">
<title>ignoreAll</title>
<path d="M11.365 9.479c1.308-0.931 2.908-1.479 4.635-1.479 4.418 0 8 3.582 8 8 0 1.728-0.548 3.328-1.479 4.635l-11.156-11.156zM9.479 11.365l11.156 11.156c-1.308 0.931-2.908 1.479-4.635 1.479-4.418 0-8-3.582-8-8 0-1.728 0.548-3.328 1.479-4.635zM16 5.333c-5.891 0-10.667 4.776-10.667 10.667s4.776 10.667 10.667 10.667c5.891 0 10.667-4.776 10.667-10.667s-4.776-10.667-10.667-10.667z"></path>
</svg>
