<!-- Generated by IcoMoon.io -->
<svg version="1.1" xmlns="http://www.w3.org/2000/svg" width="32" height="32" viewBox="0 0 32 32">
<title>ignore</title>
<path d="M24.8 24.4l1.467-1.467c0.251-0.243 0.407-0.583 0.407-0.959 0-0.736-0.597-1.333-1.333-1.333-0.376 0-0.716 0.156-0.959 0.407l-1.467 1.467-1.467-1.467c-0.243-0.251-0.583-0.407-0.959-0.407-0.736 0-1.333 0.597-1.333 1.333 0 0.376 0.156 0.716 0.407 0.959l1.467 1.467-1.467 1.467c-0.251 0.243-0.407 0.583-0.407 0.959 0 0.736 0.597 1.333 1.333 1.333 0.376 0 0.716-0.156 0.959-0.407l1.467-1.467 1.467 1.467c0.24 0.232 0.566 0.374 0.926 0.374 0.736 0 1.333-0.597 1.333-1.333 0-0.36-0.143-0.687-0.375-0.927l0 0z"></path>
<path d="M15.235 25.473h-8.035c-0.736 0-1.333 0.597-1.333 1.333s0.597 1.333 1.333 1.333v0h8.037c0.736 0 1.333-0.597 1.333-1.333s-0.597-1.333-1.333-1.333v0z"></path>
<path d="M21.811 18.923c-0.036-0.1-0.067-0.184-0.081-0.221l-4.231-10.449s-0.363-0.933-0.492-1.253c-0.138-0.336-0.297-0.625-0.483-0.894l0.010 0.015c-0.194-0.275-0.442-0.499-0.729-0.661l-0.011-0.006c-0.312-0.169-0.683-0.268-1.077-0.268-0.023 0-0.046 0-0.069 0.001l0.003-0c-0.018-0.001-0.040-0.001-0.062-0.001-0.392 0-0.76 0.099-1.082 0.273l0.012-0.006c-0.301 0.169-0.549 0.398-0.735 0.672l-0.005 0.008c-0.2 0.303-0.38 0.651-0.521 1.017l-0.013 0.037-0.425 1.088-4.667 11.696s-0.291 0.747-0.364 0.983c-0.068 0.204-0.108 0.44-0.111 0.684v0.001c0.006 0.409 0.188 0.775 0.473 1.025l0.002 0.001c0.278 0.28 0.663 0.453 1.089 0.453 0.002 0 0.003 0 0.005 0h-0c0.034 0.003 0.074 0.005 0.114 0.005 0.373 0 0.708-0.166 0.934-0.429l0.001-0.002c0.252-0.445 0.511-0.985 0.738-1.542l0.035-0.098 1.299-3.259h6.584l0.556 1.528c0.546-0.42 1.239-0.673 1.991-0.673 0.474 0 0.925 0.101 1.332 0.282l-0.021-0.008zM12.229 15.333l2.4-6.683 2.437 6.683z"></path>
</svg>
