<svg id="Icon_Languag" data-name="Icon Languag" xmlns="http://www.w3.org/2000/svg" width="28" height="28" viewBox="0 0 28 28">
  <metadata><?xpacket begin="﻿" id="W5M0MpCehiHzreSzNTczkc9d"?>
<x:xmpmeta xmlns:x="adobe:ns:meta/" x:xmptk="Adobe XMP Core 5.6-c140 79.160451, 2017/05/06-01:08:21        ">
   <rdf:RDF xmlns:rdf="http://www.w3.org/1999/02/22-rdf-syntax-ns#">
      <rdf:Description rdf:about=""/>
   </rdf:RDF>
</x:xmpmeta>
                                                                                                    
                                                                                                    
                                                                                                    
                                                                                                    
                                                                                                    
                                                                                                    
                                                                                                    
                                                                                                    
                                                                                                    
                                                                                                    
                                                                                                    
                                                                                                    
                                                                                                    
                                                                                                    
                                                                                                    
                                                                                                    
                                                                                                    
                                                                                                    
                                                                                                    
                                                                                                    
                           
<?xpacket end="w"?></metadata>
<defs>
    <style>
      .cls-1 {
        fill-rule: evenodd;
      }
    </style>
  </defs>
  <rect x="14" y="6" width="1" height="17"/>
  <rect x="6" y="10" width="17" height="1"/>
  <path id="Rectangle_90_copy_2" data-name="Rectangle 90 copy 2" class="cls-1" d="M6.011,18l16.975-.01v1L6.011,19V18Z"/>
  <rect id="Rectangle_90_copy" data-name="Rectangle 90 copy" x="5" y="14" width="19" height="1"/>
  <path id="Ellipse_18_copy_2" data-name="Ellipse 18 copy 2" class="cls-1" d="M14.5,5A9.5,9.5,0,1,1,5,14.5,9.5,9.5,0,0,1,14.5,5Zm0,1A8.5,8.5,0,1,1,6,14.5,8.5,8.5,0,0,1,14.5,6Z"/>
  <path id="Ellipse_18_copy_3" data-name="Ellipse 18 copy 3" class="cls-1" d="M14.5,5C17.538,5,20,9.253,20,14.5S17.538,24,14.5,24,9,19.747,9,14.5,11.462,5,14.5,5Zm0,1C16.985,6,19,9.806,19,14.5S16.985,23,14.5,23,10,19.194,10,14.5,12.015,6,14.5,6Z"/>
</svg>
