<!-- Generated by IcoMoon.io -->
<svg version="1.1" xmlns="http://www.w3.org/2000/svg" width="32" height="32" viewBox="0 0 32 32">
<title>languages</title>
<path d="M15.051 6.255c-0.415 0.438-0.841 1.134-1.222 2.088-0.1 0.25-0.196 0.515-0.286 0.792 0.733 0.027 1.549 0.042 2.458 0.042s1.725-0.015 2.458-0.042c-0.090-0.277-0.186-0.542-0.286-0.792-0.382-0.954-0.808-1.65-1.222-2.088-0.412-0.436-0.733-0.541-0.949-0.541s-0.537 0.105-0.949 0.541zM16 11.463c-1.133 0-2.137-0.023-3.025-0.063-0.197 1.060-0.329 2.224-0.38 3.457h6.81c-0.051-1.233-0.183-2.397-0.38-3.457-0.888 0.040-1.891 0.063-3.025 0.063zM11.706 7.494c0.146-0.365 0.305-0.716 0.475-1.048-1.273 0.509-2.421 1.266-3.383 2.21 0.566 0.119 1.344 0.24 2.397 0.336 0.153-0.53 0.324-1.031 0.511-1.497zM8.198 10.865c-0.382-0.084-0.698-0.171-0.959-0.256-0.778 1.261-1.291 2.703-1.461 4.248h4.53c0.048-1.267 0.177-2.483 0.374-3.618-1.054-0.105-1.864-0.238-2.484-0.374zM23.802 10.865c-0.621 0.136-1.43 0.269-2.484 0.374 0.198 1.135 0.326 2.352 0.375 3.618h4.53c-0.171-1.545-0.684-2.987-1.461-4.248-0.261 0.085-0.577 0.172-0.959 0.256zM20.804 8.992c1.054-0.096 1.831-0.217 2.397-0.336-0.963-0.944-2.11-1.701-3.383-2.21 0.171 0.332 0.329 0.683 0.475 1.048 0.187 0.467 0.358 0.968 0.511 1.497zM5.777 17.143c0.171 1.545 0.684 2.987 1.461 4.248 0.261-0.085 0.577-0.172 0.959-0.256 0.621-0.136 1.43-0.269 2.484-0.374-0.198-1.135-0.326-2.352-0.374-3.618h-4.53zM8.798 23.344c0.963 0.944 2.11 1.701 3.383 2.21-0.171-0.332-0.329-0.683-0.475-1.048-0.187-0.467-0.358-0.968-0.511-1.497-1.054 0.096-1.831 0.217-2.397 0.336zM13.542 22.865c0.091 0.277 0.186 0.542 0.286 0.792 0.382 0.954 0.808 1.65 1.222 2.088 0.412 0.436 0.733 0.541 0.949 0.541s0.537-0.105 0.949-0.541c0.415-0.438 0.841-1.134 1.222-2.088 0.1-0.25 0.196-0.515 0.286-0.792-0.733-0.027-1.549-0.042-2.458-0.042s-1.725 0.015-2.458 0.042zM20.804 23.008c-0.153 0.53-0.324 1.030-0.511 1.497-0.146 0.365-0.305 0.716-0.475 1.048 1.273-0.509 2.421-1.266 3.383-2.21-0.566-0.119-1.344-0.24-2.397-0.336zM24.762 21.391c0.778-1.261 1.291-2.703 1.461-4.248h-4.53c-0.048 1.267-0.177 2.484-0.375 3.618 1.054 0.105 1.864 0.238 2.484 0.374 0.382 0.084 0.698 0.171 0.959 0.256zM19.025 20.6c0.197-1.060 0.329-2.224 0.38-3.457h-6.81c0.051 1.233 0.183 2.397 0.38 3.457 0.888-0.040 1.891-0.063 3.025-0.063s2.137 0.023 3.025 0.063zM3.429 16c0-6.943 5.628-12.571 12.571-12.571s12.571 5.628 12.571 12.571c0 6.943-5.628 12.571-12.571 12.571s-12.571-5.628-12.571-12.571z"></path>
</svg>
