<!-- Generated by IcoMoon.io -->
<svg version="1.1" xmlns="http://www.w3.org/2000/svg" width="32" height="32" viewBox="0 0 32 32">
<title>maximizeRestore</title>
<path d="M24.983 7.099c-0.013-0.014-0.026-0.028-0.040-0.041-0.378-0.378-0.927-0.482-1.399-0.31h-4.877c-0.736 0-1.333 0.597-1.333 1.333s0.597 1.333 1.333 1.333h2.034l-2.977 2.977c-0.521 0.521-0.521 1.365 0 1.886s1.365 0.521 1.886 0l3.137-3.137v2.355c0 0.736 0.597 1.333 1.333 1.333s1.333-0.597 1.333-1.333v-5.413c0-0.388-0.166-0.738-0.431-0.981z"></path>
<path d="M9.253 18.507c0-0.736-0.597-1.333-1.333-1.333s-1.333 0.597-1.333 1.333v5.413c0 0.389 0.166 0.739 0.432 0.982 0.013 0.014 0.026 0.027 0.039 0.040 0.378 0.378 0.927 0.482 1.399 0.311h4.877c0.736 0 1.333-0.597 1.333-1.333s-0.597-1.333-1.333-1.333h-2.034l2.977-2.977c0.521-0.521 0.521-1.365 0-1.886s-1.365-0.521-1.886 0l-3.137 3.137v-2.354z"></path>
</svg>
