<!-- Generated by IcoMoon.io -->
<svg version="1.1" xmlns="http://www.w3.org/2000/svg" width="32" height="32" viewBox="0 0 32 32">
<title>message--error</title>
<path d="M16 4c-6.627 0-12 5.373-12 12s5.373 12 12 12c6.627 0 12-5.373 12-12s-5.373-12-12-12zM1.333 16c0-8.1 6.566-14.667 14.667-14.667s14.667 6.566 14.667 14.667c0 8.1-6.567 14.667-14.667 14.667s-14.667-6.567-14.667-14.667zM9.897 9.897c0.521-0.521 1.365-0.521 1.886 0l4.217 4.217 4.217-4.217c0.521-0.521 1.365-0.521 1.886 0s0.521 1.365 0 1.886l-4.217 4.217 4.217 4.217c0.521 0.521 0.521 1.365 0 1.886s-1.365 0.521-1.886 0l-4.217-4.217-4.217 4.217c-0.521 0.521-1.365 0.521-1.886 0s-0.521-1.365 0-1.886l4.217-4.217-4.217-4.217c-0.521-0.521-0.521-1.365 0-1.886z"></path>
</svg>
