<!-- Generated by IcoMoon.io -->
<svg version="1.1" xmlns="http://www.w3.org/2000/svg" width="32" height="32" viewBox="0 0 32 32">
<title>message</title>
<path d="M4 16c0-6.627 5.373-12 12-12s12 5.373 12 12c0 6.627-5.373 12-12 12s-12-5.373-12-12zM16 1.333c-8.1 0-14.667 6.566-14.667 14.667s6.566 14.667 14.667 14.667c8.1 0 14.667-6.567 14.667-14.667s-6.567-14.667-14.667-14.667zM23.663 12.623c0.521-0.521 0.521-1.365 0-1.886s-1.365-0.521-1.886 0l-7.697 7.697-3.857-3.857c-0.521-0.521-1.365-0.521-1.886 0s-0.521 1.365 0 1.886l4.8 4.8c0.521 0.521 1.365 0.521 1.886 0l8.64-8.64z"></path>
</svg>
