<svg id="I_2_copy_7" data-name="I 2 copy 7" xmlns="http://www.w3.org/2000/svg" viewBox="0 0 24 24"><title>message--confirm</title><rect x="11" y="7.5" width="2" height="6" rx="1" transform="translate(24 21) rotate(180)"/><circle cx="12" cy="16.54" r="1.5"/><path d="M19.76,22.14H4.24a3.43,3.43,0,0,1-3-5.14L9,3.57a3.43,3.43,0,0,1,5.94,0L22.72,17a3.43,3.43,0,0,1-3,5.14ZM12,4.14a1.13,1.13,0,0,0-1,.57h0L3.26,18.14a1.13,1.13,0,0,0,0,1.15,1.1,1.1,0,0,0,1,.57H19.76a1.1,1.1,0,0,0,1-.57,1.13,1.13,0,0,0,0-1.15L13,4.71A1.13,1.13,0,0,0,12,4.14Zm-2,0h0Z"/></svg>