<!-- Generated by IcoMoon.io -->
<svg version="1.1" xmlns="http://www.w3.org/2000/svg" width="32" height="32" viewBox="0 0 32 32">
<title>more-option</title>
<path d="M18 8.040c0 1.099-0.895 1.991-2 1.991s-2-0.891-2-1.991c0-1.099 0.895-1.991 2-1.991s2 0.891 2 1.991z"></path>
<path d="M18 16c0 1.099-0.895 1.991-2 1.991s-2-0.891-2-1.991c0-1.099 0.895-1.991 2-1.991s2 0.891 2 1.991z"></path>
<path d="M18 23.96c0 1.099-0.895 1.991-2 1.991s-2-0.891-2-1.991c0-1.099 0.895-1.991 2-1.991s2 0.891 2 1.991z"></path>
</svg>
