<!-- Generated by IcoMoon.io -->
<svg version="1.1" xmlns="http://www.w3.org/2000/svg" width="32" height="32" viewBox="0 0 32 32">
<title>openDialog</title>
<path d="M14 23.515h-2.78l3.675-3.676c0.232-0.24 0.374-0.566 0.374-0.926 0-0.736-0.597-1.333-1.333-1.333-0.36 0-0.687 0.143-0.927 0.375l-3.676 3.676v-2.781c0-0.736-0.597-1.333-1.333-1.333s-1.333 0.597-1.333 1.333v0 6c0 0.736 0.597 1.333 1.333 1.333v0h6c0.736 0 1.333-0.597 1.333-1.333s-0.597-1.333-1.333-1.333v0z"></path>
<path d="M25.333 5.819h-6c-0.736 0-1.333 0.597-1.333 1.333s0.597 1.333 1.333 1.333v0h2.84l-3.783 3.781c-0.251 0.243-0.407 0.583-0.407 0.959 0 0.736 0.597 1.333 1.333 1.333 0.376 0 0.716-0.156 0.959-0.407l3.724-3.723v2.723c0 0.736 0.597 1.333 1.333 1.333s1.333-0.597 1.333-1.333v0-6c0-0.736-0.597-1.333-1.333-1.333v0z"></path>
</svg>
