<!-- Generated by IcoMoon.io -->
<svg version="1.1" xmlns="http://www.w3.org/2000/svg" width="32" height="32" viewBox="0 0 32 32">
<title>openDialog</title>
<path d="M26.565 6.156c-0.065-0.156-0.16-0.302-0.287-0.43-0.002-0.002-0.004-0.004-0.006-0.006-0.241-0.24-0.573-0.388-0.94-0.388h-6.667c-0.736 0-1.333 0.597-1.333 1.333s0.597 1.333 1.333 1.333h3.448l-4.391 4.391c-0.521 0.521-0.521 1.365 0 1.886s1.365 0.521 1.886 0l4.391-4.391v3.448c0 0.736 0.597 1.333 1.333 1.333s1.333-0.597 1.333-1.333v-6.666c0-0.002 0-0.003 0-0.005-0.001-0.172-0.034-0.345-0.101-0.506z"></path>
<path d="M9.886 24l4.391-4.391c0.521-0.521 0.521-1.365 0-1.886s-1.365-0.521-1.886 0l-4.391 4.391v-3.448c0-0.736-0.597-1.333-1.333-1.333s-1.333 0.597-1.333 1.333v6.667c0 0.181 0.036 0.353 0.101 0.51 0.065 0.156 0.16 0.302 0.287 0.43 0.002 0.002 0.004 0.004 0.006 0.006 0.127 0.126 0.274 0.222 0.43 0.287 0.157 0.065 0.33 0.101 0.51 0.101h6.667c0.736 0 1.333-0.597 1.333-1.333s-0.597-1.333-1.333-1.333h-3.448z"></path>
</svg>
