<svg xmlns="http://www.w3.org/2000/svg" width="28" height="28" viewBox="0 0 28 28">
  <metadata><?xpacket begin="﻿" id="W5M0MpCehiHzreSzNTczkc9d"?>
<x:xmpmeta xmlns:x="adobe:ns:meta/" x:xmptk="Adobe XMP Core 5.6-c140 79.160451, 2017/05/06-01:08:21        ">
   <rdf:RDF xmlns:rdf="http://www.w3.org/1999/02/22-rdf-syntax-ns#">
      <rdf:Description rdf:about=""/>
   </rdf:RDF>
</x:xmpmeta>
                                                                                                    
                                                                                                    
                                                                                                    
                                                                                                    
                                                                                                    
                                                                                                    
                                                                                                    
                                                                                                    
                                                                                                    
                                                                                                    
                                                                                                    
                                                                                                    
                                                                                                    
                                                                                                    
                                                                                                    
                                                                                                    
                                                                                                    
                                                                                                    
                                                                                                    
                                                                                                    
                           
<?xpacket end="w"?></metadata>
<defs>
    <style>
      .cls-1 {
        fill-rule: evenodd;
      }
    </style>
  </defs>
  <path class="cls-1" d="M23.7,21.384l0.276,0.176a0.509,0.509,0,0,0,.012-0.2,4.127,4.127,0,0,0-.382-1.038,1.743,1.743,0,0,0-1.489-.86,1.425,1.425,0,0,0-.439.067,0.871,0.871,0,0,1-.271.046,0.794,0.794,0,0,1-.526-0.221,80.611,80.611,0,0,1-6.212-6.1,0.7,0.7,0,0,1-.172-0.674,2.666,2.666,0,0,0,.043-1.046,2.445,2.445,0,0,0-1.975-1.488c-0.025,0-.05,0-0.074,0H12.465a0.307,0.307,0,0,1-.109-0.02l-0.119.031c-0.22.056-.428,0.11-0.632,0.176,0.253,0.172.533,0.356,0.872,0.572a1.025,1.025,0,0,1,.495.945,1.754,1.754,0,0,1-.6,1.207,0.941,0.941,0,0,1-.666.3,1.05,1.05,0,0,1-.559-0.179l-0.394-.252c-0.19-.122-0.38-0.244-0.572-0.362a2.359,2.359,0,0,0,.36,1.2,1.793,1.793,0,0,0,1.489.919,1.449,1.449,0,0,0,.462-0.076,0.867,0.867,0,0,1,.279-0.05,0.786,0.786,0,0,1,.522.218,81.464,81.464,0,0,1,6.2,6.086,0.724,0.724,0,0,1,.179.721,1.532,1.532,0,0,0,.347,1.562,3.87,3.87,0,0,0,.85.686,1.778,1.778,0,0,0,.886.238,2.246,2.246,0,0,0,.824-0.17c-0.324-.221-0.643-0.427-0.89-0.585a1.022,1.022,0,0,1-.479-0.833,1.652,1.652,0,0,1,.46-1.174,1.021,1.021,0,0,1,.79-0.429,1.15,1.15,0,0,1,.617.2Zm-9.1-2.853a5.441,5.441,0,0,1-1.755.3,5.663,5.663,0,0,1-4.631-2.409,5.9,5.9,0,0,1-.986-4.536,5.74,5.74,0,0,1,5.614-4.718,5.518,5.518,0,0,1,2.64.67,5.867,5.867,0,0,1,2.884,6.472c0.839,0.849,1.644,1.631,2.426,2.353,0.233-.68.485-1.421,0.786-2.315a0.268,0.268,0,0,0-.211-0.409l-0.2-.072c-0.321-.113-0.653-0.231-0.978-0.358a0.6,0.6,0,0,1-.342-0.461c-0.016-.158-0.023-0.315-0.031-0.467s-0.014-.291-0.028-0.43a0.513,0.513,0,0,1,.307-0.56c0.375-.18.749-0.364,1.113-0.549,0.237-.121.265-0.206,0.147-0.456q-0.7-1.47-1.393-2.939C19.854,7.42,19.77,7.42,19.734,7.42a0.549,0.549,0,0,0-.231.069c-0.35.171-.724,0.356-1.091,0.547a0.554,0.554,0,0,1-.257.069,0.516,0.516,0,0,1-.365-0.168c-0.2-.2-0.405-0.386-0.619-0.561A0.531,0.531,0,0,1,17,6.738c0.145-.4.282-0.812,0.41-1.193a0.271,0.271,0,0,0-.2-0.418q-1.365-.485-2.732-0.966l-0.305-.108a0.58,0.58,0,0,0-.186-0.038c-0.054,0-.145,0-0.232.251l-0.076.219c-0.109.311-.221,0.633-0.319,0.951a0.526,0.526,0,0,1-.543.4c-0.251,0-.508.017-0.763,0.043a0.877,0.877,0,0,1-.089,0,0.542,0.542,0,0,1-.525-0.363c-0.126-.288-0.267-0.578-0.4-0.859l-0.123-.255a0.25,0.25,0,0,0-.225-0.2,0.453,0.453,0,0,0-.191.054Q9.034,4.986,7.579,5.71a0.265,0.265,0,0,0-.151.422C7.6,6.516,7.789,6.9,7.977,7.289a0.518,0.518,0,0,1-.1.636c-0.2.21-.387,0.423-0.55,0.631a0.51,0.51,0,0,1-.409.22,0.6,0.6,0,0,1-.217-0.044C6.424,8.625,6.14,8.526,5.856,8.426l-0.3-.1a0.576,0.576,0,0,0-.186-0.038c-0.053,0-.153,0-0.237.246q-0.53,1.552-1.057,3.1a0.27,0.27,0,0,0,.2.418l0.23,0.084c0.306,0.111.624,0.226,0.936,0.33A0.526,0.526,0,0,1,5.826,13c0.006,0.3.023,0.581,0.051,0.849a0.52,0.52,0,0,1-.316.558c-0.367.176-.732,0.357-1.1,0.539-0.247.123-.278,0.215-0.159,0.468Q5,16.884,5.7,18.353c0.106,0.223.2,0.223,0.233,0.223a0.545,0.545,0,0,0,.226-0.068l0.208-.1c0.3-.147.591-0.293,0.884-0.446A0.549,0.549,0,0,1,7.5,17.891a0.523,0.523,0,0,1,.366.167c0.187,0.185.4,0.375,0.64,0.58a0.5,0.5,0,0,1,.16.6c-0.123.344-.242,0.7-0.356,1.041l-0.058.173a0.273,0.273,0,0,0,.2.417l3.036,1.076a0.567,0.567,0,0,0,.183.038c0.054,0,.154,0,0.239-0.248q0.068-.2.134-0.4c0.089-.265.18-0.54,0.28-0.809a0.588,0.588,0,0,1,.45-0.356c0.164-.018.326-0.026,0.483-0.033,0.133-.006.266-0.013,0.4-0.025,0.024,0,.046,0,0.066,0a0.514,0.514,0,0,1,.49.341c0.1,0.227.211,0.452,0.319,0.678q0.1,0.2.192,0.4c0.119,0.254.207,0.254,0.244,0.254a0.562,0.562,0,0,0,.238-0.072l1.71-.848Q15.708,19.605,14.6,18.531Z"/>
</svg>
