<!-- Generated by IcoMoon.io -->
<svg version="1.1" xmlns="http://www.w3.org/2000/svg" width="32" height="32" viewBox="0 0 32 32">
<title>options</title>
<path d="M12.571 6.034c0-1.443 1.163-2.606 2.606-2.606h1.646c1.443 0 2.606 1.163 2.606 2.606v0.215c0.284 0.104 0.563 0.22 0.837 0.348 0.544-0.537 1.261-0.804 1.986-0.804 0.764 0 1.488 0.306 2.020 0.838l1.091 1.091c0.564 0.549 0.844 1.283 0.844 2.026 0 0.747-0.293 1.457-0.804 1.985 0.129 0.274 0.245 0.553 0.349 0.838h0.215c1.443 0 2.606 1.163 2.606 2.606v1.646c0 1.443-1.163 2.606-2.606 2.606h-0.215c-0.104 0.284-0.22 0.563-0.348 0.837 0.537 0.544 0.804 1.261 0.804 1.986 0 0.764-0.306 1.488-0.838 2.020l-1.091 1.091c-0.549 0.564-1.283 0.844-2.026 0.844-0.747 0-1.457-0.293-1.985-0.804-0.274 0.129-0.553 0.245-0.837 0.349v0.215c0 1.443-1.163 2.606-2.606 2.606h-1.394c-1.568 0-2.826-1.27-2.857-2.821-0.289-0.106-0.574-0.224-0.853-0.356-0.544 0.534-1.259 0.8-1.982 0.8-0.764 0-1.488-0.306-2.020-0.838l-1.265-1.265c-1.028-1.013-1.015-2.665-0.003-3.677l0.149-0.149c-0.129-0.274-0.245-0.553-0.348-0.837h-0.215c-1.443 0-2.606-1.163-2.606-2.606v-1.646c0-1.443 1.163-2.606 2.606-2.606h0.215c0.104-0.286 0.222-0.568 0.351-0.843l-0.152-0.154c-1.024-1.013-1.010-2.661-0.002-3.671l1.262-1.274c0.549-0.565 1.284-0.846 2.028-0.846 0.768 0 1.474 0.318 1.989 0.819 0.276-0.13 0.559-0.248 0.845-0.352v-0.215zM15.177 5.714c-0.18 0-0.32 0.14-0.32 0.32v1.051c0 0.517-0.347 0.97-0.846 1.104-0.669 0.18-1.318 0.449-1.915 0.798-0.445 0.259-1.008 0.189-1.376-0.171l-0.58-0.568c-0.122-0.122-0.272-0.18-0.403-0.18-0.168 0-0.299 0.060-0.389 0.154l-0.010 0.011-1.272 1.284c-0.13 0.13-0.118 0.325-0.008 0.433l0.014 0.014 0.743 0.754c0.362 0.368 0.433 0.932 0.173 1.378-0.348 0.597-0.618 1.246-0.798 1.915-0.134 0.499-0.587 0.846-1.104 0.846h-1.051c-0.18 0-0.32 0.14-0.32 0.32v1.646c0 0.18 0.14 0.32 0.32 0.32h1.051c0.517 0 0.97 0.347 1.104 0.846 0.18 0.669 0.449 1.318 0.798 1.915 0.262 0.448 0.188 1.017-0.179 1.384l-0.743 0.743c-0.13 0.13-0.118 0.325-0.008 0.433l0.008 0.008 1.269 1.269c0.108 0.108 0.253 0.168 0.403 0.168 0.168 0 0.299-0.060 0.389-0.154 0.010-0.010 0.020-0.021 0.031-0.031l0.571-0.549c0.368-0.354 0.926-0.42 1.367-0.163 0.597 0.348 1.246 0.618 1.915 0.798 0.499 0.134 0.846 0.587 0.846 1.104v0.791c0.007 0.333 0.274 0.58 0.571 0.58h1.394c0.18 0 0.32-0.14 0.32-0.32v-1.051c0-0.517 0.347-0.97 0.846-1.104 0.669-0.18 1.318-0.449 1.915-0.798 0.448-0.262 1.017-0.188 1.384 0.179l0.56 0.56c0.108 0.108 0.253 0.168 0.403 0.168 0.168 0 0.299-0.060 0.389-0.154l0.014-0.014 1.097-1.097c0.108-0.108 0.168-0.253 0.168-0.403 0-0.168-0.060-0.299-0.154-0.389l-0.014-0.014-0.56-0.56c-0.367-0.367-0.441-0.936-0.179-1.384 0.348-0.597 0.618-1.246 0.798-1.915 0.134-0.499 0.587-0.846 1.104-0.846h1.051c0.18 0 0.32-0.14 0.32-0.32v-1.646c0-0.18-0.14-0.32-0.32-0.32h-1.051c-0.517 0-0.97-0.347-1.104-0.846-0.18-0.669-0.449-1.318-0.798-1.915-0.262-0.448-0.188-1.017 0.179-1.384l0.56-0.56c0.108-0.108 0.168-0.253 0.168-0.403 0-0.168-0.060-0.299-0.154-0.389l-0.014-0.014-1.097-1.097c-0.108-0.108-0.253-0.168-0.403-0.168-0.168 0-0.299 0.060-0.389 0.154l-0.014 0.014-0.56 0.56c-0.367 0.367-0.936 0.441-1.384 0.179-0.597-0.348-1.246-0.618-1.915-0.798-0.499-0.134-0.846-0.587-0.846-1.104v-1.051c0-0.18-0.14-0.32-0.32-0.32h-1.646z"></path>
<path d="M16 13.337c-1.471 0-2.663 1.192-2.663 2.663s1.192 2.663 2.663 2.663 2.663-1.192 2.663-2.663c0-1.471-1.192-2.663-2.663-2.663zM11.051 16c0-2.733 2.216-4.949 4.949-4.949s4.949 2.216 4.949 4.949c0 2.733-2.216 4.949-4.949 4.949s-4.949-2.216-4.949-4.949z"></path>
</svg>
