<!-- Generated by IcoMoon.io -->
<svg version="1.1" xmlns="http://www.w3.org/2000/svg" width="32" height="32" viewBox="0 0 32 32">
<title>proofreadDialog</title>
<path d="M18 6.667c-0.368 0-0.667 0.298-0.667 0.667s0.299 0.667 0.667 0.667h5.124l-5.502 5.502c-0.26 0.26-0.26 0.683 0 0.943s0.683 0.26 0.943 0l5.435-5.435v4.99c0 0.368 0.299 0.667 0.667 0.667s0.667-0.299 0.667-0.667v-6.667c0-0.368-0.299-0.667-0.667-0.667h-6.667z"></path>
<path d="M14.431 18.445c0.26-0.26 0.26-0.682 0-0.943s-0.683-0.26-0.943 0l-5.489 5.489v-4.991c0-0.368-0.298-0.667-0.667-0.667s-0.667 0.299-0.667 0.667v6.667c0 0.368 0.298 0.667 0.667 0.667h6.667c0.368 0 0.667-0.299 0.667-0.667s-0.299-0.667-0.667-0.667h-5.124l5.555-5.555z"></path>
</svg>
