<!-- Generated by IcoMoon.io -->
<svg version="1.1" xmlns="http://www.w3.org/2000/svg" width="32" height="32" viewBox="0 0 32 32">
<title>report</title>
<path d="M8 4c0.736 0 1.333 0.597 1.333 1.333v21.333c0 0.736-0.597 1.333-1.333 1.333s-1.333-0.597-1.333-1.333v-21.333c0-0.736 0.597-1.333 1.333-1.333z"></path>
<path d="M6.667 6.667c0-0.736 0.597-1.333 1.333-1.333h16c0.462 0 0.891 0.239 1.134 0.632s0.265 0.884 0.058 1.297l-2.369 4.737 2.369 4.737c0.207 0.413 0.185 0.904-0.058 1.297s-0.672 0.632-1.134 0.632h-16c-0.736 0-1.333-0.597-1.333-1.333v-10.667zM9.333 8v8h12.509l-1.702-3.404c-0.188-0.375-0.188-0.817 0-1.193l1.702-3.404h-12.509z"></path>
</svg>
