<svg xmlns="http://www.w3.org/2000/svg" width="24" height="24" viewBox="0 0 24 24">
  <metadata><?xpacket begin="﻿" id="W5M0MpCehiHzreSzNTczkc9d"?>
<x:xmpmeta xmlns:x="adobe:ns:meta/" x:xmptk="Adobe XMP Core 5.6-c140 79.160451, 2017/05/06-01:08:21        ">
   <rdf:RDF xmlns:rdf="http://www.w3.org/1999/02/22-rdf-syntax-ns#">
      <rdf:Description rdf:about=""/>
   </rdf:RDF>
</x:xmpmeta>
                                                                                                    
                                                                                                    
                                                                                                    
                                                                                                    
                                                                                                    
                                                                                                    
                                                                                                    
                                                                                                    
                                                                                                    
                                                                                                    
                                                                                                    
                                                                                                    
                                                                                                    
                                                                                                    
                                                                                                    
                                                                                                    
                                                                                                    
                                                                                                    
                                                                                                    
                                                                                                    
                           
<?xpacket end="w"?></metadata>
<defs>
    <style>
      .cls-1 {
        fill-rule: evenodd;
      }
    </style>
  </defs>
  <rect id="Rectangle_3_copy_2" data-name="Rectangle 3 copy 2" x="11" y="9" width="1" height="7"/>
  <rect id="Rectangle_3_copy_3" data-name="Rectangle 3 copy 3" x="8" y="12" width="7" height="1"/>
  <path id="Rounded_Rectangle_1" data-name="Rounded Rectangle 1" class="cls-1" d="M7,6h9a2,2,0,0,1,2,2v9a2,2,0,0,1-2,2H7a2,2,0,0,1-2-2V8A2,2,0,0,1,7,6ZM7,7h9a1,1,0,0,1,1,1v9a1,1,0,0,1-1,1H7a1,1,0,0,1-1-1V8A1,1,0,0,1,7,7Z"/>
</svg>
