<!-- Generated by IcoMoon.io -->
<svg version="1.1" xmlns="http://www.w3.org/2000/svg" width="32" height="32" viewBox="0 0 32 32">
<title>selectedText</title>
<path d="M24 8c0.368 0 0.667 0.298 0.667 0.667v16c0 0.368-0.299 0.667-0.667 0.667s-0.667-0.299-0.667-0.667v-16c0-0.368 0.299-0.667 0.667-0.667z"></path>
<path d="M6 10.667c0-0.368 0.298-0.667 0.667-0.667h10.667c0.368 0 0.667 0.298 0.667 0.667s-0.299 0.667-0.667 0.667h-10.667c-0.368 0-0.667-0.298-0.667-0.667z"></path>
<path d="M6 14.667c0-0.368 0.298-0.667 0.667-0.667h8c0.368 0 0.667 0.299 0.667 0.667s-0.299 0.667-0.667 0.667h-8c-0.368 0-0.667-0.299-0.667-0.667z"></path>
<path d="M6 18.667c0-0.368 0.298-0.667 0.667-0.667h10.667c0.368 0 0.667 0.299 0.667 0.667s-0.299 0.667-0.667 0.667h-10.667c-0.368 0-0.667-0.299-0.667-0.667z"></path>
<path d="M6 22.667c0-0.368 0.298-0.667 0.667-0.667h8c0.368 0 0.667 0.299 0.667 0.667s-0.299 0.667-0.667 0.667h-8c-0.368 0-0.667-0.299-0.667-0.667z"></path>
<path d="M21.333 8c0-0.368 0.299-0.667 0.667-0.667h4c0.368 0 0.667 0.298 0.667 0.667s-0.299 0.667-0.667 0.667h-4c-0.368 0-0.667-0.298-0.667-0.667z"></path>
<path d="M21.333 25.333c0-0.368 0.299-0.667 0.667-0.667h4c0.368 0 0.667 0.299 0.667 0.667s-0.299 0.667-0.667 0.667h-4c-0.368 0-0.667-0.299-0.667-0.667z"></path>
</svg>
