<svg id="I_2_copy_7" data-name="I 2 copy 7" xmlns="http://www.w3.org/2000/svg" width="24" height="24" viewBox="0 0 24 24">
  <metadata><?xpacket begin="﻿" id="W5M0MpCehiHzreSzNTczkc9d"?>
<x:xmpmeta xmlns:x="adobe:ns:meta/" x:xmptk="Adobe XMP Core 5.6-c140 79.160451, 2017/05/06-01:08:21        ">
   <rdf:RDF xmlns:rdf="http://www.w3.org/1999/02/22-rdf-syntax-ns#">
      <rdf:Description rdf:about=""/>
   </rdf:RDF>
</x:xmpmeta>
                                                                                                    
                                                                                                    
                                                                                                    
                                                                                                    
                                                                                                    
                                                                                                    
                                                                                                    
                                                                                                    
                                                                                                    
                                                                                                    
                                                                                                    
                                                                                                    
                                                                                                    
                                                                                                    
                                                                                                    
                                                                                                    
                                                                                                    
                                                                                                    
                                                                                                    
                                                                                                    
                           
<?xpacket end="w"?></metadata>
<defs>
    <style>
      .cls-1 {
        fill-rule: evenodd;
      }
    </style>
  </defs>
  <path id="Ellipse_1_copy" data-name="Ellipse 1 copy" class="cls-1" d="M12,9a3,3,0,1,1-3,3A3,3,0,0,1,12,9Zm0,1a2,2,0,1,1-2,2A2,2,0,0,1,12,10Z"/>
  <path class="cls-1" d="M17.918,10.371c-0.066,0-.133,0-0.2,0a2.977,2.977,0,0,1-.315-0.006,0.59,0.59,0,0,1-.532-0.405,0.546,0.546,0,0,1,.125-0.618c0.06-.065.125-0.127,0.189-0.189s0.127-.121.187-0.186a1.059,1.059,0,0,0,0-1.536c-0.283-.3-0.543-0.554-0.794-0.783a1.075,1.075,0,0,0-1.484-.006c-0.076.067-.149,0.139-0.22,0.212s-0.124.126-.188,0.183a0.642,0.642,0,0,1-1.067-.446c0-.09,0-0.18,0-0.27,0-.113,0-0.226-0.007-0.337a1.048,1.048,0,0,0-1.042-1.007q-0.541-.016-1.077,0A1.066,1.066,0,0,0,10.415,6c-0.01.122-.01,0.244-0.009,0.367,0,0.07,0,.14,0,0.21a0.628,0.628,0,0,1-1.063.45C9.3,6.99,9.262,6.951,9.193,6.883a1.165,1.165,0,0,0-1.958,0l-0.178.174c-0.951.938-.96,1.274-0.029,2.27a0.563,0.563,0,0,1,.13.669,0.589,0.589,0,0,1-.58.378H6.4c-0.108,0-.215,0-0.323,0a1.082,1.082,0,0,0-1.1,1.11c0,0.1,0,.2,0,0.3v0.127c0,1.417.195,1.621,1.6,1.686a0.6,0.6,0,0,1,.6.406,0.575,0.575,0,0,1-.161.667c-0.034.034-.072,0.068-0.109,0.1a1.241,1.241,0,0,0-.267.291,1.592,1.592,0,0,0-.272.694A2.768,2.768,0,0,0,8.22,17.67a0.176,0.176,0,0,0,.1-0.02L8.5,17.567a2.968,2.968,0,0,0,.43-0.228,1.776,1.776,0,0,0,.3-0.275c0.036-.039.072-0.077,0.11-0.113a0.624,0.624,0,0,1,1.055.418c0,0.085,0,.168,0,0.253,0,0.106,0,.211.006,0.318a1.089,1.089,0,0,0,1.109,1.071c0.168,0,.335.007,0.5,0.007s0.335,0,.5-0.007a1.1,1.1,0,0,0,1.109-1.069c0.009-.131.008-0.263,0.007-0.394V17.466a0.609,0.609,0,0,1,.386-0.638,0.6,0.6,0,0,1,.725.169l0.085,0.086c0.073,0.074.147,0.149,0.226,0.221a1.084,1.084,0,0,0,1.54,0c0.279-.258.545-0.523,0.791-0.788a1.063,1.063,0,0,0-.016-1.509c-0.059-.065-0.123-0.125-0.186-0.186s-0.144-.138-0.209-0.213a0.551,0.551,0,0,1-.1-0.624,0.583,0.583,0,0,1,.533-0.4c0.09,0,.18,0,0.274,0,0.11,0,.223,0,0.331-0.008A0.994,0.994,0,0,0,19,12.6c0.02-.416.02-0.828,0-1.226A1.027,1.027,0,0,0,17.918,10.371Zm0.134,1.854a1.362,1.362,0,0,1-.017.351,2.1,2.1,0,0,1-.59.04,1.5,1.5,0,0,0-1.459,1.029,1.484,1.484,0,0,0,.389,1.705,1.224,1.224,0,0,1,.366.434,1,1,0,0,1-.257.294l-0.125.12c-0.131.128-.264,0.25-0.406,0.381l-0.1.1-0.027-.022c-0.094-.073-0.173-0.136-0.257-0.191s-0.169-.121-0.252-0.185a2.091,2.091,0,0,0-.719-0.413,1.447,1.447,0,0,0-1.25.234,1.625,1.625,0,0,0-.652,1.239c-0.035.7-.035,0.7-0.738,0.7H11.882a1.743,1.743,0,0,1-.475-0.03,1.609,1.609,0,0,1-.034-0.46,1.576,1.576,0,0,0-1-1.623,1.719,1.719,0,0,0-.606-0.118,1.665,1.665,0,0,0-1.212.58,1.252,1.252,0,0,1-.323.279h0A1.309,1.309,0,0,1,7.9,16.395l-0.158-.156q-0.173-.171-0.345-0.344c-0.1-.1-0.1-0.152,0-0.252l0.12-.119c0.091-.088.181-0.176,0.262-0.272a1.494,1.494,0,0,0,.274-1.623,1.532,1.532,0,0,0-1.326-.977,0.942,0.942,0,0,0-.136-0.006,1.269,1.269,0,0,1-.64-0.051,0.825,0.825,0,0,1-.027-0.355c0-.093.005-0.2,0-0.318,0-.082,0-0.163,0-0.244,0-.345,0-0.345.338-0.348H6.394c0.105,0,.209,0,0.313-0.007a1.574,1.574,0,0,0,1.081-2.59,0.707,0.707,0,0,0-.069-0.074,1.184,1.184,0,0,1-.414-0.472,0.844,0.844,0,0,1,.221-0.254c0.067-.063.142-0.135,0.224-0.22l0.1-.1c0.364-.362.365-0.362,0.738,0.009a1.591,1.591,0,0,0,2.781-1.144c0-.081,0-0.162,0-0.242,0.006-.3.006-0.3,0.309-0.3h0.271c0.16,0,.32,0,0.482,0a0.243,0.243,0,0,1,.177.037,0.283,0.283,0,0,1,.041.194c0,0.146,0,.292,0,0.438A1.6,1.6,0,0,0,15.308,7.76c0.553-.472.552-0.472,1.076,0.049a1.684,1.684,0,0,1,.343.392,1.629,1.629,0,0,1-.331.38,1.571,1.571,0,0,0-.514,1.376,1.545,1.545,0,0,0,1.558,1.366h0.074a1.7,1.7,0,0,1,.508.033,1.7,1.7,0,0,1,.03.517v0.078C18.05,12.054,18.052,12.145,18.053,12.225Z"/>
</svg>
