<!-- Generated by IcoMoon.io -->
<svg version="1.1" xmlns="http://www.w3.org/2000/svg" width="32" height="32" viewBox="0 0 32 32">
<title>settings</title>
<path d="M13.333 7.187c0-1.022 0.832-1.853 1.853-1.853h1.613c1.021 0 1.853 0.832 1.853 1.853v0.522c0.385 0.131 0.765 0.287 1.132 0.47l0.154-0.154c0.408-0.389 0.943-0.624 1.527-0.624 0.575 0 1.131 0.229 1.536 0.634 0.001 0.001 0.001 0.001 0.002 0.002l0.984 0.971c0.389 0.408 0.624 0.943 0.624 1.527 0 0.576-0.229 1.132-0.635 1.538l-0.143 0.143c0.183 0.365 0.34 0.743 0.471 1.133h0.507c1.021 0 1.853 0.832 1.853 1.853v1.613c0 1.021-0.832 1.853-1.853 1.853h-0.509c-0.131 0.385-0.287 0.765-0.47 1.132l0.154 0.154c0.389 0.408 0.624 0.943 0.624 1.527 0 0.576-0.229 1.132-0.635 1.538l-0.971 0.971c-0.408 0.389-0.943 0.624-1.527 0.624-0.576 0-1.132-0.229-1.538-0.635l-0.143-0.143c-0.365 0.183-0.743 0.34-1.133 0.471v0.507c0 1.021-0.832 1.853-1.853 1.853h-1.307c-1.215 0-2.155-0.997-2.173-2.203l-0-0.010 0-0.202c-0.386-0.131-0.765-0.287-1.132-0.47l-0.154 0.154c-0.408 0.389-0.943 0.624-1.527 0.624-0.576 0-1.132-0.229-1.538-0.635l-1.17-1.17c-0.736-0.719-0.725-1.904-0.003-2.626l0.356-0.356c-0.183-0.365-0.34-0.743-0.471-1.133h-0.507c-1.022 0-1.853-0.832-1.853-1.853v-1.613c0-1.021 0.832-1.853 1.853-1.853h0.522c0.131-0.386 0.287-0.765 0.47-1.132l-0.354-0.354c-0.736-0.719-0.725-1.902-0.005-2.624l1.173-1.186c0.408-0.389 0.943-0.624 1.527-0.624 0.574 0 1.129 0.228 1.535 0.632l0.14 0.136c0.367-0.184 0.747-0.342 1.139-0.474v-0.507zM15.187 6.667c-0.285 0-0.52 0.235-0.52 0.52v1c0 0.3-0.201 0.563-0.49 0.643-0.626 0.172-1.213 0.417-1.763 0.734-0.258 0.149-0.585 0.109-0.798-0.099l-0.5-0.486c-0.154-0.154-0.371-0.245-0.595-0.245-0.213 0-0.422 0.083-0.6 0.25l-1.155 1.168c-0.21 0.21-0.2 0.543-0.007 0.73l0.007 0.007 0.707 0.707c0.213 0.213 0.257 0.544 0.106 0.805-0.316 0.547-0.562 1.148-0.735 1.766-0.081 0.288-0.343 0.487-0.642 0.487h-1.013c-0.285 0-0.52 0.235-0.52 0.52v1.613c0 0.285 0.235 0.52 0.52 0.52h1c0.3 0 0.563 0.201 0.643 0.49 0.172 0.626 0.417 1.213 0.734 1.763 0.151 0.261 0.108 0.591-0.106 0.805l-0.707 0.707c-0.21 0.21-0.2 0.543-0.007 0.73l0.007 0.007 1.173 1.173c0.154 0.154 0.371 0.245 0.595 0.245 0.214 0 0.423-0.083 0.601-0.251l0.487-0.487c0.213-0.213 0.544-0.257 0.805-0.106 0.547 0.316 1.148 0.562 1.766 0.735 0.288 0.081 0.487 0.343 0.487 0.642v0.688c0.010 0.525 0.403 0.886 0.84 0.886h1.307c0.285 0 0.52-0.235 0.52-0.52v-1c0-0.3 0.201-0.563 0.49-0.643 0.626-0.172 1.213-0.417 1.763-0.734 0.261-0.151 0.591-0.108 0.805 0.106l0.493 0.493c0.154 0.154 0.371 0.245 0.595 0.245 0.214 0 0.423-0.083 0.601-0.251l0.954-0.954c0.154-0.154 0.245-0.371 0.245-0.595 0-0.214-0.083-0.423-0.251-0.601l-0.487-0.487c-0.213-0.213-0.257-0.544-0.106-0.805 0.316-0.547 0.562-1.149 0.735-1.766 0.081-0.288 0.343-0.487 0.642-0.487h1c0.285 0 0.52-0.235 0.52-0.52v-1.613c0-0.285-0.235-0.52-0.52-0.52h-1c-0.3 0-0.563-0.201-0.643-0.49-0.172-0.626-0.417-1.213-0.734-1.763-0.151-0.261-0.108-0.591 0.106-0.805l0.493-0.493c0.154-0.154 0.245-0.371 0.245-0.595 0-0.213-0.083-0.422-0.249-0.6l-0.969-0.955c-0.154-0.154-0.371-0.245-0.595-0.245-0.214 0-0.423 0.083-0.601 0.251l-0.487 0.487c-0.213 0.213-0.544 0.257-0.805 0.106-0.547-0.316-1.149-0.562-1.766-0.735-0.288-0.081-0.487-0.343-0.487-0.642v-1.013c0-0.285-0.235-0.52-0.52-0.52h-1.613z"></path>
<path d="M16 13.333c-1.473 0-2.667 1.194-2.667 2.667s1.194 2.667 2.667 2.667c1.473 0 2.667-1.194 2.667-2.667s-1.194-2.667-2.667-2.667zM12 16c0-2.209 1.791-4 4-4s4 1.791 4 4c0 2.209-1.791 4-4 4s-4-1.791-4-4z"></path>
</svg>
