<!-- Generated by IcoMoon.io -->
<svg version="1.1" xmlns="http://www.w3.org/2000/svg" width="32" height="32" viewBox="0 0 32 32">
<title>toggle-context</title>
<path d="M16 14.747c-0.736 0-1.333-0.597-1.333-1.333v0-6.4c0-0.736 0.597-1.333 1.333-1.333s1.333 0.597 1.333 1.333v0 6.4c0 0.736-0.597 1.333-1.333 1.333v0z"></path>
<path d="M16 26.32c-0.002 0-0.004 0-0.007 0-5.268 0-9.539-4.271-9.539-9.539 0-3.111 1.49-5.875 3.795-7.616l0.024-0.017c0.22-0.166 0.498-0.267 0.8-0.267 0.736 0 1.333 0.597 1.333 1.333 0 0.435-0.208 0.821-0.53 1.064l-0.003 0.002c-1.68 1.268-2.755 3.262-2.755 5.507 0 3.8 3.080 6.88 6.88 6.88s6.88-3.080 6.88-6.88c0-2.245-1.075-4.238-2.738-5.494l-0.017-0.013c-0.325-0.246-0.533-0.632-0.533-1.067 0-0.736 0.597-1.333 1.333-1.333 0.302 0 0.58 0.1 0.803 0.269l-0.003-0.002c2.329 1.759 3.819 4.522 3.819 7.633 0 5.268-4.271 9.539-9.539 9.539-0.001 0-0.002 0-0.003 0h0z"></path>
</svg>
