<!-- Generated by IcoMoon.io -->
<svg version="1.1" xmlns="http://www.w3.org/2000/svg" width="32" height="32" viewBox="0 0 32 32">
<title>toggle</title>
<path d="M12.524 9.174c0.184 0.319 0.074 0.727-0.245 0.91-2.162 1.246-3.613 3.577-3.613 6.249 0 3.992 3.222 7.213 7.213 7.213s7.213-3.234 7.213-7.213c0-2.648-1.427-4.967-3.565-6.226-0.317-0.187-0.423-0.595-0.236-0.913s0.595-0.423 0.913-0.236c2.529 1.488 4.222 4.236 4.222 7.375 0 4.714-3.818 8.547-8.547 8.547s-8.547-3.819-8.547-8.547c0-3.168 1.722-5.93 4.28-7.404 0.319-0.184 0.727-0.074 0.91 0.245z"></path>
<path d="M16 6.573c0.368 0 0.667 0.298 0.667 0.667v5.4c0 0.368-0.299 0.667-0.667 0.667s-0.667-0.298-0.667-0.667v-5.4c0-0.368 0.299-0.667 0.667-0.667z"></path>
</svg>
