<!-- Generated by IcoMoon.io -->
<svg version="1.1" xmlns="http://www.w3.org/2000/svg" width="32" height="32" viewBox="0 0 32 32">
<title>trash</title>
<path d="M9.593 10.671c0.009 0.052 0.016 0.105 0.019 0.158l0.844 14.504h11.077l0.844-14.504c0.003-0.055 0.010-0.109 0.020-0.163h-12.795c-0.002 0-0.003 0-0.004 0s-0.001 0.001-0.002 0.002c-0.001 0.001-0.001 0.001-0.001 0.002zM9.595 10.667c-0 0-0 0 0 0zM6.953 11.051c-0.231-1.593 1.005-3.051 2.647-3.051h12.8c1.612 0 2.886 1.445 2.633 3.060l-0.849 14.591c-0.003 0.049-0.008 0.098-0.017 0.146-0.215 1.263-1.313 2.203-2.608 2.203h-11.12c-1.278 0-2.403-0.924-2.621-2.203-0.008-0.048-0.014-0.097-0.017-0.146l-0.849-14.6z"></path>
<path d="M10.8 5.333c0-0.736 0.597-1.333 1.333-1.333h7.733c0.736 0 1.333 0.597 1.333 1.333s-0.597 1.333-1.333 1.333h-7.733c-0.736 0-1.333-0.597-1.333-1.333z"></path>
<path d="M13.333 12c0.736 0 1.333 0.597 1.333 1.333v9.333c0 0.736-0.597 1.333-1.333 1.333s-1.333-0.597-1.333-1.333v-9.333c0-0.736 0.597-1.333 1.333-1.333z"></path>
<path d="M18.667 12c0.736 0 1.333 0.597 1.333 1.333v9.333c0 0.736-0.597 1.333-1.333 1.333s-1.333-0.597-1.333-1.333v-9.333c0-0.736 0.597-1.333 1.333-1.333z"></path>
<path d="M5.333 9.333c0-0.736 0.597-1.333 1.333-1.333h18.667c0.736 0 1.333 0.597 1.333 1.333s-0.597 1.333-1.333 1.333h-18.667c-0.736 0-1.333-0.597-1.333-1.333z"></path>
</svg>
