<!-- Generated by IcoMoon.io -->
<svg version="1.1" xmlns="http://www.w3.org/2000/svg" width="32" height="32" viewBox="0 0 32 32">
<title>undo</title>
<path d="M12.289 9.556c0.521-0.521 0.521-1.365 0-1.886s-1.365-0.521-1.886 0l-4.72 4.72c-0.25 0.25-0.391 0.589-0.391 0.943 0 0 0 0 0 0 0 0.372 0.152 0.708 0.398 0.95l4.713 4.713c0.521 0.521 1.365 0.521 1.886 0s0.521-1.365 0-1.886l-2.444-2.444h11.514c2.184 0 3.973 1.79 3.973 3.973v0.067c0 2.184-1.79 3.973-3.973 3.973h-5.4c-0.736 0-1.333 0.597-1.333 1.333s0.597 1.333 1.333 1.333h5.4c3.656 0 6.64-2.984 6.64-6.64v-0.067c0-3.656-2.984-6.64-6.64-6.64h-11.514l2.444-2.444z"></path>
</svg>
