<?xml version="1.0" standalone="no"?>
<!DOCTYPE svg PUBLIC "-//W3C//DTD SVG 1.1//EN" "http://www.w3.org/Graphics/SVG/1.1/DTD/svg11.dtd" >
<svg xmlns="http://www.w3.org/2000/svg">
<metadata>Generated by IcoMoon</metadata>
<defs>
<font id="wscicomoon" horiz-adv-x="1024">
<font-face units-per-em="1024" ascent="960" descent="-64" />
<missing-glyph horiz-adv-x="1024" />
<glyph unicode="&#x20;" horiz-adv-x="512" d="" />
<glyph unicode="&#xe900;" glyph-name="undo" d="M393.248 654.208c16.672 16.672 16.672 43.68 0 60.352s-43.68 16.672-60.352 0l-151.040-151.040c-8-8-12.512-18.848-12.512-30.176 0 0 0 0 0 0 0-11.904 4.864-22.656 12.736-30.4l150.816-150.816c16.672-16.672 43.68-16.672 60.352 0s16.672 43.68 0 60.352l-78.208 78.208h368.448c69.888 0 127.136-57.28 127.136-127.136v-2.144c0-69.888-57.28-127.136-127.136-127.136h-172.8c-23.552 0-42.656-19.104-42.656-42.656s19.104-42.656 42.656-42.656h172.8c116.992 0 212.48 95.488 212.48 212.48v2.144c0 116.992-95.488 212.48-212.48 212.48h-368.448l78.208 78.208z" />
<glyph unicode="&#xe901;" glyph-name="trash" d="M306.976 618.528c0.288-1.664 0.512-3.36 0.608-5.056l27.008-464.128h354.464l27.008 464.128c0.096 1.76 0.32 3.488 0.64 5.216h-409.44c-0.064 0-0.096 0-0.128 0s-0.032-0.032-0.064-0.064c-0.032-0.032-0.032-0.032-0.032-0.064zM307.040 618.656c0 0 0 0 0 0zM222.496 606.368c-7.392 50.976 32.16 97.632 84.704 97.632h409.6c51.584 0 92.352-46.24 84.256-97.92l-27.168-466.912c-0.096-1.568-0.256-3.136-0.544-4.672-6.88-40.416-42.016-70.496-83.456-70.496h-355.84c-40.896 0-76.896 29.568-83.872 70.496-0.256 1.536-0.448 3.104-0.544 4.672l-27.168 467.2zM345.6 789.344c0 23.552 19.104 42.656 42.656 42.656h247.456c23.552 0 42.656-19.104 42.656-42.656s-19.104-42.656-42.656-42.656h-247.456c-23.552 0-42.656 19.104-42.656 42.656zM426.656 576c23.552 0 42.656-19.104 42.656-42.656v-298.656c0-23.552-19.104-42.656-42.656-42.656s-42.656 19.104-42.656 42.656v298.656c0 23.552 19.104 42.656 42.656 42.656zM597.344 576c23.552 0 42.656-19.104 42.656-42.656v-298.656c0-23.552-19.104-42.656-42.656-42.656s-42.656 19.104-42.656 42.656v298.656c0 23.552 19.104 42.656 42.656 42.656zM170.656 661.344c0 23.552 19.104 42.656 42.656 42.656h597.344c23.552 0 42.656-19.104 42.656-42.656s-19.104-42.656-42.656-42.656h-597.344c-23.552 0-42.656 19.104-42.656 42.656z" />
<glyph unicode="&#xe902;" glyph-name="toggle" d="M400.768 666.432c5.888-10.208 2.368-23.264-7.84-29.12-69.184-39.872-115.616-114.464-115.616-199.968 0-127.744 103.104-230.816 230.816-230.816s230.816 103.488 230.816 230.816c0 84.736-45.664 158.944-114.080 199.232-10.144 5.984-13.536 19.040-7.552 29.216s19.040 13.536 29.216 7.552c80.928-47.616 135.104-135.552 135.104-236 0-150.848-122.176-273.504-273.504-273.504s-273.504 122.208-273.504 273.504c0 101.376 55.104 189.76 136.96 236.928 10.208 5.888 23.264 2.368 29.12-7.84zM512 749.664c11.776 0 21.344-9.536 21.344-21.344v-172.8c0-11.776-9.568-21.344-21.344-21.344s-21.344 9.536-21.344 21.344v172.8c0 11.776 9.568 21.344 21.344 21.344z" />
<glyph unicode="&#xe903;" glyph-name="toggle-context" d="M512 488.096c-23.552 0-42.656 19.104-42.656 42.656v0 204.8c0 23.552 19.104 42.656 42.656 42.656s42.656-19.104 42.656-42.656v0-204.8c0-23.552-19.104-42.656-42.656-42.656v0zM512 117.76c-0.064 0-0.128 0-0.224 0-168.576 0-305.248 136.672-305.248 305.248 0 99.552 47.68 188 121.44 243.712l0.768 0.544c7.040 5.312 15.936 8.544 25.6 8.544 23.552 0 42.656-19.104 42.656-42.656 0-13.92-6.656-26.272-16.96-34.048l-0.096-0.064c-53.76-40.576-88.16-104.384-88.16-176.224 0-121.6 98.56-220.16 220.16-220.16s220.16 98.56 220.16 220.16c0 71.84-34.4 135.616-87.616 175.808l-0.544 0.416c-10.4 7.872-17.056 20.224-17.056 34.144 0 23.552 19.104 42.656 42.656 42.656 9.664 0 18.56-3.2 25.696-8.608l-0.096 0.064c74.528-56.288 122.208-144.704 122.208-244.256 0-168.576-136.672-305.248-305.248-305.248-0.032 0-0.064 0-0.096 0v0z" />
<glyph unicode="&#xe904;" glyph-name="tick" d="M758.912 606.176c16.672-16.672 16.672-43.68 0-60.352l-276.48-276.48c-16.672-16.672-43.68-16.672-60.352 0l-153.6 153.6c-16.672 16.672-16.672 43.68 0 60.352s43.68 16.672 60.352 0l123.424-123.424 246.304 246.304c16.672 16.672 43.68 16.672 60.352 0z" />
<glyph unicode="&#xe905;" glyph-name="suggestion" d="M810.667 533.333c-29.929 123.303-139.375 213.434-269.871 213.434-2.624 0-5.239-0.036-7.845-0.109l0.383 0.008c-231.637-2.048-277.333-170.667-277.333-170.667h39.637s54.571 128 237.696 128c109.462-1.198 202.248-71.281 237.141-168.889l0.555-1.778h39.637zM896 576h-256l128-170.667zM256 362.667c29.929-123.303 139.375-213.434 269.871-213.434 2.624 0 5.239 0.036 7.845 0.109l-0.383-0.008c231.637 2.048 277.333 170.667 277.333 170.667h-39.637s-54.571-128-237.696-128c-109.462 1.198-202.248 71.281-237.141 168.889l-0.555 1.778h-39.637zM170.667 320h256l-128 170.667z" />
<glyph unicode="&#xe906;" glyph-name="settings" d="M426.656 730.016c0 32.704 26.624 59.296 59.296 59.296h51.616c32.672 0 59.296-26.624 59.296-59.296v-16.704c12.32-4.192 24.48-9.184 36.224-15.040l4.928 4.928c13.056 12.448 30.176 19.968 48.864 19.968 18.4 0 36.192-7.328 49.152-20.288 0.032-0.032 0.032-0.032 0.064-0.064l31.488-31.072c12.448-13.056 19.968-30.176 19.968-48.864 0-18.432-7.328-36.224-20.32-49.216l-4.576-4.576c5.856-11.68 10.88-23.776 15.072-36.256h16.224c32.672 0 59.296-26.624 59.296-59.296v-51.616c0-32.672-26.624-59.296-59.296-59.296h-16.288c-4.192-12.32-9.184-24.48-15.040-36.224l4.928-4.928c12.448-13.056 19.968-30.176 19.968-48.864 0-18.432-7.328-36.224-20.32-49.216l-31.072-31.072c-13.056-12.448-30.176-19.968-48.864-19.968-18.432 0-36.224 7.328-49.216 20.32l-4.576 4.576c-11.68-5.856-23.776-10.88-36.256-15.072v-16.224c0-32.672-26.624-59.296-59.296-59.296h-41.824c-38.88 0-68.96 31.904-69.536 70.496v6.784c-12.352 4.192-24.48 9.184-36.224 15.040l-4.928-4.928c-13.056-12.448-30.176-19.968-48.864-19.968-18.432 0-36.224 7.328-49.216 20.32l-37.44 37.44c-23.552 23.008-23.2 60.928-0.096 84.032l11.392 11.392c-5.856 11.68-10.88 23.776-15.072 36.256h-16.224c-32.704 0-59.296 26.624-59.296 59.296v51.616c0 32.672 26.624 59.296 59.296 59.296h16.704c4.192 12.352 9.184 24.48 15.040 36.224l-11.328 11.328c-23.552 23.008-23.2 60.864-0.16 83.968l37.536 37.952c13.056 12.448 30.176 19.968 48.864 19.968 18.368 0 36.128-7.296 49.12-20.224l4.48-4.352c11.744 5.888 23.904 10.944 36.448 15.168v16.224zM485.984 746.656c-9.12 0-16.64-7.52-16.64-16.64v-32c0-9.6-6.432-18.016-15.68-20.576-20.032-5.504-38.816-13.344-56.416-23.488-8.256-4.768-18.72-3.488-25.536 3.168l-16 15.552c-4.928 4.928-11.872 7.84-19.040 7.84-6.816 0-13.504-2.656-19.2-8l-36.96-37.376c-6.72-6.72-6.4-17.376-0.224-23.36l22.848-22.848c6.816-6.816 8.224-17.408 3.392-25.76-10.112-17.504-17.984-36.736-23.52-56.512-2.592-9.216-10.976-15.584-20.544-15.584h-32.416c-9.12 0-16.64-7.52-16.64-16.64v-51.616c0-9.12 7.52-16.64 16.64-16.64h32c9.6 0 18.016-6.432 20.576-15.68 5.504-20.032 13.344-38.816 23.488-56.416 4.832-8.352 3.456-18.912-3.392-25.76l-22.624-22.624c-6.72-6.72-6.4-17.376-0.224-23.36l37.76-37.76c4.928-4.928 11.872-7.84 19.040-7.84 6.848 0 13.536 2.656 19.232 8.032l15.584 15.584c6.816 6.816 17.408 8.224 25.76 3.392 17.504-10.112 36.736-17.984 56.512-23.52 9.216-2.592 15.584-10.976 15.584-20.544v-22.016c0.32-16.8 12.896-28.352 26.88-28.352h41.824c9.12 0 16.64 7.52 16.64 16.64v32c0 9.6 6.432 18.016 15.68 20.576 20.032 5.504 38.816 13.344 56.416 23.488 8.352 4.832 18.912 3.456 25.76-3.392l15.776-15.776c4.928-4.928 11.872-7.84 19.040-7.84 6.848 0 13.536 2.656 19.232 8.032l30.528 30.528c4.928 4.928 7.84 11.872 7.84 19.040 0 6.848-2.656 13.536-8.032 19.232l-15.584 15.584c-6.816 6.816-8.224 17.408-3.392 25.76 10.112 17.504 17.984 36.768 23.52 56.512 2.592 9.216 10.976 15.584 20.544 15.584h32c9.12 0 16.64 7.52 16.64 16.64v51.616c0 9.12-7.52 16.64-16.64 16.64h-32c-9.6 0-18.016 6.432-20.576 15.68-5.504 20.032-13.344 38.816-23.488 56.416-4.832 8.352-3.456 18.912 3.392 25.76l15.776 15.776c4.928 4.928 7.84 11.872 7.84 19.040 0 6.816-2.656 13.504-7.968 19.2l-31.008 30.56c-4.928 4.928-11.872 7.84-19.040 7.84-6.848 0-13.536-2.656-19.232-8.032l-15.584-15.584c-6.816-6.816-17.408-8.224-25.76-3.392-17.504 10.112-36.768 17.984-56.512 23.52-9.216 2.592-15.584 10.976-15.584 20.544v32.416c0 9.12-7.52 16.64-16.64 16.64h-51.616zM512 533.344c-47.136 0-85.344-38.208-85.344-85.344s38.208-85.344 85.344-85.344c47.136 0 85.344 38.208 85.344 85.344s-38.208 85.344-85.344 85.344zM384 448c0 70.688 57.312 128 128 128s128-57.312 128-128c0-70.688-57.312-128-128-128s-128 57.312-128 128z" />
<glyph unicode="&#xe907;" glyph-name="section-toggle" d="M469.333 576h42.667v-298.667h-42.667v298.667zM341.333 448h298.667v-42.667h-298.667v42.667zM298.667 704v0c-47.128 0-85.333-38.205-85.333-85.333v-384c0-47.128 38.205-85.333 85.333-85.333h384c47.128 0 85.333 38.205 85.333 85.333v384c0 47.128-38.205 85.333-85.333 85.333h-384zM298.667 661.333h384c23.564 0 42.667-19.103 42.667-42.667v0-384c0-23.564-19.103-42.667-42.667-42.667v0h-384c-23.564 0-42.667 19.103-42.667 42.667v0 384c0 23.564 19.103 42.667 42.667 42.667v0z" />
<glyph unicode="&#xe908;" glyph-name="section-toggle--active" d="M341.333 448h298.667v-42.667h-298.667v42.667zM298.667 704v0c-47.128 0-85.333-38.205-85.333-85.333v-384c0-47.128 38.205-85.333 85.333-85.333h384c47.128 0 85.333 38.205 85.333 85.333v384c0 47.128-38.205 85.333-85.333 85.333h-384zM298.667 661.333h384c23.564 0 42.667-19.103 42.667-42.667v0-384c0-23.564-19.103-42.667-42.667-42.667v0h-384c-23.564 0-42.667 19.103-42.667 42.667v0 384c0 23.564 19.103 42.667 42.667 42.667v0z" />
<glyph unicode="&#xe909;" glyph-name="right" d="M412.629 234.88l-28.416 29.184 227.157 233.387 28.373-29.184zM384.213 674.603l28.416 29.184 227.157-233.387-28.373-29.184z" />
<glyph unicode="&#xe90a;" glyph-name="remove" d="M345.6 789.344c0 23.552 19.104 42.656 42.656 42.656h247.456c23.552 0 42.656-19.104 42.656-42.656s-19.104-42.656-42.656-42.656h-247.456c-23.552 0-42.656 19.104-42.656 42.656zM426.656 576c23.552 0 42.656-19.104 42.656-42.656v-298.656c0-23.552-19.104-42.656-42.656-42.656s-42.656 19.104-42.656 42.656v298.656c0 23.552 19.104 42.656 42.656 42.656zM597.344 576c23.552 0 42.656-19.104 42.656-42.656v-298.656c0-23.552-19.104-42.656-42.656-42.656s-42.656 19.104-42.656 42.656v298.656c0 23.552 19.104 42.656 42.656 42.656zM306.976 618.528c0.288-1.664 0.512-3.36 0.608-5.056l27.008-464.128h354.464l27.008 464.128c0.096 1.76 0.32 3.488 0.64 5.216h-409.44c-0.064 0-0.096 0-0.128 0s-0.032-0.032-0.064-0.064c-0.032-0.032-0.032-0.032-0.032-0.064zM307.040 618.656c0 0 0 0 0 0zM222.496 606.368c-7.392 50.976 32.16 97.632 84.704 97.632h409.6c51.584 0 92.352-46.24 84.256-97.92l-27.168-466.912c-0.096-1.568-0.256-3.136-0.544-4.672-6.88-40.416-42.016-70.496-83.456-70.496h-355.84c-40.896 0-76.896 29.568-83.872 70.496-0.256 1.536-0.448 3.104-0.544 4.672l-27.168 467.2zM170.656 661.344c0 23.552 19.104 42.656 42.656 42.656h597.344c23.552 0 42.656-19.104 42.656-42.656s-19.104-42.656-42.656-42.656h-597.344c-23.552 0-42.656 19.104-42.656 42.656z" />
<glyph unicode="&#xe90b;" glyph-name="proofreadDialog" d="M576 746.656c-11.776 0-21.344-9.536-21.344-21.344s9.568-21.344 21.344-21.344h163.968l-176.064-176.064c-8.32-8.32-8.32-21.856 0-30.176s21.856-8.32 30.176 0l173.92 173.92v-159.68c0-11.776 9.568-21.344 21.344-21.344s21.344 9.568 21.344 21.344v213.344c0 11.776-9.568 21.344-21.344 21.344h-213.344zM461.792 369.76c8.32 8.32 8.32 21.824 0 30.176s-21.856 8.32-30.176 0l-175.648-175.648v159.712c0 11.776-9.536 21.344-21.344 21.344s-21.344-9.568-21.344-21.344v-213.344c0-11.776 9.536-21.344 21.344-21.344h213.344c11.776 0 21.344 9.568 21.344 21.344s-9.568 21.344-21.344 21.344h-163.968l177.76 177.76z" />
<glyph unicode="&#xe90c;" glyph-name="options" d="M402.272 766.912c0 46.176 37.216 83.392 83.392 83.392h52.672c46.176 0 83.392-37.216 83.392-83.392v-6.88c9.088-3.328 18.016-7.040 26.784-11.136 17.408 17.184 40.352 25.728 63.552 25.728 24.448 0 47.616-9.792 64.64-26.816l34.912-34.912c18.048-17.568 27.008-41.056 27.008-64.832 0-23.904-9.376-46.624-25.728-63.52 4.128-8.768 7.84-17.696 11.168-26.816h6.88c46.176 0 83.392-37.216 83.392-83.392v-52.672c0-46.176-37.216-83.392-83.392-83.392h-6.88c-3.328-9.088-7.040-18.016-11.136-26.784 17.184-17.408 25.728-40.352 25.728-63.552 0-24.448-9.792-47.616-26.816-64.64l-34.912-34.912c-17.568-18.048-41.056-27.008-64.832-27.008-23.904 0-46.624 9.376-63.52 25.728-8.768-4.128-17.696-7.84-26.784-11.168v-6.88c0-46.176-37.216-83.392-83.392-83.392h-44.608c-50.176 0-90.432 40.64-91.424 90.272-9.248 3.392-18.368 7.168-27.296 11.392-17.408-17.088-40.288-25.6-63.424-25.6-24.448 0-47.616 9.792-64.64 26.816l-40.48 40.48c-32.896 32.416-32.48 85.28-0.096 117.664l4.768 4.768c-4.128 8.768-7.84 17.696-11.136 26.784h-6.88c-46.176 0-83.392 37.216-83.392 83.392v52.672c0 46.176 37.216 83.392 83.392 83.392h6.88c3.328 9.152 7.104 18.176 11.232 26.976l-4.864 4.928c-32.768 32.416-32.32 85.152-0.064 117.472l40.384 40.768c17.568 18.080 41.088 27.072 64.896 27.072 24.576 0 47.168-10.176 63.648-26.208 8.832 4.16 17.888 7.936 27.040 11.264v6.88zM485.664 777.152c-5.76 0-10.24-4.48-10.24-10.24v-33.632c0-16.544-11.104-31.040-27.072-35.328-21.408-5.76-42.176-14.368-61.28-25.536-14.24-8.288-32.256-6.048-44.032 5.472l-18.56 18.176c-3.904 3.904-8.704 5.76-12.896 5.76-5.376 0-9.568-1.92-12.448-4.928l-0.32-0.352-40.704-41.088c-4.16-4.16-3.776-10.4-0.256-13.856l0.448-0.448 23.776-24.128c11.584-11.776 13.856-29.824 5.536-44.096-11.136-19.104-19.776-39.872-25.536-61.28-4.288-15.968-18.784-27.072-35.328-27.072h-33.632c-5.76 0-10.24-4.48-10.24-10.24v-52.672c0-5.76 4.48-10.24 10.24-10.24h33.632c16.544 0 31.040-11.104 35.328-27.072 5.76-21.408 14.368-42.176 25.536-61.28 8.384-14.336 6.016-32.544-5.728-44.288l-23.776-23.776c-4.16-4.16-3.776-10.4-0.256-13.856l40.864-40.864c3.456-3.456 8.096-5.376 12.896-5.376 5.376 0 9.568 1.92 12.448 4.928 0.32 0.32 0.64 0.672 0.992 0.992l18.272 17.568c11.776 11.328 29.632 13.44 43.744 5.216 19.104-11.136 39.872-19.776 61.28-25.536 15.968-4.288 27.072-18.784 27.072-35.328v-25.312c0.224-10.656 8.768-18.56 18.272-18.56h44.608c5.76 0 10.24 4.48 10.24 10.24v33.632c0 16.544 11.104 31.040 27.072 35.328 21.408 5.76 42.176 14.368 61.28 25.536 14.336 8.384 32.544 6.016 44.288-5.728l17.92-17.92c3.456-3.456 8.096-5.376 12.896-5.376 5.376 0 9.568 1.92 12.448 4.928l35.552 35.552c3.456 3.456 5.376 8.096 5.376 12.896 0 5.376-1.92 9.568-4.928 12.448l-18.368 18.368c-11.744 11.744-14.112 29.952-5.728 44.288 11.136 19.104 19.776 39.872 25.536 61.28 4.288 15.968 18.784 27.072 35.328 27.072h33.632c5.76 0 10.24 4.48 10.24 10.24v52.672c0 5.76-4.48 10.24-10.24 10.24h-33.632c-16.544 0-31.040 11.104-35.328 27.072-5.76 21.408-14.368 42.176-25.536 61.28-8.384 14.336-6.016 32.544 5.728 44.288l17.92 17.92c3.456 3.456 5.376 8.096 5.376 12.896 0 5.376-1.92 9.568-4.928 12.448l-35.552 35.552c-3.456 3.456-8.096 5.376-12.896 5.376-5.376 0-9.568-1.92-12.448-4.928l-18.368-18.368c-11.744-11.744-29.952-14.112-44.288-5.728-19.104 11.136-39.872 19.776-61.28 25.536-15.968 4.288-27.072 18.784-27.072 35.328v33.632c0 5.76-4.48 10.24-10.24 10.24h-52.672zM512 533.216c-47.072 0-85.216-38.144-85.216-85.216s38.144-85.216 85.216-85.216 85.216 38.144 85.216 85.216c0 47.072-38.144 85.216-85.216 85.216zM353.632 448c0 87.456 70.912 158.368 158.368 158.368s158.368-70.912 158.368-158.368c0-87.456-70.912-158.368-158.368-158.368s-158.368 70.912-158.368 158.368z" />
<glyph unicode="&#xe90d;" glyph-name="openDialog" d="M448 207.52h-88.96l117.6 117.632c7.424 7.68 11.968 18.112 11.968 29.632 0 23.552-19.104 42.656-42.656 42.656-11.52 0-21.984-4.576-29.664-12l-117.632-117.632v88.992c0 23.552-19.104 42.656-42.656 42.656s-42.656-19.104-42.656-42.656v0-192c0-23.552 19.104-42.656 42.656-42.656v0h192c23.552 0 42.656 19.104 42.656 42.656s-19.104 42.656-42.656 42.656v0zM810.656 773.792h-192c-23.552 0-42.656-19.104-42.656-42.656s19.104-42.656 42.656-42.656v0h90.88l-121.056-120.992c-8.032-7.776-13.024-18.656-13.024-30.688 0-23.552 19.104-42.656 42.656-42.656 12.032 0 22.912 4.992 30.688 13.024l119.168 119.136v-87.136c0-23.552 19.104-42.656 42.656-42.656s42.656 19.104 42.656 42.656v0 192c0 23.552-19.104 42.656-42.656 42.656v0z" />
<glyph unicode="&#xe90e;" glyph-name="more" d="M576 702.72c0-35.168-28.64-63.712-64-63.712s-64 28.512-64 63.712c0 35.168 28.64 63.712 64 63.712s64-28.512 64-63.712zM576 448c0-35.168-28.64-63.712-64-63.712s-64 28.512-64 63.712c0 35.168 28.64 63.712 64 63.712s64-28.512 64-63.712zM576 193.28c0-35.168-28.64-63.712-64-63.712s-64 28.512-64 63.712c0 35.168 28.64 63.712 64 63.712s64-28.512 64-63.712z" />
<glyph unicode="&#xe90f;" glyph-name="message" d="M128 448c0 212.064 171.936 384 384 384s384-171.936 384-384c0-212.064-171.936-384-384-384s-384 171.936-384 384zM512 917.344c-259.2 0-469.344-210.112-469.344-469.344s210.112-469.344 469.344-469.344c259.2 0 469.344 210.144 469.344 469.344s-210.144 469.344-469.344 469.344zM757.216 556.064c16.672 16.672 16.672 43.68 0 60.352s-43.68 16.672-60.352 0l-246.304-246.304-123.424 123.424c-16.672 16.672-43.68 16.672-60.352 0s-16.672-43.68 0-60.352l153.6-153.6c16.672-16.672 43.68-16.672 60.352 0l276.48 276.48z" />
<glyph unicode="&#xe910;" glyph-name="message--success" d="M128 448c0 212.064 171.936 384 384 384s384-171.936 384-384c0-212.064-171.936-384-384-384s-384 171.936-384 384zM512 917.344c-259.2 0-469.344-210.112-469.344-469.344s210.112-469.344 469.344-469.344c259.2 0 469.344 210.144 469.344 469.344s-210.144 469.344-469.344 469.344zM757.216 556.064c16.672 16.672 16.672 43.68 0 60.352s-43.68 16.672-60.352 0l-246.304-246.304-123.424 123.424c-16.672 16.672-43.68 16.672-60.352 0s-16.672-43.68 0-60.352l153.6-153.6c16.672-16.672 43.68-16.672 60.352 0l276.48 276.48z" />
<glyph unicode="&#xe911;" glyph-name="message--error" d="M512 832c-212.064 0-384-171.936-384-384s171.936-384 384-384c212.064 0 384 171.936 384 384s-171.936 384-384 384zM42.656 448c0 259.2 210.112 469.344 469.344 469.344s469.344-210.112 469.344-469.344c0-259.2-210.144-469.344-469.344-469.344s-469.344 210.144-469.344 469.344zM316.704 643.296c16.672 16.672 43.68 16.672 60.352 0l134.944-134.944 134.944 134.944c16.672 16.672 43.68 16.672 60.352 0s16.672-43.68 0-60.352l-134.944-134.944 134.944-134.944c16.672-16.672 16.672-43.68 0-60.352s-43.68-16.672-60.352 0l-134.944 134.944-134.944-134.944c-16.672-16.672-43.68-16.672-60.352 0s-16.672 43.68 0 60.352l134.944 134.944-134.944 134.944c-16.672 16.672-16.672 43.68 0 60.352z" />
<glyph unicode="&#xe912;" glyph-name="message--confirm" d="M512 384c-23.564 0-42.667 19.103-42.667 42.667v170.667c0 23.564 19.103 42.667 42.667 42.667s42.667-19.103 42.667-42.667v-170.667c0-23.564-19.103-42.667-42.667-42.667zM576 254.293c0-35.346-28.654-64-64-64s-64 28.654-64 64c0 35.346 28.654 64 64 64s64-28.654 64-64zM843.093 15.36h-662.187c-0.339-0.003-0.739-0.004-1.14-0.004-80.825 0-146.347 65.522-146.347 146.347 0 26.857 7.234 52.024 19.861 73.659l-0.375-0.695 331.093 573.013c25.779 44.033 72.851 73.139 126.72 73.139s100.941-29.106 126.346-72.449l0.374-0.69 331.947-573.013c12.252-20.94 19.486-46.108 19.486-72.964 0-80.825-65.522-146.347-146.347-146.347-0.401 0-0.801 0.002-1.201 0.005h0.061zM512 783.36c-0.234 0.004-0.51 0.006-0.787 0.006-17.841 0-33.418-9.69-41.756-24.095l-0.124-0.232-330.24-573.013c-4.215-7.017-6.709-15.484-6.709-24.533s2.493-17.517 6.83-24.752l-0.122 0.219c8.142-14.619 23.505-24.345 41.14-24.345 0.537 0 1.072 0.009 1.604 0.027l-0.077-0.002h661.333c0.455-0.016 0.99-0.025 1.527-0.025 17.635 0 32.998 9.726 41.018 24.106l0.122 0.238c4.215 7.017 6.709 15.484 6.709 24.533s-2.493 17.517-6.83 24.752l0.122-0.219-331.093 573.013c-8.462 14.636-24.039 24.326-41.88 24.326-0.277 0-0.553-0.002-0.828-0.007l0.041 0.001zM426.667 783.36v0z" />
<glyph unicode="&#xe913;" glyph-name="menu" d="M213.344 661.344c0 23.552 19.104 42.656 42.656 42.656h512c23.552 0 42.656-19.104 42.656-42.656s-19.104-42.656-42.656-42.656h-512c-23.552 0-42.656 19.104-42.656 42.656zM213.344 448c0 23.552 19.104 42.656 42.656 42.656h512c23.552 0 42.656-19.104 42.656-42.656s-19.104-42.656-42.656-42.656h-512c-23.552 0-42.656 19.104-42.656 42.656zM213.344 234.656c0 23.552 19.104 42.656 42.656 42.656h512c23.552 0 42.656-19.104 42.656-42.656s-19.104-42.656-42.656-42.656h-512c-23.552 0-42.656 19.104-42.656 42.656z" />
<glyph unicode="&#xe914;" glyph-name="menu--active" d="M629.632 157.568c-16.672-16.672-43.68-16.672-60.352 0l-260.256 260.256c-8 8-12.512 18.848-12.512 30.176s4.48 22.176 12.512 30.176l260.256 260.256c16.672 16.672 43.68 16.672 60.352 0s16.672-43.68 0-60.352l-230.112-230.112 230.112-230.112c16.672-16.672 16.672-43.68 0-60.352z" />
<glyph unicode="&#xe915;" glyph-name="maximizeRestore" d="M799.456 732.832c-0.416 0.448-0.832 0.896-1.28 1.312-12.096 12.096-29.664 15.424-44.768 9.92h-156.064c-23.552 0-42.656-19.104-42.656-42.656s19.104-42.656 42.656-42.656h65.088l-95.264-95.264c-16.672-16.672-16.672-43.68 0-60.352s43.68-16.672 60.352 0l100.384 100.384v-75.36c0-23.552 19.104-42.656 42.656-42.656s42.656 19.104 42.656 42.656v173.216c0 12.416-5.312 23.616-13.792 31.392zM296.096 367.776c0 23.552-19.104 42.656-42.656 42.656s-42.656-19.104-42.656-42.656v-173.216c0-12.448 5.312-23.648 13.824-31.424 0.416-0.448 0.832-0.864 1.248-1.28 12.096-12.096 29.664-15.424 44.768-9.952h156.064c23.552 0 42.656 19.104 42.656 42.656s-19.104 42.656-42.656 42.656h-65.088l95.264 95.264c16.672 16.672 16.672 43.68 0 60.352s-43.68 16.672-60.352 0l-100.384-100.384v75.328z" />
<glyph unicode="&#xe916;" glyph-name="maximizeRestore--active" d="M640 704c0 23.552-19.104 42.656-42.656 42.656s-42.656-19.104-42.656-42.656v-173.216c0-12.448 5.312-23.648 13.824-31.424 0.416-0.448 0.832-0.864 1.248-1.28 12.096-12.096 29.664-15.424 44.768-9.952h156.064c23.552 0 42.656 19.104 42.656 42.656s-19.104 42.656-42.656 42.656h-65.088l95.264 95.264c16.672 16.672 16.672 43.68 0 60.352s-43.68 16.672-60.352 0l-100.384-100.384v75.328zM455.552 396.64c-0.416 0.448-0.832 0.896-1.28 1.312-12.096 12.096-29.664 15.424-44.768 9.92h-156.064c-23.552 0-42.656-19.104-42.656-42.656s19.104-42.656 42.656-42.656h65.088l-95.264-95.264c-16.672-16.672-16.672-43.68 0-60.352s43.68-16.672 60.352 0l100.384 100.384v-75.36c0-23.552 19.104-42.656 42.656-42.656s42.656 19.104 42.656 42.656v173.216c0 12.416-5.312 23.616-13.792 31.392z" />
<glyph unicode="&#xe917;" glyph-name="languages" d="M481.632 759.84c-13.28-14.016-26.912-36.288-39.104-66.816-3.2-8-6.272-16.48-9.152-25.344 23.456-0.864 49.568-1.344 78.656-1.344s55.2 0.48 78.656 1.344c-2.88 8.864-5.952 17.344-9.152 25.344-12.224 30.528-25.856 52.8-39.104 66.816-13.184 13.952-23.456 17.312-30.368 17.312s-17.184-3.36-30.368-17.312zM512 593.184c-36.256 0-68.384 0.736-96.8 2.016-6.304-33.92-10.528-71.168-12.16-110.624h217.92c-1.632 39.456-5.856 76.704-12.16 110.624-28.416-1.28-60.512-2.016-96.8-2.016zM374.592 720.192c4.672 11.68 9.76 22.912 15.2 33.536-40.736-16.288-77.472-40.512-108.256-70.72 18.112-3.808 43.008-7.68 76.704-10.752 4.896 16.96 10.368 32.992 16.352 47.904zM262.336 612.32c-12.224 2.688-22.336 5.472-30.688 8.192-24.896-40.352-41.312-86.496-46.752-135.936h144.96c1.536 40.544 5.664 79.456 11.968 115.776-33.728 3.36-59.648 7.616-79.488 11.968zM761.664 612.32c-19.872-4.352-45.76-8.608-79.488-11.968 6.336-36.32 10.432-75.264 12-115.776h144.96c-5.472 49.44-21.888 95.584-46.752 135.936-8.352-2.72-18.464-5.504-30.688-8.192zM665.728 672.256c33.728 3.072 58.592 6.944 76.704 10.752-30.816 30.208-67.52 54.432-108.256 70.72 5.472-10.624 10.528-21.856 15.2-33.536 5.984-14.944 11.456-30.976 16.352-47.904zM184.864 411.424c5.472-49.44 21.888-95.584 46.752-135.936 8.352 2.72 18.464 5.504 30.688 8.192 19.872 4.352 45.76 8.608 79.488 11.968-6.336 36.32-10.432 75.264-11.968 115.776h-144.96zM281.536 212.992c30.816-30.208 67.52-54.432 108.256-70.72-5.472 10.624-10.528 21.856-15.2 33.536-5.984 14.944-11.456 30.976-16.352 47.904-33.728-3.072-58.592-6.944-76.704-10.752zM433.344 228.32c2.912-8.864 5.952-17.344 9.152-25.344 12.224-30.528 25.856-52.8 39.104-66.816 13.184-13.952 23.456-17.312 30.368-17.312s17.184 3.36 30.368 17.312c13.28 14.016 26.912 36.288 39.104 66.816 3.2 8 6.272 16.48 9.152 25.344-23.456 0.864-49.568 1.344-78.656 1.344s-55.2-0.48-78.656-1.344zM665.728 223.744c-4.896-16.96-10.368-32.96-16.352-47.904-4.672-11.68-9.76-22.912-15.2-33.536 40.736 16.288 77.472 40.512 108.256 70.72-18.112 3.808-43.008 7.68-76.704 10.752zM792.384 275.488c24.896 40.352 41.312 86.496 46.752 135.936h-144.96c-1.536-40.544-5.664-79.488-12-115.776 33.728-3.36 59.648-7.616 79.488-11.968 12.224-2.688 22.336-5.472 30.688-8.192zM608.8 300.8c6.304 33.92 10.528 71.168 12.16 110.624h-217.92c1.632-39.456 5.856-76.704 12.16-110.624 28.416 1.28 60.512 2.016 96.8 2.016s68.384-0.736 96.8-2.016zM109.728 448c0 222.176 180.096 402.272 402.272 402.272s402.272-180.096 402.272-402.272c0-222.176-180.096-402.272-402.272-402.272s-402.272 180.096-402.272 402.272z" />
<glyph unicode="&#xe918;" glyph-name="ignoreAll" d="M476.704 149.344h-210.848c-23.552 0-42.656 19.104-42.656 42.656v0 512c0 23.552 19.104 42.656 42.656 42.656v0h426.656c23.552 0 42.656-19.104 42.656-42.656v0-266.624c0-23.552 19.104-42.656 42.656-42.656s42.656 19.104 42.656 42.656v0 266.624c0 70.688-57.312 128-128 128v0h-426.656c-70.688 0-128-57.312-128-128v0-512c0-70.688 57.312-128 128-128v0h210.848c23.552 0 42.656 19.104 42.656 42.656s-19.104 42.656-42.656 42.656v0zM583.392 597.344h-212.64c-23.552 0-42.656-19.104-42.656-42.656s19.104-42.656 42.656-42.656v0h212.64c23.552 0 42.656 19.104 42.656 42.656s-19.104 42.656-42.656 42.656v0zM812.192 198.24l61.44 61.44c7.424 7.68 11.968 18.112 11.968 29.632 0 23.552-19.104 42.656-42.656 42.656-11.52 0-21.984-4.576-29.664-12l-61.44-61.44-61.408 61.44c-7.776 8.032-18.656 13.024-30.688 13.024-23.552 0-42.656-19.104-42.656-42.656 0-12.032 4.992-22.912 13.024-30.688l61.408-61.44-61.408-61.408c-8.032-7.776-13.024-18.656-13.024-30.688 0-23.552 19.104-42.656 42.656-42.656 12.032 0 22.912 4.992 30.688 13.024l61.408 61.408 61.44-61.408c7.68-7.424 18.112-11.968 29.632-11.968 23.552 0 42.656 19.104 42.656 42.656 0 11.52-4.576 21.984-12 29.664v0zM479.2 405.344h-108.448c-23.552 0-42.656-19.104-42.656-42.656s19.104-42.656 42.656-42.656v0h108.448c23.552 0 42.656 19.104 42.656 42.656s-19.104 42.656-42.656 42.656v0z" />
<glyph unicode="&#xe919;" glyph-name="ignore" d="M793.6 179.2l46.944 46.944c8.032 7.776 13.024 18.656 13.024 30.688 0 23.552-19.104 42.656-42.656 42.656-12.032 0-22.912-4.992-30.688-13.024l-46.944-46.944-46.944 46.944c-7.776 8.032-18.656 13.024-30.688 13.024-23.552 0-42.656-19.104-42.656-42.656 0-12.032 4.992-22.912 13.024-30.688l46.944-46.944-46.944-46.944c-8.032-7.776-13.024-18.656-13.024-30.688 0-23.552 19.104-42.656 42.656-42.656 12.032 0 22.912 4.992 30.688 13.024l46.944 46.944 46.944-46.944c7.68-7.424 18.112-11.968 29.632-11.968 23.552 0 42.656 19.104 42.656 42.656 0 11.52-4.576 21.984-12 29.664v0zM487.52 144.864h-257.12c-23.552 0-42.656-19.104-42.656-42.656s19.104-42.656 42.656-42.656v0h257.184c23.552 0 42.656 19.104 42.656 42.656s-19.104 42.656-42.656 42.656v0zM697.952 354.464c-1.152 3.2-2.144 5.888-2.592 7.072l-135.392 334.368s-11.616 29.856-15.744 40.096c-4.416 10.752-9.504 20-15.456 28.608l0.32-0.48c-6.208 8.8-14.144 15.968-23.328 21.152l-0.352 0.192c-9.984 5.408-21.856 8.576-34.464 8.576-0.736 0-1.472 0-2.208-0.032h0.096c-0.576 0.032-1.28 0.032-1.984 0.032-12.544 0-24.32-3.168-34.624-8.736l0.384 0.192c-9.632-5.408-17.568-12.736-23.52-21.504l-0.16-0.256c-6.4-9.696-12.16-20.832-16.672-32.544l-0.416-1.184-13.6-34.816-149.344-374.272s-9.312-23.904-11.648-31.456c-2.176-6.528-3.456-14.080-3.552-21.888v-0.032c0.192-13.088 6.016-24.8 15.136-32.8l0.064-0.032c8.896-8.96 21.216-14.496 34.848-14.496 0.064 0 0.096 0 0.16 0v0c1.088-0.096 2.368-0.16 3.648-0.16 11.936 0 22.656 5.312 29.888 13.728l0.032 0.064c8.064 14.24 16.352 31.52 23.616 49.344l1.12 3.136 41.568 104.288h210.688l17.792-48.896c17.472 13.44 39.648 21.536 63.712 21.536 15.168 0 29.6-3.232 42.624-9.024l-0.672 0.256zM391.328 469.344l76.8 213.856 77.984-213.856z" />
<glyph unicode="&#xe91a;" glyph-name="exclamatory" d="M540.444 21.333c-250.311 0-455.111 204.8-455.111 455.111s204.8 455.111 455.111 455.111 455.111-204.8 455.111-455.111-204.8-455.111-455.111-455.111zM540.444 874.667c-221.867 0-398.222-176.356-398.222-398.222s176.356-398.222 398.222-398.222c221.867 0 398.222 176.356 398.222 398.222s-176.356 398.222-398.222 398.222zM512 675.556h56.889v-284.444h-56.889v284.444zM512 334.222h56.889v-56.889h-56.889v56.889z" />
<glyph unicode="&#xe91b;" glyph-name="edit_30px" d="M699.085 750.729l147.422-147.251-331.093-331.366-147.354 147.319zM335.223 391.68l147.524-147.524-235.964-88.508zM949.623 706.833l-73.25-73.284-147.115 147.217 73.387 73.421zM887.467 448v-307.2c0.011-0.442 0.016-0.962 0.016-1.484 0-36.892-29.907-66.799-66.799-66.799-0.522 0-1.042 0.006-1.561 0.018l0.077-0.001h-614.4c-0.442-0.011-0.962-0.016-1.484-0.016-36.892 0-66.799 29.907-66.799 66.799 0 0.522 0.006 1.042 0.018 1.561l-0.001-0.077v614.4c-0.011 0.442-0.016 0.962-0.016 1.484 0 36.892 29.907 66.799 66.799 66.799 0.522 0 1.042-0.006 1.561-0.018l-0.077 0.001h307.2l0.785 68.267-323.345-0.58c-66.571-0.078-120.515-54.023-120.593-120.586v-646.424c0.097-66.563 54.030-120.496 120.584-120.593h646.426c66.563 0.097 120.496 54.030 120.593 120.584v323.218z" />
<glyph unicode="&#xe91c;" glyph-name="edit" d="M650.24 625.312l60.064-60.064-385.344-385.984-75.552-15.136 15.168 75.552 385.664 385.664zM620.064 715.808l-424.96-424.96c-5.952-5.952-10.016-13.536-11.648-21.792l-30.304-151.040c-2.816-13.984 1.568-28.48 11.648-38.56s24.576-14.464 38.56-11.68l151.040 30.304c8.256 1.664 15.84 5.728 21.792 11.68l419.968 420.672c1.728 1.28 3.392 2.688 4.96 4.256s3.008 3.264 4.288 5.024l83.008 83.168c33.792 33.184 33.152 87.648 0.16 120.64v0l-60 60c-33.184 33.824-87.648 33.184-120.672 0.16l-87.904-87.904zM710.592 685.664l57.632 57.632 59.968-59.968-57.6-57.696-60.032 60.032zM512 106.656c0 23.552 19.104 42.656 42.656 42.656h301.216c23.552 0 42.656-19.104 42.656-42.656s-19.104-42.656-42.656-42.656h-301.216c-23.552 0-42.656 19.104-42.656 42.656z" />
<glyph unicode="&#xe91d;" glyph-name="disconnect" d="M128 448c0 23.552 19.104 42.656 42.656 42.656h85.344c23.552 0 42.656-19.104 42.656-42.656s-19.104-42.656-42.656-42.656h-85.344c-23.552 0-42.656 19.104-42.656 42.656zM267.392 352.736c16.672-16.672 16.672-43.68 0-60.352l-62.72-62.72c-16.672-16.672-43.68-16.672-60.352 0s-16.672 43.68 0 60.352l62.72 62.72c16.672 16.672 43.68 16.672 60.352 0zM144.352 666.336c16.672 16.672 43.68 16.672 60.352 0l62.72-62.72c16.672-16.672 16.672-43.68 0-60.352s-43.68-16.672-60.352 0l-62.72 62.72c-16.672 16.672-16.672 43.68 0 60.352zM725.344 448c0 23.552 19.104 42.656 42.656 42.656h85.344c23.552 0 42.656-19.104 42.656-42.656s-19.104-42.656-42.656-42.656h-85.344c-23.552 0-42.656 19.104-42.656 42.656zM756.608 352.736c16.672 16.672 43.68 16.672 60.352 0l62.72-62.72c16.672-16.672 16.672-43.68 0-60.352s-43.68-16.672-60.352 0l-62.72 62.72c-16.672 16.672-16.672 43.68 0 60.352zM879.648 666.336c16.672-16.672 16.672-43.68 0-60.352l-62.72-62.72c-16.672-16.672-43.68-16.672-60.352 0s-16.672 43.68 0 60.352l62.72 62.72c16.672 16.672 43.68 16.672 60.352 0zM512 727.456c-46.848 0-85.344-38.496-85.344-85.344v-109.216c0-23.552-19.104-42.656-42.656-42.656s-42.656 19.104-42.656 42.656v109.216c0 93.952 76.704 170.656 170.656 170.656s170.656-76.704 170.656-170.656v-109.216c0-23.552-19.104-42.656-42.656-42.656s-42.656 19.104-42.656 42.656v109.216c0 46.848-38.496 85.344-85.344 85.344zM384 405.76c23.552 0 42.656-19.104 42.656-42.656v-109.216c0-46.848 38.496-85.344 85.344-85.344s85.344 38.496 85.344 85.344v109.216c0 23.552 19.104 42.656 42.656 42.656s42.656-19.104 42.656-42.656v-109.216c0-93.952-76.704-170.656-170.656-170.656s-170.656 76.704-170.656 170.656v109.216c0 23.552 19.104 42.656 42.656 42.656z" />
<glyph unicode="&#xe91e;" glyph-name="disableRule" d="M855.968 655.104l-168.192 164.736c-7.68 7.52-18.208 12.16-29.824 12.16 0 0-0.032 0-0.032 0h-301.152c-70.688 0-128-57.312-128-128v0-144.736c0-23.552 19.104-42.656 42.656-42.656s42.656 19.104 42.656 42.656v0 144.736c0 23.552 19.104 42.656 42.656 42.656v0h215.808v-79.392c0-70.688 57.312-128 128-128v0h82.848v-347.264c0-23.552-19.104-42.656-42.656-42.656v0h-125.536c-23.552 0-42.656-19.104-42.656-42.656s19.104-42.656 42.656-42.656v0h125.536c70.688 0 128 57.312 128 128v0 432.608c0 0 0 0.032 0 0.032 0 11.936-4.896 22.72-12.8 30.464v0zM657.92 667.264v62.336l107.264-104.992h-64.608c-23.552 0-42.656 19.104-42.656 42.656v0zM354.688 462.944c-110.176 0-199.456-89.312-199.456-199.456s89.312-199.456 199.456-199.456c110.176 0 199.456 89.312 199.456 199.456v0c-0.128 110.112-89.344 199.36-199.456 199.456v0zM468.832 263.456c0 0 0 0 0-0.032 0-16.128-3.36-31.488-9.408-45.376l0.288 0.736-149.632 149.664c13.184 5.76 28.576 9.12 44.704 9.12 62.976 0 114.048-51.072 114.048-114.048 0-0.032 0-0.064 0-0.096v0zM240.544 263.456c0 16.128 3.36 31.488 9.408 45.408l-0.288-0.736 149.664-149.664c-13.184-5.76-28.576-9.12-44.704-9.12-63.008 0-114.080 51.072-114.080 114.080 0 0 0 0.032 0 0.032v0z" />
<glyph unicode="&#xe91f;" glyph-name="dictionaries" d="M365.728 118.848h402.272v658.272h-73.888v-182.848c0-14.784-8.896-28.128-22.592-33.792s-29.408-2.528-39.84 7.936l-46.624 46.624-46.912-46.688c-10.464-10.432-26.176-13.504-39.84-7.84s-22.528 19.008-22.528 33.76v182.848h-110.080v-658.272zM620.992 777.152h-72.032v-94.88l10.4 10.368c14.304 14.208 37.408 14.208 51.648-0.064l9.984-9.984v94.56zM768 45.728h-438.848c-80.896 0-146.272 65.376-146.272 146.272v512c0 80.896 65.376 146.272 146.272 146.272h438.848c40.32 0 73.152-32.832 73.152-73.152v-658.272c0-40.32-32.832-73.152-73.152-73.152zM292.576 767.424c-21.888-12.608-36.576-36.256-36.576-63.424v-512c0-27.168 14.688-50.784 36.576-63.424v638.816z" />
<glyph unicode="&#xe920;" glyph-name="description" d="M480.224 829.152c158.176 18.304 292.896-104.48 292.896-259.552 0-65.28-24.032-125.024-63.744-170.88l-0.032-0.032c-7.552-8.704-11.744-19.744-11.744-30.912 0-73.056-59.2-132.256-132.256-132.256h-106.24c-73.056 0-132.256 59.2-132.256 132.256 0 10.592-4.224 21.76-12.16 30.912l-0.064 0.096c-48.256 55.904-73.856 132.48-60.16 214.464 18.464 113.024 112.064 202.592 225.728 215.904h0.064zM490.048 744.384c-75.744-8.896-139.104-69.44-151.424-144.96l-0.032-0.192c-9.28-55.36 7.776-106.688 40.512-144.64 20.192-23.296 33.024-53.92 33.024-86.816 0-25.92 20.992-46.944 46.944-46.944h106.24c25.92 0 46.944 20.992 46.944 46.944 0 32.352 12.032 63.136 32.64 86.848 26.816 30.944 42.88 71.008 42.88 114.944 0 104.32-90.528 187.2-197.728 174.784zM379.296 149.344c0 23.552 19.104 42.656 42.656 42.656h180.064c23.552 0 42.656-19.104 42.656-42.656s-19.104-42.656-42.656-42.656h-180.064c-23.552 0-42.656 19.104-42.656 42.656z" />
<glyph unicode="&#xe921;" glyph-name="close" d="M285.248 732.928c-17.152 16.16-44.16 15.328-60.32-1.824s-15.328-44.16 1.824-60.32l236.736-222.784-236.736-222.784c-17.152-16.16-17.984-43.136-1.824-60.32s43.168-17.984 60.32-1.824l240.48 226.336 240.48-226.336c17.152-16.16 44.16-15.328 60.32 1.824s15.328 44.16-1.824 60.32l-236.704 222.784 236.704 222.784c17.152 16.16 17.984 43.168 1.824 60.32s-43.168 17.984-60.32 1.824l-240.48-226.336-240.48 226.336z" />
<glyph unicode="&#xe922;" glyph-name="chevron" d="M512 335.84c-11.648 0.064-22.208 4.8-29.856 12.416l-139.872 138.976c-7.776 7.744-12.576 18.432-12.576 30.24 0 23.584 19.104 42.688 42.688 42.688 11.744 0 22.4-4.736 30.112-12.416l109.536-108.96 109.536 108.96c7.712 7.68 18.368 12.416 30.112 12.416 23.584 0 42.688-19.104 42.688-42.688 0-11.808-4.8-22.528-12.576-30.24l-139.648-138.976c-7.712-7.68-18.336-12.416-30.080-12.416v0z" />
<glyph unicode="&#xe923;" glyph-name="chevron--active" d="M651.616 335.872c-11.648 0.064-22.208 4.8-29.856 12.416l-109.728 109.024-109.536-109.024c-7.712-7.68-18.368-12.416-30.112-12.416-23.584 0-42.688 19.104-42.688 42.688 0 11.808 4.8 22.528 12.576 30.24v0l139.872 138.912c7.712 7.68 18.336 12.416 30.080 12.416s22.368-4.736 30.080-12.416v0l139.648-138.912c7.776-7.744 12.576-18.432 12.576-30.24 0-23.552-19.104-42.656-42.656-42.656 0 0-0.032 0-0.032 0v0z" />
<glyph unicode="&#xe924;" glyph-name="checkmark" d="M752.032 602.656c12-12 12-31.456 0.032-43.456l-265.632-265.824c-5.76-5.76-13.568-8.992-21.728-8.992s-15.968 3.232-21.728 9.024l-147.456 147.648c-12 12-11.968 31.456 0.032 43.456s31.456 11.968 43.456-0.032l125.728-125.888 243.904 244.064c12 12 31.456 12 43.456 0.032z" />
<glyph unicode="&#xe925;" glyph-name="badge" d="M757.216 616.416c16.672-16.672 16.672-43.68 0-60.352l-276.48-276.48c-16.672-16.672-43.68-16.672-60.352 0l-153.6 153.6c-16.672 16.672-16.672 43.68 0 60.352s43.68 16.672 60.352 0l123.424-123.424 246.304 246.304c16.672 16.672 43.68 16.672 60.352 0z" />
<glyph unicode="&#xe926;" glyph-name="arrow" d="M755.488 665.888c-16.672 16.672-43.68 16.672-60.352 0s-16.672-43.68 0-60.352l114.912-114.912h-663.296c-23.552 0-42.656-19.104-42.656-42.656s19.104-42.656 42.656-42.656h660.736l-112.352-112.352c-16.672-16.672-16.672-43.68 0-60.352s43.68-16.672 60.352 0l186.464 186.464c8 8 12.512 18.848 12.512 30.176s-4.512 22.176-12.512 30.176l-186.464 186.464z" />
<glyph unicode="&#xe927;" glyph-name="addWord" d="M426.656 539.776c6.432-4.032 14.24-6.432 22.624-6.432v0c0.096 0 0.192 0 0.288 0 6.752 0 13.12 1.568 18.752 4.384l-0.256-0.096 66.048 32.48 65.632-32.416c5.504-2.784 12.032-4.416 18.912-4.416 23.552 0 42.656 19.104 42.656 42.656 0 0.032 0 0.064 0 0.128v0 170.656h85.344v-226.144c0-23.552 19.104-42.656 42.656-42.656s42.656 19.104 42.656 42.656v0 226.144c0 47.136-38.208 85.344-85.344 85.344v0h-469.344c-70.688 0-128-57.312-128-128v0-512c0-70.688 57.312-128 128-128v0h268.8c23.552 0 42.656 19.104 42.656 42.656s-19.104 42.656-42.656 42.656v0h-268.8c-23.552 0-42.656 19.104-42.656 42.656v0 512c0 23.552 19.104 42.656 42.656 42.656v0h129.28v-170.656c0 0 0-0.032 0-0.032 0-15.2 7.936-28.512 19.872-36.064l0.16-0.096zM576 644.704l-22.912 11.36c-5.504 2.784-12 4.384-18.848 4.384s-13.344-1.632-19.104-4.512l0.256 0.128-23.424-11.552v102.176h84.064zM917.344 277.344h-85.344v85.344c0 23.552-19.104 42.656-42.656 42.656s-42.656-19.104-42.656-42.656v0-85.344h-85.344c-23.552 0-42.656-19.104-42.656-42.656s19.104-42.656 42.656-42.656v0h85.344v-85.344c0-23.552 19.104-42.656 42.656-42.656s42.656 19.104 42.656 42.656v0 85.344h85.344c23.552 0 42.656 19.104 42.656 42.656s-19.104 42.656-42.656 42.656v0z" />
<glyph unicode="&#xe928;" glyph-name="about" d="M329.152 777.152c-40.512 0-73.152-32.64-73.152-73.152v-512c0-40.512 32.64-73.152 73.152-73.152h438.848v658.272h-438.848zM182.848 704c0 80.896 65.376 146.272 146.272 146.272h438.848c40.32 0 73.152-32.832 73.152-73.152v-658.272c0-40.32-32.832-73.152-73.152-73.152h-438.848c-80.896 0-146.272 65.376-146.272 146.272v512zM589.184 269.152c-16.832-6.592-29.984-11.712-39.872-15.008s-21.568-5.12-34.752-5.12c-20.128 0-35.84 5.12-47.168 14.624-11.328 9.888-16.832 22.304-16.832 37.664 0 5.856 0.352 12.064 1.088 17.92 0.736 6.208 2.208 13.152 4.032 20.832l20.832 73.888c1.248 4.768 2.336 9.568 3.36 14.112v0 0c0.48 2.048 0.928 4.064 1.376 6.016 1.088 6.208 1.824 12.064 1.824 17.184 0 9.504-1.824 16.096-5.856 19.744s-11.328 5.472-22.304 5.472c-5.472 0-10.976-0.736-16.448-2.56-2.304-0.768-4.544-1.472-6.688-2.144v0c-2.912-0.928-5.632-1.76-7.936-2.624l5.472 22.688c13.536 5.472 26.688 10.24 39.136 14.272s24.128 5.856 35.488 5.856c20.128 0 35.488-4.768 46.432-14.624 10.976-9.504 16.448-22.304 16.448-37.664 0-3.296-0.352-8.768-1.088-16.832s-2.208-15.36-4.032-22.304l-20.832-73.504c-1.824-5.856-3.296-12.8-4.768-20.128-1.472-7.68-1.824-13.152-1.824-17.184 0-9.888 2.208-16.448 6.592-20.128s12.064-5.472 22.688-5.472c5.12 0 10.592 0.736 17.184 2.56 6.208 1.824 10.976 3.296 13.888 4.768l-5.472-22.304zM550.4 554.048c13.888 0 25.6 4.384 35.104 13.536s14.272 20.128 14.624 32.544c0 12.8-5.12 23.776-14.624 32.928-9.888 9.152-21.568 13.536-35.104 13.536s-25.248-4.384-35.104-13.536c-9.504-9.152-14.624-20.128-14.624-32.928 0-12.448 4.768-23.392 14.624-32.544s21.568-13.536 35.104-13.536z" />
</font>
</defs>
</svg>
