<svg width="512" height="512" viewBox="0 0 512 512" fill="none" xmlns="http://www.w3.org/2000/svg">
<path fill-rule="evenodd" clip-rule="evenodd" d="M256 104.727C172.454 104.727 104.727 172.454 104.727 256C104.727 339.545 172.454 407.272 256 407.272C339.545 407.272 407.272 339.545 407.272 256C407.272 172.454 339.545 104.727 256 104.727ZM81.4541 256C81.4541 159.601 159.601 81.4541 256 81.4541C352.398 81.4541 430.545 159.601 430.545 256C430.545 352.398 352.398 430.545 256 430.545C159.601 430.545 81.4541 352.398 81.4541 256Z" fill="#757575"/>
<path fill-rule="evenodd" clip-rule="evenodd" d="M220.753 145.127C209.636 172.921 202.499 212.115 202.499 256C202.499 299.884 209.636 339.079 220.753 366.872C226.325 380.801 232.668 391.292 239.116 398.111C245.542 404.905 251.26 407.272 256.027 407.272C260.793 407.272 266.511 404.905 272.937 398.111C279.385 391.292 285.728 380.801 291.3 366.872C302.417 339.079 309.554 299.884 309.554 256C309.554 212.115 302.417 172.921 291.3 145.127C285.728 131.198 279.385 120.707 272.937 113.888C266.511 107.094 260.793 104.727 256.027 104.727C251.26 104.727 245.542 107.094 239.116 113.888C232.668 120.707 226.325 131.198 220.753 145.127ZM222.207 97.8972C231.374 88.204 242.799 81.4541 256.027 81.4541C269.254 81.4541 280.679 88.204 289.846 97.8972C298.989 107.566 306.688 120.932 312.908 136.484C325.375 167.652 332.827 209.912 332.827 256C332.827 302.087 325.375 344.347 312.908 375.515C306.688 391.067 298.989 404.433 289.846 414.102C280.679 423.795 269.254 430.545 256.027 430.545C242.799 430.545 231.374 423.795 222.207 414.102C213.064 404.433 205.366 391.067 199.145 375.515C186.678 344.347 179.227 302.087 179.227 256C179.227 209.912 186.678 167.652 199.145 136.484C205.366 120.932 213.064 107.566 222.207 97.8972Z" fill="#757575"/>
<path fill-rule="evenodd" clip-rule="evenodd" d="M81.4541 256C81.4541 249.573 86.6639 244.363 93.0905 244.363H402.618C409.044 244.363 414.254 249.573 414.254 256C414.254 262.426 409.044 267.636 402.618 267.636H93.0905C86.6639 267.636 81.4541 262.426 81.4541 256Z" fill="#757575"/>
<path fill-rule="evenodd" clip-rule="evenodd" d="M132.643 149.654C127.923 145.879 121.018 146.339 116.847 150.844C112.481 155.559 112.764 162.922 117.48 167.288L125.385 158.75C117.48 167.288 117.493 167.3 117.507 167.313L117.534 167.338L117.59 167.389L117.706 167.493L117.96 167.711C118.139 167.861 118.336 168.019 118.555 168.186C118.991 168.518 119.51 168.883 120.127 169.275C121.359 170.056 122.992 170.953 125.152 171.918C129.453 173.841 135.973 176.097 145.817 178.26C165.462 182.578 199.035 186.677 256.039 186.677C313.042 186.677 346.615 182.578 366.26 178.26C376.104 176.097 382.624 173.841 386.925 171.918C389.085 170.953 390.718 170.056 391.95 169.275C392.567 168.883 393.086 168.518 393.523 168.186C393.741 168.019 393.938 167.861 394.117 167.711L394.371 167.493L394.487 167.389L394.543 167.338L394.571 167.313C394.584 167.301 394.597 167.288 386.973 159.053L394.597 167.288C399.313 162.922 399.596 155.559 395.23 150.844C391.059 146.339 384.154 145.879 379.434 149.654C379.211 149.791 378.589 150.152 377.427 150.672C374.896 151.804 369.951 153.621 361.264 155.53C343.847 159.358 312.094 163.404 256.039 163.404C199.983 163.404 168.23 159.358 150.813 155.53C142.126 153.621 137.181 151.804 134.651 150.672C133.487 150.152 132.866 149.791 132.643 149.654Z" fill="#757575"/>
<path fill-rule="evenodd" clip-rule="evenodd" d="M145.817 333.735C165.462 329.418 199.035 325.318 256.039 325.318C313.042 325.318 346.615 329.418 366.26 333.735C376.104 335.899 382.624 338.154 386.925 340.077C389.085 341.043 390.718 341.939 391.95 342.721C392.567 343.112 393.086 343.477 393.523 343.81C393.741 343.976 393.938 344.135 394.117 344.284L394.371 344.503L394.487 344.607L394.543 344.657L394.571 344.682C394.584 344.695 394.597 344.707 386.973 352.942L394.597 344.707C399.313 349.074 399.596 356.436 395.23 361.151C391.059 365.656 384.154 366.116 379.434 362.342C379.211 362.204 378.589 361.843 377.427 361.323C374.896 360.192 369.951 358.374 361.264 356.465C343.847 352.637 312.094 348.591 256.039 348.591C199.983 348.591 168.23 352.637 150.813 356.465C142.126 358.374 137.181 360.192 134.651 361.323C133.487 361.843 132.866 362.204 132.643 362.342C127.923 366.116 121.018 365.656 116.847 361.151C112.481 356.436 112.764 349.074 117.48 344.707L125.385 353.246C117.48 344.707 117.493 344.695 117.507 344.682L117.534 344.657L117.59 344.607L117.706 344.503L117.96 344.284C118.139 344.135 118.336 343.976 118.555 343.81C118.991 343.477 119.51 343.112 120.127 342.721C121.359 341.939 122.992 341.043 125.152 340.077C129.453 338.154 135.973 335.899 145.817 333.735Z" fill="#757575"/>
</svg>
