<svg xmlns="http://www.w3.org/2000/svg" xmlns:xlink="http://www.w3.org/1999/xlink" viewBox="0 0 512 512"><defs><clipPath id="a"><rect width="512" height="512" fill="none"/></clipPath><radialGradient id="b" cx="317.053" cy="680.073" r="2301.915" gradientUnits="userSpaceOnUse"><stop offset="0" stop-color="#238187"/><stop offset="0.043" stop-color="#207379"/><stop offset="0.156" stop-color="#1a5359"/><stop offset="0.274" stop-color="#153a3f"/><stop offset="0.396" stop-color="#12282d"/><stop offset="0.525" stop-color="#101d22"/><stop offset="0.672" stop-color="#0f1a1f"/></radialGradient><linearGradient id="c" x1="148.004" y1="365.811" x2="195.011" y2="447.485" gradientUnits="userSpaceOnUse"><stop offset="0" stop-color="#18ffff"/><stop offset="0.091" stop-color="#17f1f1" stop-opacity="0.947"/><stop offset="0.261" stop-color="#13cece" stop-opacity="0.807"/><stop offset="0.492" stop-color="#0e9494" stop-opacity="0.581"/><stop offset="0.772" stop-color="#074545" stop-opacity="0.272"/><stop offset="1" stop-opacity="0"/></linearGradient><linearGradient id="d" x1="337.26" y1="-16.706" x2="463.953" y2="203.423" xlink:href="#c"/><linearGradient id="e" x1="342.262" y1="322.01" x2="484.952" y2="569.934" xlink:href="#c"/><linearGradient id="f" x1="201.293" y1="160.868" x2="318.83" y2="365.089" xlink:href="#c"/></defs><g clip-path="url(#a)"><rect x="-929.877" y="-632.609" width="2348.582" height="1565.722" fill="url(#b)"/></g><polygon points="394.454 -60.465 355.381 122.778 525.24 -17.988 394.454 -60.465" fill="none" stroke="#18ffff" stroke-linecap="round" stroke-linejoin="round" stroke-width="1.566"/><polygon points="386.808 214.207 519.047 250.675 536.015 312.024 386.808 214.207" fill="#18ffff" opacity="0.44"/><polygon points="-51.333 42.279 174.719 22.491 24.49 -42.279 -51.333 42.279" fill="#18ffff" opacity="0.44"/><polygon points="218.22 259.183 119.67 118.988 -72.257 120.469 218.22 259.183" fill="none" stroke="#18ffff" stroke-linecap="round" stroke-linejoin="round" stroke-width="1.566"/><polygon points="372.43 409.594 486.236 389.222 533.563 498.322 372.43 409.594" fill="none" stroke="#18ffff" stroke-linecap="round" stroke-linejoin="round" stroke-width="1.566"/><polygon points="10.927 379.724 123.812 434.336 78.198 547.151 10.927 379.724" fill="#18ffff" opacity="0.44"/><polygon points="37.723 71.927 35.448 12.631 87.938 40.309 37.723 71.927" fill="none" stroke="#18ffff" stroke-linecap="round" stroke-linejoin="round" stroke-width="1.566"/><polygon points="74.367 332.041 49.412 324.914 68.062 306.866 74.367 332.041" fill="none" stroke="#18ffff" stroke-linecap="round" stroke-linejoin="round" stroke-width="1.566"/><polygon points="239.151 113.306 188.726 101.15 224.466 63.559 239.151 113.306" fill="none" stroke="#18ffff" stroke-linecap="round" stroke-linejoin="round" stroke-width="1.566"/><polygon points="242.895 479.198 194.367 450.275 243.679 422.71 242.895 479.198" fill="none" stroke="#18ffff" stroke-linecap="round" stroke-linejoin="round" stroke-width="1.566"/><polygon points="367.509 323.126 338.218 304.116 369.327 288.254 367.509 323.126" fill="none" stroke="#18ffff" stroke-linecap="round" stroke-linejoin="round" stroke-width="1.566"/><polygon points="474.467 164.439 460.292 156.489 474.265 148.188 474.467 164.439" fill="none" stroke="#18ffff" stroke-linecap="round" stroke-linejoin="round" stroke-width="1.566"/><polygon points="147.556 394.455 164.915 448.298 188.726 383.462 147.556 394.455" fill="url(#c)"/><polygon points="332.399 62.598 413.705 187.849 426.229 50.128 332.399 62.598" fill="url(#d)"/><polygon points="450.56 345.846 312.795 435.143 446.943 541.698 450.56 345.846" fill="url(#e)"/><polygon points="182.532 242.642 250.418 363.185 308.464 230.118 182.532 242.642" fill="url(#f)"/><path d="M138.414,180.137h72.611a13.215,13.215,0,0,1,9.429,3.577,12.105,12.105,0,0,1,3.793,9.212,11.175,11.175,0,0,1-3.793,8.778,13.7,13.7,0,0,1-9.429,3.36h-60.69l1.951-3.685v42.266l-1.734-1.734h50.719a13.22,13.22,0,0,1,9.429,3.577,12.105,12.105,0,0,1,3.793,9.212,11.176,11.176,0,0,1-3.793,8.778,13.7,13.7,0,0,1-9.429,3.359H151.2l1.084-1.733v43.783l-1.734-1.95h60.473a12.814,12.814,0,0,1,9.429,3.792,12.067,12.067,0,0,1,3.793,8.779,11.508,11.508,0,0,1-3.793,8.887,13.447,13.447,0,0,1-9.429,3.467H138.414a12.959,12.959,0,0,1-13.222-13.221V193.359a12.961,12.961,0,0,1,13.222-13.222Z" fill="#fff"/><path d="M375.1,180.137a11.063,11.063,0,0,1,8.452,3.468,12.189,12.189,0,0,1,3.253,8.67V318.641a12.961,12.961,0,0,1-13.222,13.221,18.089,18.089,0,0,1-5.744-.975,9.889,9.889,0,0,1-4.443-2.709L278.216,220.02l5.636-3.469V319.724a11.969,11.969,0,0,1-3.36,8.671,11.676,11.676,0,0,1-8.779,3.467,11.053,11.053,0,0,1-8.453-3.467,12.18,12.18,0,0,1-3.251-8.671V193.359a12.959,12.959,0,0,1,13.22-13.222,18.287,18.287,0,0,1,6.287,1.192,9.149,9.149,0,0,1,4.768,3.577l82.583,105.34-3.685,2.6V192.275a12.187,12.187,0,0,1,3.251-8.67A11.328,11.328,0,0,1,375.1,180.137Z" fill="#fff"/></svg>