<?xml version="1.0" encoding="UTF-8"?><svg id="Layer_1" xmlns="http://www.w3.org/2000/svg" viewBox="0 0 150 150"><path d="M75,140c-17.362,0-33.685-6.761-45.962-19.038-12.277-12.277-19.038-28.6-19.038-45.962s6.761-33.685,19.038-45.962c12.277-12.277,28.6-19.038,45.962-19.038s33.685,6.761,45.962,19.038c12.277,12.277,19.038,28.6,19.038,45.962s-6.761,33.685-19.038,45.962c-12.277,12.277-28.6,19.038-45.962,19.038ZM75,17.158c-31.894,0-57.842,25.948-57.842,57.842s25.948,57.842,57.842,57.842,57.842-25.948,57.842-57.842-25.948-57.842-57.842-57.842Z" fill="#757575" stroke-width="0"/><path d="M40.092,52.99c.993,0,1.872.362,2.638,1.086.766.725,1.148,1.624,1.148,2.7v35.877c0,1.076-.394,1.977-1.18,2.7-.786.725-1.697,1.086-2.73,1.086-1.159,0-2.09-.361-2.793-1.086-.704-.724-1.056-1.624-1.056-2.7v-35.877c0-1.076.372-1.976,1.117-2.7.745-.724,1.696-1.086,2.855-1.086ZM39.905,71.053h27.684v7.138h-27.684v-7.138ZM67.589,52.99c1.158,0,2.089.362,2.793,1.086.704.725,1.056,1.624,1.056,2.7v35.877c0,1.076-.362,1.977-1.086,2.7s-1.687,1.086-2.887,1.086c-.993,0-1.873-.361-2.638-1.086-.767-.724-1.148-1.624-1.148-2.7v-35.877c0-1.076.393-1.976,1.18-2.7.785-.724,1.696-1.086,2.73-1.086Z" fill="#757575" stroke-width="0"/><path d="M99.133,62.735l-13.407,31.531c-.29.787-.735,1.396-1.335,1.831s-1.252.652-1.955.652c-1.117,0-1.945-.311-2.482-.932-.538-.62-.807-1.386-.807-2.296,0-.373.062-.766.186-1.18l15.456-37.118c.331-.827.838-1.469,1.521-1.925.683-.454,1.417-.641,2.204-.559.744,0,1.437.218,2.079.652.641.435,1.106,1.045,1.396,1.831l15.27,36.373c.206.538.311,1.035.311,1.49,0,1.117-.363,2.008-1.087,2.669-.725.662-1.521.993-2.39.993-.745,0-1.418-.229-2.017-.683-.601-.455-1.066-1.076-1.397-1.862l-13.345-31.098,1.8-.372ZM87.649,86.694l3.414-7.138h16.76l1.179,7.138h-21.353Z" fill="#757575" stroke-width="0"/></svg>