<?xml version="1.0" encoding="UTF-8"?><svg id="Layer_1" xmlns="http://www.w3.org/2000/svg" viewBox="0 0 512 512"><path d="M0,0h512v512H0V0Z" fill="#fff"/><path d="M0,0h512v170.667H0V0Z" fill="#ed2024"/><path d="M0,341.333h512v170.667H0v-170.667Z" fill="#278e43"/><path d="M256,128l9.591,65.079,28.349-59.36-10.016,65.015,44.586-48.367-28.735,59.174,56.861-33.076-44.899,48.075,64.084-14.847-57.075,32.706,65.613,4.702-64.179,14.429,61.312,23.833-65.58-5.129,51.563,40.847-61.155-24.232,37.233,54.229-51.296-41.181,19.594,62.796-36.879-54.472.213,65.781-19.184-62.921-19.185,62.921.214-65.781-36.879,54.472,19.594-62.796-51.296,41.182,37.233-54.23-61.155,24.232,51.563-40.847-65.58,5.129,61.312-23.834-64.179-14.428,65.613-4.702-57.075-32.706,64.084,14.847-44.899-48.075,56.861,33.075-28.735-59.173,44.586,48.367-10.016-65.015,28.349,59.36,9.592-65.079Z" fill="#febd11"/></svg>