<?xml version="1.0" encoding="UTF-8"?><svg id="Layer_1" xmlns="http://www.w3.org/2000/svg" viewBox="0 0 150 150"><path d="M75,140c-17.362,0-33.685-6.761-45.962-19.038s-19.038-28.6-19.038-45.962,6.761-33.685,19.038-45.962S57.638,10,75,10s33.685,6.761,45.962,19.038,19.038,28.6,19.038,45.962-6.761,33.685-19.038,45.962-28.6,19.038-45.962,19.038Zm0-122.842c-31.894,0-57.842,25.948-57.842,57.842s25.948,57.842,57.842,57.842,57.842-25.948,57.842-57.842-25.948-57.842-57.842-57.842Z" fill="#757575"/><g><path d="M39.376,96.047c-1.15,0-2.176-.359-3.079-1.077-.903-.718-1.354-1.611-1.354-2.678V56.706c0-1.067,.359-1.96,1.077-2.678s1.61-1.077,2.678-1.077h17.731c2.134,0,4.135,.565,6.003,1.693,1.867,1.129,3.376,2.689,4.525,4.679,1.149,1.991,1.724,4.279,1.724,6.865,0,1.56-.318,3.078-.954,4.556-.637,1.478-1.499,2.812-2.586,4.002-1.088,1.191-2.309,2.115-3.663,2.771l.062-1.416c1.149,.616,2.103,1.345,2.863,2.186,.759,.842,1.355,1.745,1.785,2.709,.431,.965,.687,2.001,.77,3.109,.163,1.027,.277,1.93,.339,2.709,.062,.78,.185,1.437,.369,1.97,.185,.534,.544,.945,1.077,1.231,.902,.534,1.467,1.303,1.693,2.309,.225,1.006-.01,1.899-.708,2.678-.452,.534-1.027,.872-1.724,1.016-.698,.143-1.396,.143-2.093,0-.699-.144-1.273-.339-1.724-.585-.698-.41-1.396-1.016-2.093-1.816-.699-.8-1.262-1.878-1.693-3.232-.431-1.354-.646-3.098-.646-5.233,0-.697-.123-1.344-.369-1.939-.246-.594-.596-1.108-1.047-1.539-.452-.431-1.027-.759-1.724-.985-.698-.225-1.519-.339-2.463-.339h-12.437l.924-1.416v13.36c0,1.068-.288,1.961-.862,2.678-.575,.718-1.376,1.077-2.401,1.077Zm2.401-22.041h14.345c.739,0,1.456-.339,2.155-1.016,.697-.677,1.272-1.601,1.724-2.77,.451-1.17,.677-2.452,.677-3.848,0-1.806-.483-3.314-1.447-4.525-.965-1.21-2.001-1.816-3.109-1.816h-14.222l.739-1.97v17.423l-.862-1.477Z" fill="#757575"/><path d="M110.609,52.889c1.067,0,1.929,.36,2.586,1.077,.656,.719,.985,1.611,.985,2.678v22.287c0,3.407-.729,6.424-2.186,9.05-1.457,2.627-3.458,4.679-6.003,6.157-2.545,1.478-5.501,2.217-8.865,2.217s-6.332-.739-8.897-2.217c-2.566-1.477-4.577-3.529-6.033-6.157-1.458-2.626-2.186-5.643-2.186-9.05v-22.287c0-1.067,.369-1.96,1.108-2.678,.739-.718,1.682-1.077,2.832-1.077,.944,0,1.795,.36,2.555,1.077,.759,.719,1.139,1.611,1.139,2.678v22.287c0,2.053,.441,3.828,1.324,5.325,.882,1.499,2.052,2.658,3.509,3.479,1.456,.822,3.006,1.231,4.648,1.231,1.764,0,3.406-.41,4.925-1.231,1.518-.821,2.749-1.98,3.694-3.479,.944-1.498,1.416-3.272,1.416-5.325v-22.287c0-1.067,.308-1.96,.924-2.678,.616-.718,1.456-1.077,2.524-1.077Z" fill="#757575"/></g></svg>