<?xml version="1.0" standalone="no"?>
<!DOCTYPE svg PUBLIC "-//W3C//DTD SVG 1.1//EN" "http://www.w3.org/Graphics/SVG/1.1/DTD/svg11.dtd" >
<svg xmlns="http://www.w3.org/2000/svg">
<metadata>Generated by IcoMoon</metadata>
<defs>
<font id="icomoon" horiz-adv-x="1024">
<font-face units-per-em="1024" ascent="960" descent="-64" />
<missing-glyph horiz-adv-x="1024" />
<glyph unicode="&#x20;" horiz-adv-x="512" d="" />
<glyph unicode="&#xe900;" glyph-name="about" d="M261.851 886.857h-0.022c-43.655-0.228-78.974-35.687-78.974-79.395 0-0.142 0-0.283 0.001-0.403v-718.095c-0.001-0.142-0.001-0.283-0.001-0.425 0-43.708 35.319-79.168 78.995-79.396h500.319c43.655 0.228 78.974 35.687 78.974 79.395 0 0.142 0 0.283-0.001 0.403 0 0-0.731 453.961 0 640 0 25.819 0-1.682 0-1.682 1.719-4.645-156.379 159.013-157.989 159.598h-421.303zM256 850.286h402.286c0-0.402 0.256-42.057 0-73.143 5.642-37.908 35.234-67.501 72.669-73.085l0.474-0.058c36.133 0.695 73.143-0.329 73.143 0v-621.714c0.001-0.12 0.002-0.262 0.002-0.405 0-19.976-16.193-36.169-36.169-36.169-0.142 0-0.284 0.001-0.426 0.002h-511.978c-19.841 0.863-35.708 16.73-36.569 36.491l-0.003 0.080v731.429c0 20.198 16.374 36.571 36.571 36.571v0zM402.286 484.571c16.882 22.276 43.344 36.529 73.136 36.571h0.007c49.664 0.768 84.48-28.782 73.143-73.143s-36.169-80.457-36.571-109.714c2.942-18.896 17.676-33.63 36.326-36.54l0.245-0.032v-36.571s-90.441-15.872-109.714 36.571c-18.286 49.591 39.168 108.142 36.571 146.286-0.951 14.153-21.394 37.047-73.143 0-1.061-0.768 0 36.571 0 36.571zM585.143 612.571c0-30.297-24.56-54.857-54.857-54.857s-54.857 24.56-54.857 54.857c0 30.297 24.56 54.857 54.857 54.857s54.857-24.56 54.857-54.857z" />
<glyph unicode="&#xe901;" glyph-name="add-to-dictionary" d="M384 746.667v0c-47.128 0-85.333-38.205-85.333-85.333v-426.667c0-47.128 38.205-85.333 85.333-85.333h298.667c47.128 0 85.333 38.205 85.333 85.333v426.667c0.683-2.859-84.395 84.096-85.333 85.333h-298.667zM384 704h256c1.365-0.981 0-61.781 0-85.333 0 0 84.992 1.323 85.333 0.683 0.896-1.749 0-384.683 0-384.683 0-23.564-19.103-42.667-42.667-42.667v0h-298.667c-23.564 0-42.667 19.103-42.667 42.667v0 426.667c0 23.564 19.103 42.667 42.667 42.667v0zM512 576h42.667v-298.667h-42.667v298.667zM384 448h298.667v-42.667h-298.667v42.667zM213.333 661.333h42.667v-469.333c1.004-46.719 38.614-84.329 85.239-85.332l0.095-0.002c34.133-0.427 341.333 0 341.333 0v-42.667h-341.333c-1.534-0.069-3.334-0.108-5.142-0.108-67.912 0-122.965 55.053-122.965 122.965 0 1.809 0.039 3.608 0.116 5.398l-0.009-0.255c0 0.512 0 469.333 0 469.333z" />
<glyph unicode="&#xe902;" glyph-name="arrow" d="M534.784 320l233.216 133.077-22.357 38.4-233.216-133.077zM745.216 448l-233.216 132.053 22.357 37.973 233.088-132.011zM213.845 448v43.264h554.667v-43.264h-554.667z" />
<glyph unicode="&#xe903;" glyph-name="close-small" d="M341.675 586.709l31.915 31.957 351.403-351.403-31.957-31.957zM693.376 618.325l31.957-31.915-351.403-351.403-31.957 31.957z" />
<glyph unicode="&#xe904;" glyph-name="close" d="M242.261 148.779l-29.525 29.525 569.003 568.917 29.525-29.525zM781.739 148.779l29.525 29.525-569.003 568.917-29.525-29.525z" />
<glyph unicode="&#xe905;" glyph-name="dictionary" d="M466.725 189.513l32.475 85.138c2.146 5.295 4.276 11.881 5.979 18.636l0.238 1.113q1.426-5.705 3.035-10.752t3.035-8.85l32.475-85.285h-77.239zM519.534 321.17h-28.27l-82.688-209.627h21.65c0.089-0.003 0.193-0.005 0.298-0.005 2.197 0 4.212 0.775 5.789 2.066l-0.016-0.013c1.506 1.199 2.656 2.786 3.306 4.609l0.022 0.072 19.346 50.615h92.818l19.346-50.615c0.753-1.937 1.943-3.562 3.455-4.812l0.020-0.016c1.538-1.193 3.496-1.913 5.621-1.913 0.158 0 0.315 0.004 0.472 0.012l-0.022-0.001h21.65zM702.683 147.529c-2.746-2.982-5.648-5.71-8.735-8.219l-0.152-0.119c-2.789-2.266-5.914-4.352-9.227-6.134l-0.318-0.156c-3.045-1.644-6.577-3.023-10.286-3.955l-0.32-0.068c-3.578-0.885-7.687-1.392-11.913-1.392-0.17 0-0.341 0.001-0.51 0.002h0.026c-0.082-0.001-0.179-0.001-0.276-0.001-3.273 0-6.439 0.454-9.44 1.303l0.244-0.059c-2.943 0.813-5.501 2.173-7.677 3.977l0.034-0.027c-2.189 1.862-3.927 4.187-5.073 6.828l-0.047 0.121c-1.185 2.797-1.873 6.049-1.873 9.462 0 0.222 0.003 0.444 0.009 0.665l-0.001-0.033c0.033 4.134 1.401 7.942 3.693 11.021l-0.035-0.050c2.974 3.759 6.814 6.706 11.225 8.562l0.185 0.069c5.872 2.615 12.706 4.678 19.838 5.857l0.496 0.068c8.93 1.577 19.368 2.604 30 2.848l0.245 0.004v-30.72zM624.311 230.473c0.857-1.354 1.915-2.494 3.148-3.414l0.033-0.024c1.189-0.87 2.679-1.392 4.292-1.392 0.060 0 0.119 0.001 0.178 0.002h-0.009c2.554 0.079 4.885 0.975 6.755 2.433l-0.026-0.019q3.401 2.414 8.082 5.413c3.143 2.012 6.76 3.834 10.563 5.277l0.408 0.136c4.382 1.541 9.435 2.431 14.696 2.431 0.439 0 0.877-0.006 1.313-0.019l-0.064 0.001c0.522 0.037 1.131 0.058 1.745 0.058 7.853 0 14.905-3.433 19.735-8.881l0.024-0.027c4.639-6.448 7.42-14.504 7.42-23.209 0-1.022-0.038-2.034-0.113-3.036l0.008 0.134v-11.41c-14.986-0.12-29.515-1.793-43.519-4.864l1.389 0.256c-10.513-2.237-19.83-5.8-28.377-10.574l0.509 0.261c-6.356-3.49-11.558-8.364-15.333-14.242l-0.1-0.167c-2.961-4.818-4.726-10.648-4.754-16.888v-0.008c-0.007-0.299-0.012-0.651-0.012-1.004 0-5.944 1.201-11.607 3.373-16.761l-0.106 0.284c2.084-4.825 5.070-8.902 8.778-12.184l0.036-0.031c3.659-3.192 8.013-5.692 12.795-7.241l0.261-0.073c4.682-1.532 10.069-2.415 15.663-2.415 0.125 0 0.249 0 0.374 0.001h-0.019c0.19-0.002 0.415-0.003 0.64-0.003 5.162 0 10.193 0.561 15.036 1.624l-0.462-0.085c4.911 1.102 9.22 2.612 13.285 4.55l-0.376-0.161c4.41 2.102 8.202 4.442 11.709 7.134l-0.153-0.113c4.158 3.199 7.829 6.336 11.333 9.647l-0.069-0.065 2.889-14.043c0.467-2.016 1.605-3.713 3.16-4.885l0.022-0.016c1.482-0.796 3.242-1.264 5.112-1.264 0.234 0 0.467 0.007 0.698 0.022l-0.032-0.002h11.52v95.013c0.002 0.227 0.004 0.495 0.004 0.763 0 7.873-1.218 15.461-3.477 22.587l0.145-0.529c-2.122 6.842-5.481 12.752-9.85 17.758l0.049-0.057c-4.356 4.849-9.7 8.716-15.727 11.299l-0.292 0.111c-6.157 2.598-13.316 4.107-20.827 4.107-0.392 0-0.784-0.004-1.174-0.012l0.058 0.001c-0.311 0.004-0.678 0.007-1.045 0.007-10.815 0-21.128-2.153-30.533-6.053l0.529 0.194c-10.142-4.419-18.802-10.384-26.111-17.7l-0.001-0.001zM365.714 9.143v-73.143h-73.143v73.143h73.143zM256 886.857v0c-40.396 0-73.143-32.747-73.143-73.143v-731.429c0-40.396 32.747-73.143 73.143-73.143h512c40.396 0 73.143 32.747 73.143 73.143v731.429c0 40.396-32.747 73.143-73.143 73.143h-512zM292.571 850.286h475.429c20.198 0 36.571-16.374 36.571-36.571v0-731.429c0-20.198-16.374-36.571-36.571-36.571v0h-475.429c0.878-1.097 0 16.384 0 36.571v731.429c0 20.187 0 36.571 0 36.571z" />
<glyph unicode="&#xe906;" glyph-name="down" d="M269.568 468.267l30.165 30.165 241.365-241.365-30.165-30.165zM724.267 498.432l30.165-30.165-241.365-241.365-30.165 30.165z" />
<glyph unicode="&#xe907;" glyph-name="edit" d="M672.939 710.187l127.275-127.189-285.867-286.251-127.403 127.232zM358.613 400l127.445-127.445-203.819-76.288zM889.429 672.256l-63.317-63.275-127.061 127.147 63.36 63.275zM852.011 448v-279.211c-0.048-33.606-27.279-60.837-60.881-60.885h-558.426c-33.606 0.048-60.837 27.279-60.885 60.881v558.554c0.024 33.616 27.269 60.861 60.883 60.885h0.002l279.296 1.109v42.667l-279.296-0.512c-57.509-0.048-104.119-46.643-104.192-104.142v-558.428c0.073-57.514 46.678-104.119 104.185-104.192h558.386c57.514 0.073 104.119 46.678 104.192 104.185v279.090h-43.264z" />
<glyph unicode="&#xe908;" glyph-name="ignore-all" d="M213.333 320h128v-128h-128v128zM640 320h128v-128h-128v128zM426.667 320h128v-128h-128v128zM725.333 533.333s-6.571 215.381-256 213.333-256-256-256-256h42.667s16.128 213.333 213.333 213.333 213.333-170.667 213.333-170.667h42.667zM810.667 576h-256l128-170.667z" />
<glyph unicode="&#xe909;" glyph-name="languages" d="M512 740.571h36.571v-621.714h-36.571v621.714zM219.429 594.286h621.714v-36.571h-621.714v36.571zM219.831 301.714l620.8 0.366v-36.571l-620.8-0.366v36.571zM182.857 448h694.857v-36.571h-694.857v36.571zM530.286 777.143v0c-191.88 0-347.429-155.549-347.429-347.429v0c0-191.88 155.549-347.429 347.429-347.429s347.429 155.549 347.429 347.429c0 191.88-155.549 347.429-347.429 347.429zM530.286 740.571c171.682 0 310.857-139.175 310.857-310.857s-139.175-310.857-310.857-310.857c-171.682 0-310.857 139.175-310.857 310.857v0c0 171.682 139.175 310.857 310.857 310.857v0zM530.286 777.143c-111.104 0-201.143-155.538-201.143-347.429s90.039-347.429 201.143-347.429c111.104 0 201.143 155.538 201.143 347.429s-90.039 347.429-201.143 347.429zM530.286 740.571c90.88 0 164.571-139.191 164.571-310.857s-73.691-310.857-164.571-310.857-164.571 139.191-164.571 310.857 73.691 310.857 164.571 310.857z" />
<glyph unicode="&#xe90a;" glyph-name="maximize" d="M512 704h256v-42.667h-256v42.667zM256 234.667h256v-42.667h-256v42.667zM725.333 704h42.667v-256h-42.667v256zM737.707 704.256l30.549-30.549-183.467-183.467-30.549 30.549zM439.040 405.589l30.549-30.549-183.467-183.467-30.379 30.72zM256 448h42.667v-256h-42.667v256z" />
<glyph unicode="&#xe90b;" glyph-name="menu-collapse" d="M426.667 746.667h170.667v-85.333h-170.667v85.333zM298.667 490.667h426.667v-85.333h-426.667v85.333zM128 234.667h768v-85.333h-768v85.333z" />
<glyph unicode="&#xe90c;" glyph-name="menu" d="M128 746.667h768v-85.333h-768v85.333zM128 490.667h768v-85.333h-768v85.333zM128 234.667h768v-85.333h-768v85.333z" />
<glyph unicode="&#xe90d;" glyph-name="minimaze" d="M554.667 533.333h213.333v-42.667h-213.333v42.667zM554.667 704h42.667v-213.333h-42.667v213.333zM256 405.333h213.333v-42.667h-213.333v42.667zM426.667 405.333h42.667v-213.333h-42.667v213.333zM410.496 376.661l30.165-30.165-211.2-211.2-30.165 30.165zM794.496 760.661l30.165-30.165-211.2-211.2-30.165 30.165z" />
<glyph unicode="&#xe90e;" glyph-name="options" d="M866.743 177.957l10.094-6.437c0.391 1.425 0.616 3.061 0.616 4.75 0 0.904-0.064 1.794-0.189 2.664l0.012-0.1c-3.236 14.356-8.047 27.026-14.366 38.764l0.395-0.803c-11.196 18.81-31.35 31.262-54.428 31.451h-0.027c-0.077 0-0.169 0.001-0.261 0.001-5.642 0-11.074-0.897-16.163-2.555l0.369 0.104c-2.951-1.034-6.353-1.647-9.894-1.682h-0.017c-7.492 0.234-14.233 3.271-19.246 8.091l0.009-0.009c-80.926 71.508-155.052 144.338-225.19 220.882l-1.992 2.203c-4.466 4.603-7.219 10.889-7.219 17.818 0 2.431 0.339 4.783 0.972 7.012l-0.044-0.18c1.757 6.923 2.765 14.871 2.765 23.054 0 5.366-0.434 10.631-1.267 15.762l0.075-0.562c-12.501 29.438-39.508 50.514-71.804 54.377l-0.425 0.041c-0.914 0-1.829 0-2.706 0h-0.951c0 0 0 0 0 0-1.433 0-2.803 0.268-4.063 0.758l0.077-0.026-4.352-1.134c-8.046-2.048-15.653-4.023-23.113-6.437 9.253-6.29 19.493-13.019 31.89-20.919 10.968-6.672 18.182-18.56 18.182-32.133 0-0.854-0.029-1.701-0.085-2.541l0.006 0.114c-1.22-17.682-9.434-33.237-21.866-44.076l-0.077-0.065c-6.113-6.562-14.726-10.727-24.313-10.971l-0.044-0.001c-7.651 0.21-14.699 2.626-20.576 6.632l0.133-0.086-14.409 9.216c-6.949 4.462-13.897 8.923-20.919 13.239 0.382-16.315 5.235-31.423 13.374-44.237l-0.208 0.351c10.968-19.424 31.067-32.566 54.315-33.604l0.14-0.005c6.048 0.005 11.857 1.022 17.268 2.891l-0.372-0.112c3.032 1.113 6.532 1.779 10.181 1.828h0.022c7.431-0.211 14.122-3.21 19.1-7.982l-0.010 0.010c80.735-71.409 154.715-144.069 224.768-220.393l1.975-2.181c4.754-4.785 7.693-11.38 7.693-18.66 0-2.75-0.419-5.402-1.197-7.895l0.050 0.188c-1.926-5.425-3.039-11.683-3.039-18.2 0-15.13 5.997-28.859 15.744-38.94l-0.015 0.016c8.99-9.629 19.211-17.94 30.452-24.733l0.634-0.355c9.296-5.456 20.47-8.686 32.397-8.704h0.005c10.908 0.169 21.241 2.438 30.675 6.419l-0.54-0.202c-11.849 8.082-23.515 15.616-32.549 21.394-10.266 6.505-17.089 17.644-17.516 30.402l-0.002 0.062c-0.006 0.326-0.010 0.71-0.010 1.095 0 16.25 6.416 31.002 16.852 41.86l-0.019-0.020c6.556 9.151 16.97 15.178 28.814 15.687l0.077 0.003c8.456-0.24 16.237-2.941 22.705-7.406l-0.141 0.092zM533.943 282.295c-19.111-6.845-41.16-10.854-64.13-10.971h-0.053c-69.755 0.048-131.437 34.574-168.929 87.457l-0.433 0.643c-24.983 34.756-39.953 78.17-39.953 125.081 0 14.434 1.417 28.538 4.121 42.179l-0.227-1.372c18.272 98.343 103.108 171.914 205.244 172.544h0.068c0.050 0 0.11 0 0.169 0 35.328 0 68.537-9.078 97.419-25.029l-1.039 0.526c66.711-37.256 111.079-107.426 111.079-187.959 0-17.284-2.044-34.091-5.903-50.193l0.296 1.462c30.683-31.049 60.123-59.648 88.722-86.053 8.521 24.869 17.737 51.968 28.745 84.663 0.927 1.47 1.478 3.258 1.478 5.175 0 5.2-4.049 9.453-9.166 9.781l-0.029 0.001-7.314 2.633c-11.739 4.133-23.881 8.448-35.767 13.093-6.66 3.138-11.423 9.342-12.493 16.741l-0.014 0.118c-0.585 5.778-0.841 11.52-1.134 17.079s-0.512 10.642-1.024 15.726c-0.173 0.956-0.272 2.057-0.272 3.181 0 7.74 4.687 14.385 11.377 17.252l0.122 0.047c13.714 6.583 27.392 13.312 40.704 20.078 8.667 4.425 9.691 7.534 5.376 16.677q-25.6 53.76-50.944 107.483c-3.95 8.302-7.022 8.302-8.338 8.302-3.134-0.222-6.013-1.131-8.547-2.575l0.099 0.052c-12.8-6.254-26.478-13.019-39.899-20.005-2.711-1.526-5.939-2.453-9.378-2.523h-0.021c-5.296 0.172-10.016 2.5-13.336 6.13l-0.013 0.014c-7.314 7.314-14.811 14.117-22.638 20.517-4.79 3.577-7.858 9.232-7.858 15.603 0 2.795 0.591 5.452 1.654 7.854l-0.049-0.124c5.303 14.629 10.313 29.696 14.994 43.63 1.013 1.529 1.616 3.406 1.616 5.425 0 5.128-3.895 9.347-8.888 9.859l-0.042 0.004q-49.92 17.737-99.913 35.328l-11.154 3.95c-2.009 0.794-4.333 1.295-6.763 1.389l-0.040 0.001c-1.975 0-5.303 0-8.485-9.179l-2.779-8.009c-3.986-11.374-8.082-23.15-11.666-34.779-2.127-8.482-9.684-14.664-18.685-14.664-0.413 0-0.822 0.013-1.228 0.039l0.056-0.003c-9.179 0-18.578-0.622-27.904-1.573-0.486-0.026-1.055-0.041-1.627-0.041s-1.141 0.015-1.706 0.045l0.079-0.003c-0.145-0.004-0.317-0.006-0.488-0.006-8.604 0-15.927 5.482-18.668 13.143l-0.043 0.138c-4.608 10.533-9.765 21.138-14.629 31.415l-4.498 9.326c-0.818 3.974-4.129 6.974-8.195 7.312l-0.033 0.002c-2.581-0.145-4.965-0.859-7.071-2.018l0.086 0.043q-53.65-26.697-106.862-53.175c-4.371-0.999-7.582-4.854-7.582-9.459 0-2.263 0.776-4.345 2.076-5.995l-0.016 0.021c6.29-14.043 13.202-28.087 20.078-42.313 1.543-2.682 2.454-5.897 2.454-9.324 0-5.505-2.348-10.462-6.098-13.923l-0.013-0.012c-7.314-7.68-14.153-15.47-20.114-23.077-3.338-4.786-8.769-7.913-14.937-8.045h-0.020c-2.87 0.043-5.591 0.63-8.081 1.663l0.145-0.053c-10.13 3.913-20.517 7.534-30.903 11.191l-10.971 3.657c-2.009 0.796-4.334 1.298-6.764 1.389l-0.038 0.001c-1.938 0-5.595 0-8.667-8.997q-19.383-56.759-38.656-113.371c-1.030-1.534-1.644-3.423-1.644-5.455 0-5.131 3.913-9.348 8.918-9.829l0.040-0.003 8.411-3.072c11.191-4.059 22.821-8.265 34.231-12.069 8.181-2.335 14.069-9.745 14.069-18.53 0-0.352-0.009-0.701-0.028-1.048l0.002 0.048c0.219-10.971 0.841-21.248 1.865-31.049 0.134-0.849 0.211-1.829 0.211-2.826 0-7.888-4.802-14.654-11.643-17.534l-0.125-0.047c-13.422-6.437-26.77-13.056-40.229-19.712-9.033-4.498-10.167-7.863-5.815-17.115q25.527-53.76 51.127-107.483c3.877-8.155 7.314-8.155 8.521-8.155 3.068 0.234 5.882 1.127 8.364 2.538l-0.098-0.052 7.607 3.657c10.971 5.376 21.614 10.715 32.329 16.311 2.62 1.513 5.739 2.459 9.067 2.595l0.040 0.001c5.298-0.182 10.023-2.491 13.374-6.096l0.011-0.012c6.839-6.766 14.629-13.714 23.406-21.211 4.489-3.37 7.362-8.682 7.362-14.665 0-2.632-0.556-5.134-1.557-7.395l0.046 0.117c-4.498-12.581-8.85-25.6-13.019-38.071l-2.121-6.327c-0.967-1.511-1.542-3.353-1.542-5.33 0-5.117 3.849-9.334 8.809-9.916l0.047-0.004 111.031-39.351c1.975-0.79 4.261-1.292 6.652-1.388l0.041-0.001c1.975 0 5.632 0 8.741 9.070q2.487 7.314 4.901 14.629c3.255 9.691 6.583 19.749 10.24 29.586 2.872 6.823 8.971 11.782 16.332 13.002l0.125 0.017c5.998 0.658 11.922 0.951 17.664 1.207 4.864 0.219 9.728 0.475 14.629 0.914 0.878 0 1.682 0 2.414 0 0.065 0.001 0.142 0.001 0.219 0.001 8.113 0 15.026-5.14 17.66-12.342l0.042-0.131c3.657-8.302 7.717-16.53 11.666-24.795q3.657-7.314 7.022-14.629c4.352-9.289 7.57-9.289 8.923-9.289 3.232 0.235 6.198 1.183 8.803 2.686l-0.099-0.053 62.537 31.013q-44.178 46.080-84.699 85.358z" />
<glyph unicode="&#xe90f;" glyph-name="right" d="M412.629 234.88l-28.416 29.184 227.157 233.387 28.373-29.184zM384.213 674.603l28.416 29.184 227.157-233.387-28.373-29.184z" />
<glyph unicode="&#xe910;" glyph-name="suggest-hide" d="M341.333 448h298.667v-42.667h-298.667v42.667zM298.667 704v0c-47.128 0-85.333-38.205-85.333-85.333v-384c0-47.128 38.205-85.333 85.333-85.333h384c47.128 0 85.333 38.205 85.333 85.333v384c0 47.128-38.205 85.333-85.333 85.333h-384zM298.667 661.333h384c23.564 0 42.667-19.103 42.667-42.667v0-384c0-23.564-19.103-42.667-42.667-42.667v0h-384c-23.564 0-42.667 19.103-42.667 42.667v0 384c0 23.564 19.103 42.667 42.667 42.667v0z" />
<glyph unicode="&#xe911;" glyph-name="suggest-show" d="M469.333 576h42.667v-298.667h-42.667v298.667zM341.333 448h298.667v-42.667h-298.667v42.667zM298.667 704v0c-47.128 0-85.333-38.205-85.333-85.333v-384c0-47.128 38.205-85.333 85.333-85.333h384c47.128 0 85.333 38.205 85.333 85.333v384c0 47.128-38.205 85.333-85.333 85.333h-384zM298.667 661.333h384c23.564 0 42.667-19.103 42.667-42.667v0-384c0-23.564-19.103-42.667-42.667-42.667v0h-384c-23.564 0-42.667 19.103-42.667 42.667v0 384c0 23.564 19.103 42.667 42.667 42.667v0z" />
<glyph unicode="&#xe912;" glyph-name="tick" d="M357.504 444.331l30.165 30.165 150.869-150.827-30.165-30.165zM742.997 581.163l30.165-30.165-245.035-245.035-30.165 30.165z" />
<glyph unicode="&#xe913;" glyph-name="trash" d="M426.667 832h128c47.128 0 85.333-38.205 85.333-85.333s-38.205-85.333-85.333-85.333h-128c-47.128 0-85.333 38.205-85.333 85.333s38.205 85.333 85.333 85.333zM170.667 746.667h640v-85.333h-640v85.333zM384 576h42.667v-426.667h-42.667v426.667zM554.667 576h42.667v-426.667h-42.667v426.667zM298.667 746.667v0c-47.128 0-85.333-38.205-85.333-85.333v-554.667c0-47.128 38.205-85.333 85.333-85.333h384c47.128 0 85.333 38.205 85.333 85.333v554.667c0 47.128-38.205 85.333-85.333 85.333h-384zM298.667 704h384c23.564 0 42.667-19.103 42.667-42.667v0-554.667c0-23.564-19.103-42.667-42.667-42.667v0h-384c-23.564 0-42.667 19.103-42.667 42.667v0 554.667c0 23.564 19.103 42.667 42.667 42.667v0z" />
<glyph unicode="&#xe914;" glyph-name="undo" d="M256 405.333s6.571 215.381 256 213.333 256-256 256-256h-42.667s-16.128 213.333-213.333 213.333-213.333-170.667-213.333-170.667h-42.667zM170.667 448h256l-128-170.667z" />
<glyph unicode="&#xe915;" glyph-name="up" d="M725.12 391.296l-29.184-28.373-233.387 227.157 29.184 28.416zM285.397 362.88l-29.184 28.373 233.387 227.157 29.227-28.373z" />
</font>
</defs>
</svg>
