<svg width="32" height="32" viewBox="0 0 32 32" fill="none" xmlns="http://www.w3.org/2000/svg">
<g clip-path="url(#clip0_2810_102)">
<rect width="32" height="32" fill="white"/>
<path d="M18.365 7.96401L8.243 20.901C7.971 21.248 7.795 21.661 7.734 22.098C7.672 22.535 7.727 22.98 7.892 23.389C8.057 23.798 8.327 24.157 8.674 24.429C9.021 24.701 9.434 24.876 9.871 24.938L26.136 27.236C26.573 27.298 27.018 27.243 27.427 27.078C27.836 26.913 28.195 26.643 28.466 26.296C28.738 25.949 28.913 25.536 28.975 25.099C29.037 24.662 28.982 24.217 28.818 23.808L22.674 8.57301C22.509 8.16401 22.239 7.80601 21.892 7.53401C21.545 7.26201 21.132 7.08701 20.695 7.02501C20.258 6.96301 19.813 7.01701 19.404 7.18201C18.995 7.34701 18.637 7.61601 18.365 7.96301V7.96401Z" fill="#FFC9B8"/>
<path d="M20.221 23.501H5.282C4.709 23.501 4.142 23.35 3.644 23.063C3.143 22.773 2.727 22.357 2.44 21.859C2.152 21.363 2 20.795 2 20.217C2 19.639 2.152 19.073 2.439 18.575L9.906 5.642V5.641C10.195 5.142 10.611 4.726 11.109 4.44C12.101 3.866 13.394 3.865 14.392 4.44C14.89 4.727 15.306 5.143 15.594 5.643L23.063 18.575C23.35 19.074 23.502 19.642 23.502 20.218C23.502 20.794 23.35 21.364 23.061 21.862C22.775 22.358 22.359 22.774 21.859 23.063C21.362 23.35 20.795 23.502 20.219 23.502L20.221 23.501ZM5.285 21.501H20.22C20.446 21.501 20.666 21.442 20.861 21.33C21.057 21.217 21.219 21.055 21.332 20.861C21.445 20.665 21.505 20.443 21.505 20.217C21.505 19.991 21.445 19.769 21.333 19.574L13.864 6.642C13.752 6.447 13.59 6.285 13.395 6.173C13.002 5.946 12.499 5.948 12.111 6.172C11.915 6.285 11.752 6.448 11.638 6.644L4.172 19.575C4.06 19.77 4 19.992 4 20.218C4 20.444 4.06 20.665 4.172 20.859C4.285 21.055 4.447 21.218 4.644 21.331C4.839 21.444 5.026 21.534 5.286 21.502L5.285 21.501Z" fill="#484A4F"/>
<path d="M12.751 16.84C12.198 16.84 11.751 16.392 11.751 15.84V9.74701C11.751 9.19501 12.198 8.74701 12.751 8.74701C13.304 8.74701 13.751 9.19501 13.751 9.74701V15.84C13.751 16.392 13.304 16.84 12.751 16.84Z" fill="#484A4F"/>
<path d="M12.698 20.409C13.399 20.409 13.967 19.841 13.967 19.14C13.967 18.439 13.399 17.871 12.698 17.871C11.997 17.871 11.429 18.439 11.429 19.14C11.429 19.841 11.997 20.409 12.698 20.409Z" fill="#484A4F"/>
</g>
<defs>
<clipPath id="clip0_2810_102">
<rect width="32" height="32" fill="white"/>
</clipPath>
</defs>
</svg>
