<svg width="32" height="32" viewBox="0 0 32 32" fill="none" xmlns="http://www.w3.org/2000/svg">
<path d="M10.197 29.0746C14.47 29.0746 17.934 25.6106 17.934 21.3376C17.934 17.0646 14.47 13.6006 10.197 13.6006C5.92393 13.6006 2.45996 17.0646 2.45996 21.3376C2.45996 25.6106 5.92393 29.0746 10.197 29.0746Z" fill="#C0C1F8"/>
<path d="M17.9341 26.1358C24.3434 26.1358 29.5391 20.94 29.5391 14.5308C29.5391 8.12152 24.3434 2.92578 17.9341 2.92578C11.5248 2.92578 6.3291 8.12152 6.3291 14.5308C6.3291 20.94 11.5248 26.1358 17.9341 26.1358Z" fill="#E6E4F5"/>
<path d="M13.4749 5.33037L13.9665 6.64945C14.3773 7.75245 15.2476 8.62155 16.3505 9.03354L17.6696 9.52508C18.1101 9.68893 18.1101 10.3111 17.6696 10.4749L16.3505 10.9665C15.2476 11.3773 14.3784 12.2476 13.9665 13.3506L13.4749 14.6696C13.3111 15.1101 12.6889 15.1101 12.5251 14.6696L12.0335 13.3506C11.6227 12.2476 10.7524 11.3785 9.64945 10.9665L8.33037 10.4749C7.88988 10.3111 7.88988 9.68893 8.33037 9.52508L9.64945 9.03354C10.7524 8.62274 11.6215 7.75245 12.0335 6.64945L12.5251 5.33037C12.6889 4.88988 13.3111 4.88988 13.4749 5.33037Z" fill="#444444"/>
<path d="M25.8328 9.23128L26.1772 10.1541C26.4647 10.9256 27.0744 11.5353 27.8459 11.8227L28.7687 12.1672C29.0771 12.2824 29.0771 12.7176 28.7687 12.8328L27.8459 13.1773C27.0744 13.4647 26.4647 14.0744 26.1772 14.8459L25.8328 15.7687C25.7176 16.0771 25.2824 16.0771 25.1672 15.7687L24.8227 14.8459C24.5353 14.0744 23.9256 13.4647 23.1541 13.1773L22.2313 12.8328C21.9229 12.7176 21.9229 12.2824 22.2313 12.1672L23.1541 11.8227C23.9256 11.5353 24.5353 10.9256 24.8227 10.1541L25.1672 9.23128C25.2824 8.92291 25.7176 8.92291 25.8328 9.23128Z" fill="#444444"/>
<path d="M17.8328 19.2313L18.1772 20.1541C18.4647 20.9256 19.0744 21.5353 19.8459 21.8228L20.7687 22.1672C21.0771 22.2824 21.0771 22.7176 20.7687 22.8328L19.8459 23.1773C19.0744 23.4647 18.4647 24.0744 18.1772 24.8459L17.8328 25.7687C17.7176 26.0771 17.2824 26.0771 17.1672 25.7687L16.8227 24.8459C16.5353 24.0744 15.9256 23.4647 15.1541 23.1773L14.2313 22.8328C13.9229 22.7176 13.9229 22.2824 14.2313 22.1672L15.1541 21.8228C15.9256 21.5353 16.5353 20.9256 16.8227 20.1541L17.1672 19.2313C17.2824 18.9229 17.7176 18.9229 17.8328 19.2313Z" fill="#444444"/>
</svg>
