<?xml version="1.0" encoding="utf-8"?>
<!-- Generator: Adobe Illustrator 22.1.0, SVG Export Plug-In . SVG Version: 6.00 Build 0)  -->
<svg version="1.1" id="Layer_1" xmlns="http://www.w3.org/2000/svg" xmlns:xlink="http://www.w3.org/1999/xlink" x="0px" y="0px"
	 viewBox="0 0 32 16" style="enable-background:new 0 0 32 16;" xml:space="preserve">
<style type="text/css">
	.st0{fill:#FFFFFF;}
	.st1{fill:#F48220;}
</style>
<g>
	<g>
		<polygon class="st0" points="16.9,14.3 16,15.5 15.1,14.3 16,13.1 		"/>
	</g>
	<path class="st1" d="M31.4,0.5h-1.5v3c-0.4-0.5-0.8-0.9-1.3-1.3c-1.3-1.1-3-1.7-4.7-1.7c-0.1,0-0.2,0-0.3,0c-0.3,0-0.6,0-1,0.1
		C21.3,0.8,20,1.5,19,2.4c0,0-0.1,0.1-0.1,0.1l0,0c-0.1,0.1-0.2,0.2-0.3,0.3c-0.3,0.4-0.6,0.9-0.9,1.3l0,0c-0.1,0.2-0.2,0.3-0.3,0.5
		c-0.2,0.3-0.4,0.6-0.6,0.9l0,0c-0.4,0.6-0.8,1.3-1.2,1.9c-0.8,1.3-1.6,2.5-2.3,3.8l0,0c-0.3,0.5-0.8,1-1.3,1.4
		c-1.2,0.9-2.5,1.4-4.1,1.3c-1.4,0-2.6-0.5-3.5-1.3C2.7,11.4,2,9.6,2.1,7.5c0.1-1.5,0.7-2.7,1.8-3.7c1.5-1.5,3.4-2,5.5-1.6
		c0.9,0.2,1.7,0.6,2.4,1.2l0.7-1.1c0-0.1,0.1-0.1,0.1-0.2c-1.3-1-2.8-1.5-4.5-1.5C6.5,0.6,5,1.1,3.7,2c0,0,0,0-0.1,0.1
		C3,2.5,2.5,3.1,2.1,3.6V0.5H0.6v7.6l0,0c0,0.5,0.1,0.9,0.1,1.4c0.4,1.8,1.2,3.2,2.6,4.4c1.7,1.3,3.7,1.9,5.8,1.5
		c1.3-0.2,2.5-0.7,3.5-1.6l0,0c0.2-0.2,0.4-0.4,0.6-0.6l0.3-0.4c0.2-0.3,0.4-0.7,0.7-1c1.4-2.1,3-4.5,4.4-6.9
		c0.3-0.5,0.7-0.9,1.1-1.3c1.4-1.2,3-1.7,4.9-1.5c1.5,0.2,2.8,0.9,3.7,2c1.2,1.4,1.6,3,1.4,4.9c-0.2,1.5-0.9,2.7-2,3.6
		c-1,0.8-2.2,1.3-3.5,1.4c-1.5,0.1-2.8-0.2-4-1.1c-0.5-0.4-1.7-1.7-2.3-2.5c-0.3,0.4-0.5,0.9-0.8,1.3c0.4,0.5,1.6,1.8,2,2.1
		c1.7,1.4,3.7,1.9,5.9,1.6c1.7-0.2,3.1-1,4.2-2.2c1.4-1.5,2.1-3.1,2.1-5l0,0V0.5z"/>
	<path class="st0" d="M14.5,4.2c-0.2-0.3-0.6-0.7-0.8-1l-4.3,6.9L5,7.3L4.3,8.5L9.9,12l4.7-7.6C14.6,4.3,14.6,4.3,14.5,4.2z"/>
</g>
</svg>
