<?xml version="1.0" encoding="utf-8"?>
<!-- Generator: Adobe Illustrator 19.2.1, SVG Export Plug-In . SVG Version: 6.00 Build 0)  -->
<svg version="1.1" id="Layer_1" xmlns="http://www.w3.org/2000/svg" xmlns:xlink="http://www.w3.org/1999/xlink" x="0px" y="0px"
	 viewBox="0 0 20 20" style="enable-background:new 0 0 20 20;" xml:space="preserve">
<style type="text/css">
	.st0{fill:none;}
	.st1{fill:#F48220;}
	.st2{fill:#FFFFFF;}
</style>
<g>
	<circle class="st0" cx="10" cy="10" r="10"/>
	<g>
		<g>
			<circle class="st1" cx="10" cy="10" r="10"/>
		</g>
	</g>
</g>
<g>
	<circle class="st0" cx="10" cy="10" r="9"/>
	<g>
		<g>
			<path class="st2" d="M10,5c2.8,0,5,2.2,5,5s-2.2,5-5,5s-5-2.2-5-5S7.2,5,10,5 M10,3c-3.9,0-7,3.1-7,7s3.1,7,7,7s7-3.1,7-7
				S13.9,3,10,3L10,3z"/>
		</g>
	</g>
</g>
<path class="st1" d="M10,0v10h10C20,4.5,15.5,0,10,0z"/>
</svg>
