<?xml version="1.0" encoding="utf-8"?>
<!-- Generated by IcoMoon.io -->
<svg version="1.1" xmlns="http://www.w3.org/2000/svg" xmlns:xlink="http://www.w3.org/1999/xlink" width="1350" height="32" viewBox="0 0 1350 32">
<svg id="icon-arrow" width="32" height="32" viewBox="0 0 32 32" x="0" y="0">
<path fill="#777" d="M10.311 32l-2.133-2.489 13.511-13.511-13.511-13.511 2.133-2.489 16 16z"></path>
</svg>
<svg id="icon-close-hover" width="32" height="32" viewBox="0 0 32 32" x="48" y="0">
<path fill="#494949" d="M17.867 16l13.6-13.6c0.533-0.533 0.533-1.333 0-1.867s-1.333-0.533-1.867 0l-13.6 13.6-13.6-13.867c-0.533-0.267-1.6-0.267-2.133 0-0.267 0.533-0.267 1.6 0 2.133l13.867 13.6-13.6 13.6c-0.533 0.533-0.533 1.333 0 1.867 0 0.533 0.533 0.533 0.8 0.533s0.8 0 1.067-0.267l13.6-13.867 13.6 13.6c0.533 0.533 1.333 0.533 1.867 0 0.267-0.267 0.267-0.533 0.267-1.067 0-0.267 0-0.8-0.267-1.067l-13.6-13.333z"></path>
</svg>
<svg id="icon-close" width="32" height="32" viewBox="0 0 32 32" x="96" y="0">
<path fill="#5b5b5b" d="M17.867 16l13.6-13.6c0.533-0.533 0.533-1.333 0-1.867s-1.333-0.533-1.867 0l-13.6 13.6-13.6-13.867c-0.533-0.267-1.6-0.267-2.133 0-0.267 0.533-0.267 1.6 0 2.133l13.867 13.6-13.6 13.6c-0.533 0.533-0.533 1.333 0 1.867 0 0.533 0.533 0.533 0.8 0.533s0.8 0 1.067-0.267l13.6-13.867 13.6 13.6c0.533 0.533 1.333 0.533 1.867 0 0.267-0.267 0.267-0.533 0.267-1.067 0-0.267 0-0.8-0.267-1.067l-13.6-13.333z"></path>
</svg>
<svg id="icon-copy" width="32" height="32" viewBox="0 0 32 32" x="144" y="0">
<path fill="#567096" d="M5 0v32h11.8l10.4-10.4v-21.6h-22.2zM22 23.8l-5.2 5.2v-7.2h7.2l-2 2zM14.6 19.6v10.4h-7.6v-28h18v17.6h-10.4z"></path>
</svg>
<svg id="icon-cut" width="32" height="32" viewBox="0 0 32 32" x="192" y="0">
<path fill="#567096" d="M27.6 23.8c-0.8-1.4-2.2-2.6-3.8-3-1-0.2-2-0.2-3 0.2l-2.6-4.6c2.4-4.4 6-10.8 6.4-11.6 1-2-0.6-4-0.8-4.2l-0.6-0.6-7.2 12.6-7.2-12.6-0.6 0.6c0 0-1.8 2.2-0.8 4.2 0.6 0.6 4 7.2 6.4 11.6l-2.6 4.6c-1-0.4-2-0.4-3-0.2-1.6 0.4-2.8 1.6-3.8 3-1.6 2.8-0.8 6.2 1.6 7.6 0.6 0.4 1.4 0.6 2.2 0.6 0.4 0 0.8 0 1.4-0.2 2.4-0.8 3.8-3 4.4-5.2 0 0 1.2-5.2 2-6.4 0 0 0 0 0-0.2v0.2c0.8 1.2 2 6.2 2 6.4 0.6 2.2 2 4.2 4.6 5.2 0.4 0.2 0.8 0.2 1.4 0.2 0.8 0 1.6-0.2 2.2-0.6 2.2-1.4 3-4.8 1.4-7.6zM11 27.6c-0.6 1-1.4 1.6-2.2 1.8-0.2 0-0.4 0-0.6 0-0.4 0-0.8 0-1-0.2-1.2-0.8-1.6-2.6-0.6-4.4 0.4-0.8 1.4-1.4 2.2-1.6 0.6-0.2 1.2-0.2 1.8 0.2 1.2 0.6 1.4 2.6 0.4 4.2zM25 29.4c-0.4 0.2-0.6 0.2-1 0.2-0.2 0-0.4 0-0.6 0-0.8-0.2-1.8-1-2.2-1.8-1.2-1.8-1-3.8 0.2-4.4 0.4-0.2 1-0.4 1.8-0.2 1 0.2 1.8 1 2.2 1.8 1 1.6 0.8 3.6-0.4 4.4z"></path>
</svg>
<svg id="icon-delete_hover-state" width="32" height="32" viewBox="0 0 32 32" x="240" y="0">
<path fill="#606060" d="M12.48 8.96c-0.48 0-0.8 0.32-0.8 0.8v17.12c0 0.48 0.32 0.8 0.8 0.8s0.8-0.32 0.8-0.8v-17.12c0-0.48-0.32-0.8-0.8-0.8z"></path>
<path fill="#606060" d="M19.52 8.96c-0.48 0-0.8 0.32-0.8 0.8v17.12c0 0.48 0.32 0.8 0.8 0.8s0.8-0.32 0.8-0.8v-17.12c0-0.48-0.32-0.8-0.8-0.8z"></path>
<path fill="#606060" d="M27.68 3.52h-5.28v-0.16c0-0.8-0.16-1.76-0.8-2.4-0.64-0.8-1.6-0.96-2.72-0.96-0.8 0-2.080 0-2.88 0v0c-0.96 0-2.080 0-2.88 0-1.12 0-2.080 0.16-2.72 0.96-0.64 0.64-0.8 1.6-0.8 2.4v0.16h-5.28c-0.48 0-0.8 0.32-0.8 0.8v0 0.32c0 0.16 0 0.32 0 0.64v0.48c0.16 0.32 0.48 0.64 0.8 0.64h0.48v22.4c0.16 1.76 1.44 3.2 3.36 3.2h15.68c1.92 0 3.2-1.44 3.36-3.2v-22.4h0.32c0.48 0 0.8-0.32 0.8-0.8v-0.32c0-0.32 0-0.48 0-0.64v-0.32c0-0.48-0.32-0.8-0.64-0.8zM25.12 28.8c0 0.8-0.64 1.44-1.44 1.44 0 0-5.76 0-7.68 0v0c-1.92 0-7.68 0-7.68 0-0.8 0-1.44-0.64-1.44-1.44 0-5.44 0-21.44 0-22.4h18.4c-0.16 0.96-0.16 16.96-0.16 22.4z"></path>
</svg>
<svg id="icon-delete_normal-state" width="32" height="32" viewBox="0 0 32 32" x="288" y="0">
<path fill="#777" d="M12.48 8.96c-0.48 0-0.8 0.32-0.8 0.8v17.12c0 0.48 0.32 0.8 0.8 0.8s0.8-0.32 0.8-0.8v-17.12c0-0.48-0.32-0.8-0.8-0.8z"></path>
<path fill="#777" d="M19.52 8.96c-0.48 0-0.8 0.32-0.8 0.8v17.12c0 0.48 0.32 0.8 0.8 0.8s0.8-0.32 0.8-0.8v-17.12c0-0.48-0.32-0.8-0.8-0.8z"></path>
<path fill="#777" d="M27.68 3.52h-5.28v-0.16c0-0.8-0.16-1.76-0.8-2.4-0.64-0.8-1.6-0.96-2.72-0.96-0.8 0-2.080 0-2.88 0v0c-0.96 0-2.080 0-2.88 0-1.12 0-2.080 0.16-2.72 0.96-0.64 0.64-0.8 1.6-0.8 2.4v0.16h-5.28c-0.48 0-0.8 0.32-0.8 0.8v0 0.32c0 0.16 0 0.32 0 0.64v0.48c0.16 0.32 0.48 0.64 0.8 0.64h0.48v22.4c0.16 1.76 1.44 3.2 3.36 3.2h15.68c1.92 0 3.2-1.44 3.36-3.2v-22.4h0.32c0.48 0 0.8-0.32 0.8-0.8v-0.32c0-0.32 0-0.48 0-0.64v-0.32c0-0.48-0.32-0.8-0.64-0.8zM25.12 28.8c0 0.8-0.64 1.44-1.44 1.44 0 0-5.76 0-7.68 0v0c-1.92 0-7.68 0-7.68 0-0.8 0-1.44-0.64-1.44-1.44 0-5.44 0-21.44 0-22.4h18.4c-0.16 0.96-0.16 16.96-0.16 22.4z"></path>
</svg>
<svg id="icon-disable" width="32" height="32" viewBox="0 0 32 32" x="336" y="0">
<path fill="#567096" d="M26.6 6.2c-1.2-1.2-2.2-2.2-3.8-3-1-0.4-2.2 0-2.6 1s0 2.2 1 2.6c1.2 0.6 2 1.2 2.8 2 4.4 4.4 4.4 11.6 0 16-2.2 2.2-5 3.4-8 3.4s-5.8-1.2-8-3.4c-4.4-4.4-4.4-11.6 0-16 0.8-1 1.8-1.6 2.8-2s1.4-1.6 0.8-2.6-1.2-1.4-2.2-1c-1.4 0.8-2.8 1.8-4 3-5.8 6-5.8 15.6 0 21.4 3 3 6.8 4.4 10.6 4.4s7.6-1.4 10.6-4.4c5.8-6 5.8-15.6 0-21.4zM16 16c1.2 0 2-0.8 2-2v-12c0-1.2-0.8-2-2-2-1 0-2 0.8-2 2v12c0 1 1 2 2 2z"></path>
</svg>
<svg id="icon-example-hover" width="32" height="32" viewBox="0 0 32 32" x="384" y="0">
<path fill="#567096" d="M8.8 25c-2.6-2.2-4.4-5.4-4.4-9 0-5.4 3.6-9.8 8.6-11.2v-3c-6.4 1.4-11.4 7.2-11.4 14.2 0 4.4 1.8 8.2 4.8 10.8 2.4 2.2 3.8-0.8 2.4-1.8zM25.4 5c-1.4-1.2-3.6 1-2.2 2 2.6 2.2 4.4 5.4 4.4 9 0 5.4-3.6 9.8-8.6 11.2v3c6.6-1.4 11.6-7.2 11.6-14.2-0.2-4.4-2.2-8.2-5.2-11zM14.4 7.4l4.6-2.8c0.6-0.4 0.6-1 0-1.4l-4.6-3c-0.8-0.4-1.2-0.2-1.2 0.6v5.8c0 0.8 0.6 1.2 1.2 0.8zM17.6 24.6l-4.8 2.8c-0.6 0.4-0.6 1 0 1.4l4.6 2.8c0.6 0.4 1.2 0 1.2-0.8v-5.8c0.2-0.4-0.2-0.8-1-0.4z"></path>
</svg>
<svg id="icon-help-info_hower-state12" width="32" height="32" viewBox="0 0 32 32" x="432" y="0">
<path fill="#494949" d="M22.667 4c0 2.209-1.791 4-4 4s-4-1.791-4-4c0-2.209 1.791-4 4-4s4 1.791 4 4z"></path>
<path fill="#494949" d="M8.8 12c0 0 5.067-1.867 7.467-1.067s4.267 2.133 3.2 7.467c-1.333 5.333-3.733 8.533-1.867 10.133 1.333 1.067 3.467 1.067 4.267 0.267v1.333c0 0-4 1.867-7.2 1.867-2.4 0-5.067-1.867-3.733-6.4 1.867-5.067 3.467-9.333 2.4-10.933-0.533-1.867-3.733-1.067-5.333 0l0.8-2.667z"></path>
</svg>
<svg id="icon-help-info_normal-state12" width="32" height="32" viewBox="0 0 32 32" x="480" y="0">
<path fill="#5b5b5b" d="M22.667 4c0 2.209-1.791 4-4 4s-4-1.791-4-4c0-2.209 1.791-4 4-4s4 1.791 4 4z"></path>
<path fill="#5b5b5b" d="M8.8 12c0 0 5.067-1.867 7.467-1.067s4.267 2.133 3.2 7.467c-1.333 5.333-3.733 8.533-1.867 10.133 1.333 1.067 3.467 1.067 4.267 0.267v1.333c0 0-4 1.867-7.2 1.867-2.4 0-5.067-1.867-3.733-6.4 1.867-5.067 3.467-9.333 2.4-10.933-0.533-1.867-3.733-1.067-5.333 0l0.8-2.667z"></path>
</svg>
<svg id="icon-help" width="32" height="32" viewBox="0 0 32 32" x="528" y="0">
<path fill="#567096" d="M22.6 28.6l-0.4 1.8c-1.4 0.6-2.4 1-3.2 1.2s-1.8 0.4-2.8 0.4c-1.6 0-2.8-0.4-3.8-1.2s-1.4-1.8-1.4-3c0-0.4 0-1 0.2-1.4 0-0.4 0.2-1 0.4-1.6l1.6-6c0.2-0.6 0.2-1.2 0.4-1.6 0.2-0.6 0.2-1 0.2-1.4 0-0.8-0.2-1.2-0.4-1.6-0.4-0.4-1-0.6-2-0.6-0.4 0-0.8 0-1.4 0.2-0.4 0.2-0.8 0.4-1 0.4l0.4-1.8c1-0.4 2.2-0.8 3.2-1 1-0.4 2-0.4 2.8-0.4 1.6 0 2.8 0.4 3.8 1.2 0.8 0.8 1.4 1.8 1.4 3 0 0.2 0 0.8 0 1.4s-0.2 1.2-0.4 1.8l-1.6 6c-0.4 0.2-0.6 0.8-0.6 1.4-0.2 0.6-0.2 1-0.2 1.4 0 0.8 0.2 1.4 0.6 1.6s1 0.4 1.8 0.4c0.4 0 0.8 0 1.4-0.2 0.4-0.2 0.8-0.4 1-0.4zM23 3.8c0 1-0.4 2-1.2 2.6-0.8 0.8-1.8 1-2.8 1s-2-0.4-2.8-1c-0.8-0.8-1.2-1.6-1.2-2.6s0.4-2 1.2-2.6c0.8-0.8 1.8-1.2 2.8-1.2s2 0.4 2.8 1c0.8 0.8 1.2 1.8 1.2 2.8z"></path>
</svg>
<svg id="icon-more-suggestions" width="32" height="32" viewBox="0 0 32 32" x="576" y="0">
<path fill="#567096" d="M9.067 16c0 2.504-2.030 4.533-4.533 4.533s-4.533-2.030-4.533-4.533c0-2.504 2.030-4.533 4.533-4.533s4.533 2.030 4.533 4.533z"></path>
<path fill="#567096" d="M20.533 16c0 2.504-2.030 4.533-4.533 4.533s-4.533-2.030-4.533-4.533c0-2.504 2.030-4.533 4.533-4.533s4.533 2.030 4.533 4.533z"></path>
<path fill="#567096" d="M32 16c0 2.504-2.030 4.533-4.533 4.533s-4.533-2.030-4.533-4.533c0-2.504 2.030-4.533 4.533-4.533s4.533 2.030 4.533 4.533z"></path>
</svg>
<svg id="icon-paste" width="32" height="32" viewBox="0 0 32 32" x="624" y="0">
<path fill="#567096" d="M22 5v-5h-18.4v27h6.2v5h9.8l8.6-8.6v-18.4h-6.2zM7.6 4.2v-2.2h10.4v2c0 0.2-10.4 0.2-10.4 0.2zM23.8 24.8l-3.8 3.8v-5h5l-1.2 1.2zM26.2 21.6h-8.2v8.4h-6.2v-22.8h14.4v14.4z"></path>
</svg>
<svg id="icon-redo-arrow" width="32" height="32" viewBox="0 0 32 32" x="672" y="0">
<path fill="#567096" d="M20 12c-9 0-16 2-20 12 6-5 12-6 20-4v6l12-10-12-10v6z"></path>
</svg>
<svg id="icon-rename_hover-state" width="32" height="32" viewBox="0 0 32 32" x="720" y="0">
<path fill="#606060" d="M22.72 4.96c1.76 1.76 3.52 3.52 5.28 5.28-4 4-7.84 7.84-11.84 11.84-1.76-1.76-3.52-3.52-5.28-5.28 3.84-3.68 7.84-7.84 11.84-11.84z"></path>
<path fill="#606060" d="M9.76 17.92c1.76 1.76 3.52 3.52 5.28 5.28-2.88 1.12-5.6 2.080-8.48 3.2 0.96-2.88 2.080-5.6 3.2-8.48z"></path>
<path fill="#606060" d="M31.68 6.72c-0.96 0.96-1.76 1.76-2.72 2.72-1.76-1.76-3.52-3.52-5.28-5.28 0.96-0.96 1.92-1.76 2.72-2.72 1.76 1.76 3.52 3.36 5.28 5.28z"></path>
<path fill="#606060" d="M30.24 16v11.68c0 1.44-1.12 2.56-2.56 2.56h-23.36c-1.44 0-2.56-1.12-2.56-2.56v-23.36c0-1.44 1.12-2.56 2.56-2.56h10.56v-1.76h-10.56c-2.4 0-4.32 1.92-4.32 4.32v23.36c0 2.4 1.92 4.32 4.32 4.32h23.36c2.4 0 4.32-1.92 4.32-4.32v-11.68h-1.76z"></path>
</svg>
<svg id="icon-rename_normal-state" width="32" height="32" viewBox="0 0 32 32" x="768" y="0">
<path fill="#777" d="M22.72 4.96c1.76 1.76 3.52 3.52 5.28 5.28-4 4-7.84 7.84-11.84 11.84-1.76-1.76-3.52-3.52-5.28-5.28 3.84-3.68 7.84-7.84 11.84-11.84z"></path>
<path fill="#777" d="M9.76 17.92c1.76 1.76 3.52 3.52 5.28 5.28-2.88 1.12-5.6 2.080-8.48 3.2 0.96-2.88 2.080-5.6 3.2-8.48z"></path>
<path fill="#777" d="M31.68 6.72c-0.96 0.96-1.76 1.76-2.72 2.72-1.76-1.76-3.52-3.52-5.28-5.28 0.96-0.96 1.92-1.76 2.72-2.72 1.76 1.76 3.52 3.36 5.28 5.28z"></path>
<path fill="#777" d="M30.24 16v11.68c0 1.44-1.12 2.56-2.56 2.56h-23.36c-1.44 0-2.56-1.12-2.56-2.56v-23.36c0-1.44 1.12-2.56 2.56-2.56h10.56v-1.76h-10.56c-2.4 0-4.32 1.92-4.32 4.32v23.36c0 2.4 1.92 4.32 4.32 4.32h23.36c2.4 0 4.32-1.92 4.32-4.32v-11.68h-1.76z"></path>
</svg>
<svg id="icon-settings" width="32" height="32" viewBox="0 0 32 32" x="816" y="0">
<path fill="#567096" d="M31.8 14.2c0-0.4-0.6-0.8-1-0.8-1.4 0-2.8-0.8-3.4-2.2s-0.2-3 0.8-4c0.4-0.4 0.4-0.8 0-1.2-0.8-1-1.6-1.8-2.6-2.6-0.4-0.2-0.8-0.2-1.2 0-1 1-2.6 1.4-4 0.8-1-0.2-1.8-1.6-1.8-3.2 0-0.4-0.4-0.8-0.8-1-1.2 0-2.4 0-3.6 0-0.4 0-0.8 0.4-0.8 1 0 1.4-0.8 2.8-2.2 3.4-1.2 0.6-3 0.2-3.8-0.8-0.4-0.4-1-0.4-1.2-0.2-1 0.8-2 1.6-2.6 2.6-0.2 0.4-0.2 1 0 1.2 1.2 1 1.4 2.6 0.8 4-0.4 1.4-1.8 2.2-3.4 2.2-0.6 0-0.8 0.4-1 0.8 0 1.2 0 2.4 0.2 3.6 0 0.4 0.6 0.8 1 0.8 1.4 0 2.8 0.8 3.2 2.2 0.6 1.4 0.2 3-0.8 4-0.4 0.4-0.4 0.8 0 1.2 0.8 1 1.6 1.8 2.6 2.6 0.4 0.2 1 0.2 1.2 0 1-1 2.6-1.4 4-0.8s2.2 2 2.2 3.4c0 0.4 0.4 0.8 0.8 1 0.4-0.2 1-0.2 1.6-0.2s1.2 0 1.8 0c0.4 0 0.8-0.4 0.8-1 0-1.4 0.8-2.8 2.2-3.4s3-0.2 4 1c0.4 0.4 0.8 0.4 1.2 0.2 1-0.8 1.8-1.6 2.6-2.6 0.2-0.4 0.2-1 0-1.2-1.2-1-1.4-2.6-0.8-4 0.6-1.2 1.8-2.2 3.2-2.2h0.2c0.4 0 0.8-0.4 1-0.8-0.2-1.4-0.2-2.6-0.4-3.8zM16 21.4c-3 0-5.4-2.4-5.4-5.4s2.4-5.4 5.4-5.4 5.4 2.4 5.4 5.4-2.4 5.4-5.4 5.4z"></path>
</svg>
<svg id="icon-undo-arrow" width="32" height="32" viewBox="0 0 32 32" x="864" y="0">
<path fill="#567096" d="M12 6l-12 10 12 10v-6c8-2 14-1 20 4-4-10-11-12-20-12v-6z"></path>
</svg>
<svg id="icon-info" width="32" height="32" viewBox="0 0 32 32" x="912" y="0">
<path fill="#a2a3a3" d="M22.56 5.28c0 2.032-1.648 3.68-3.68 3.68s-3.68-1.648-3.68-3.68c0-2.032 1.648-3.68 3.68-3.68s3.68 1.648 3.68 3.68z"></path>
<path fill="#a2a3a3" d="M10.080 12.32c0 0 4.48-1.76 6.72-0.8 2.24 0.8 4 1.92 2.88 6.72s-3.36 7.68-1.76 8.96c1.12 0.8 2.72 0.96 4 0.32v1.12c-2.080 0.96-4.32 1.44-6.56 1.76-2.24 0-4.48-1.76-3.36-5.6 1.76-4.48 3.040-8.48 2.24-9.92-0.64-1.76-3.36-0.8-4.8 0l0.64-2.56z"></path>
</svg>
<svg id="icon-info_hover" width="32" height="32" viewBox="0 0 32 32" x="960" y="0">
<path fill="#f38120" d="M22.56 5.28c0 2.032-1.648 3.68-3.68 3.68s-3.68-1.648-3.68-3.68c0-2.032 1.648-3.68 3.68-3.68s3.68 1.648 3.68 3.68z"></path>
<path fill="#f38120" d="M10.080 12.32c0 0 4.48-1.76 6.72-0.8 2.24 0.8 4 1.92 2.88 6.72s-3.36 7.68-1.76 8.96c1.12 0.8 2.72 0.96 4 0.32v1.12c-2.080 0.96-4.32 1.44-6.56 1.76-2.24 0-4.48-1.76-3.36-5.6 1.76-4.48 3.040-8.48 2.24-9.92-0.64-1.76-3.36-0.8-4.8 0l0.64-2.56z"></path>
</svg>
<svg id="icon-logo" width="32" height="32" viewBox="0 0 32 32" x="1008" y="0">
<path fill="#fff" d="M26.88 6.56l-8.32 13.28-8.48-5.44-1.6 2.4 11.040 7.040 9.12-14.72c-0.48-0.96-1.12-1.76-1.76-2.56z"></path>
<path fill="#f48220" d="M28.64 9.12v0c0 0 0 0 0 0l-9.12 14.72-11.040-7.040 1.6-2.4 8.48 5.44 8.32-13.28c0 0 0 0 0 0-2.56-3.040-6.56-4.96-10.88-4.96-8 0-14.4 6.4-14.4 14.4s6.4 14.4 14.4 14.4 14.4-6.4 14.4-14.4c0-2.4-0.64-4.8-1.76-6.88z"></path>
</svg>
<svg id="icon-turn" width="32" height="32" viewBox="0 0 32 32" x="1056" y="0">
<path fill="#b5b6b6" d="M20.8 7.36v3.68c2.4 1.6 4 4.32 4 7.36 0 4.8-4 8.8-8.8 8.8s-8.8-4-8.8-8.8c0-3.040 1.6-5.76 4-7.36v-3.68c-4.16 1.92-7.2 6.080-7.2 11.040 0 6.56 5.44 12 12 12s12-5.44 12-12c0-4.96-2.88-9.12-7.2-11.040z"></path>
<path fill="#b5b6b6" d="M14.4 1.6h3.2v13.28h-3.2v-13.28z"></path>
</svg>
<svg id="icon-turn_hover" width="32" height="32" viewBox="0 0 32 32" x="1104" y="0">
<path fill="#f48220" d="M20.8 7.36v3.68c2.4 1.6 4 4.32 4 7.36 0 4.8-4 8.8-8.8 8.8s-8.8-4-8.8-8.8c0-3.040 1.6-5.76 4-7.36v-3.68c-4.16 1.92-7.2 6.080-7.2 11.040 0 6.56 5.44 12 12 12s12-5.44 12-12c0-4.96-2.88-9.12-7.2-11.040z"></path>
<path fill="#a2a3a3" d="M14.4 1.6h3.2v13.28h-3.2v-13.28z"></path>
</svg>
<svg id="icon-settings2" width="32" height="32" viewBox="0 0 32 32" x="1152" y="0">
<path fill="#a2a3a3" d="M18.4 24.96c-0.8 0.16-1.6 0.32-2.4 0.32-0.32 0-0.8 0-1.28 0-2.56-0.32-4.8-1.6-6.4-3.84-1.6-2.080-2.080-4.64-1.6-7.2 0.96-4.48 4.8-7.52 9.28-7.52 1.44 0 3.040 0.32 4.32 1.12 3.68 1.92 5.6 5.92 4.8 9.92 1.44 1.44 2.72 2.72 4 3.84 0.32-0.96 0.64-2.080 1.12-3.36 0.16-0.32 0.16-0.48-0.32-0.64l-0.32-0.16c-0.48-0.16-1.12-0.32-1.6-0.64-0.32-0.16-0.48-0.48-0.64-0.8 0-0.32 0-0.48 0-0.8 0-0.16 0-0.48 0-0.64 0-0.48 0.16-0.8 0.48-0.96 0.64-0.32 1.28-0.64 1.76-0.8 0.32-0.16 0.48-0.32 0.32-0.8-0.8-1.6-1.6-3.2-2.24-4.64-0.16-0.32-0.32-0.32-0.32-0.32s-0.16 0-0.32 0.16c-0.64 0.32-1.12 0.64-1.76 0.8-0.16 0-0.32 0.16-0.48 0.16-0.32 0-0.48-0.16-0.64-0.32-0.32-0.32-0.64-0.64-0.96-0.96s-0.48-0.64-0.32-0.96c0.16-0.64 0.48-1.28 0.64-1.92 0.16-0.32 0-0.48-0.32-0.64-1.44-0.48-3.040-0.96-4.48-1.6l-0.48-0.16c-0.16 0-0.16 0-0.32 0s-0.16 0-0.32 0.48l-0.16 0.32c-0.16 0.48-0.32 0.96-0.48 1.6-0.16 0.48-0.48 0.64-0.96 0.64s-0.8 0-1.28 0c0 0-0.16 0-0.16 0-0.32 0-0.64-0.16-0.8-0.64-0.32-0.48-0.48-0.96-0.64-1.28l-0.32-0.48c-0.16-0.32-0.32-0.32-0.32-0.32-0.16 0-0.16 0-0.32 0.16-1.6 0.8-3.2 1.6-4.8 2.24-0.32 0.16-0.32 0.32-0.16 0.64 0.16 0.64 0.48 1.28 0.8 1.92 0.16 0.32 0.16 0.64-0.16 0.96s-0.64 0.64-0.8 1.12c-0.16 0.16-0.48 0.32-0.64 0.32s-0.16 0-0.32 0c-0.64-0.32-1.12-0.48-1.44-0.64l-0.48-0.16c-0.16 0-0.16 0-0.32 0s-0.32 0-0.32 0.32c-0.64 1.76-1.28 3.36-1.92 4.96 0 0.48 0 0.64 0.32 0.8l0.32 0.16c0.48 0.16 0.96 0.32 1.6 0.48 0.48 0 0.64 0.32 0.64 0.8s0 0.96 0.16 1.28c0 0.32 0 0.64-0.48 0.96-0.64 0.32-1.28 0.64-1.76 0.8s-0.48 0.32-0.32 0.8c0.8 1.6 1.44 3.2 2.24 4.64 0.16 0.32 0.32 0.32 0.32 0.32 0.16 0 0.16 0 0.32-0.16l0.32-0.16c0.64 0 1.12-0.32 1.6-0.48 0.16 0 0.32-0.16 0.48-0.16 0.32 0 0.48 0.16 0.64 0.32 0.32 0.32 0.64 0.64 1.12 0.96 0.32 0.32 0.48 0.64 0.32 0.96-0.16 0.48-0.32 1.12-0.64 1.6l-0.16 0.32c-0.16 0.32 0 0.48 0.32 0.64 1.6 0.64 3.36 1.12 4.96 1.76 0.16 0 0.16 0 0.32 0s0.32 0 0.32-0.32c0-0.16 0.16-0.48 0.16-0.64 0.16-0.48 0.32-0.8 0.48-1.28 0.16-0.32 0.48-0.48 0.8-0.64 0.32 0 0.48 0 0.8 0 0.16 0 0.48 0 0.64 0 0 0 0 0 0.16 0 0.32 0 0.64 0.16 0.8 0.48s0.32 0.8 0.48 1.12c0.16 0.16 0.16 0.48 0.32 0.64 0.16 0.48 0.32 0.48 0.48 0.48 0 0 0.16 0 0.32-0.16 0.8-0.32 1.6-0.8 2.4-1.12-1.44-1.6-2.72-2.72-4-4z"></path>
<path fill="#a2a3a3" d="M25.12 26.56c0.8-0.8 1.44-1.44 2.080-2.24-2.56-2.24-5.12-4.8-8.16-8-0.32-0.32-0.32-0.64-0.32-1.12 0.16-0.64 0.16-1.12 0-1.6-0.16-0.96-1.92-2.4-3.2-2.4 0 0-0.16 0-0.16 0s0 0 0 0-0.16 0-0.16 0c0 0-0.16 0-0.16 0-0.32 0.16-0.64 0.32-1.12 0.32 0.48 0.32 0.96 0.64 1.44 0.96 0.64 0.32 0.96 0.96 0.8 1.6 0 0.64-0.32 1.28-0.96 1.92-0.32 0.32-0.64 0.48-1.12 0.48-0.32 0-0.64-0.16-0.96-0.32-0.16-0.16-0.32-0.32-0.48-0.48-0.32-0.16-0.64-0.32-0.96-0.48 0 0.64 0.16 1.28 0.64 1.92 0.64 0.96 1.44 1.44 2.4 1.44 0.32 0 0.48 0 0.8-0.16 0.16 0 0.32 0 0.48 0 0.32 0 0.64 0.16 0.8 0.32 2.56 2.24 5.28 4.8 8.32 7.84z"></path>
</svg>
<svg id="icon-settings_hover" width="32" height="32" viewBox="0 0 32 32" x="1200" y="0">
<path fill="#f38120" d="M18.4 24.96c-0.8 0.16-1.6 0.32-2.4 0.32-0.32 0-0.8 0-1.28 0-2.56-0.32-4.8-1.6-6.4-3.84-1.6-2.080-2.080-4.64-1.6-7.2 0.96-4.48 4.8-7.52 9.28-7.52 1.44 0 3.040 0.32 4.32 1.12 3.68 1.92 5.6 5.92 4.8 9.92 1.44 1.44 2.72 2.72 4 3.84 0.32-0.96 0.64-2.080 1.12-3.36 0.16-0.32 0.16-0.48-0.32-0.64l-0.32-0.16c-0.48-0.16-1.12-0.32-1.6-0.64-0.32-0.16-0.48-0.48-0.64-0.8 0-0.32 0-0.48 0-0.8 0-0.16 0-0.48 0-0.64 0-0.48 0.16-0.8 0.48-0.96 0.64-0.32 1.28-0.64 1.76-0.8 0.32-0.16 0.48-0.32 0.32-0.8-0.8-1.6-1.6-3.2-2.24-4.64-0.16-0.32-0.32-0.32-0.32-0.32s-0.16 0-0.32 0.16c-0.64 0.32-1.12 0.64-1.76 0.8-0.16 0-0.32 0.16-0.48 0.16-0.32 0-0.48-0.16-0.64-0.32-0.32-0.32-0.64-0.64-0.96-0.96s-0.48-0.64-0.32-0.96c0.16-0.64 0.48-1.28 0.64-1.92 0.16-0.32 0-0.48-0.32-0.64-1.44-0.48-3.040-0.96-4.48-1.6l-0.48-0.16c-0.16 0-0.16 0-0.32 0s-0.16 0-0.32 0.48l-0.16 0.32c-0.16 0.48-0.32 0.96-0.48 1.6-0.16 0.48-0.48 0.64-0.96 0.64s-0.8 0-1.28 0c0 0-0.16 0-0.16 0-0.32 0-0.64-0.16-0.8-0.64-0.32-0.48-0.48-0.96-0.64-1.28l-0.32-0.48c-0.16-0.32-0.32-0.32-0.32-0.32-0.16 0-0.16 0-0.32 0.16-1.6 0.8-3.2 1.6-4.8 2.24-0.32 0.16-0.32 0.32-0.16 0.64 0.16 0.64 0.48 1.28 0.8 1.92 0.16 0.32 0.16 0.64-0.16 0.96s-0.64 0.64-0.8 1.12c-0.16 0.16-0.48 0.32-0.64 0.32s-0.16 0-0.32 0c-0.64-0.32-1.12-0.48-1.44-0.64l-0.48-0.16c-0.16 0-0.16 0-0.32 0s-0.32 0-0.32 0.32c-0.64 1.76-1.28 3.36-1.92 4.96 0 0.48 0 0.64 0.32 0.8l0.32 0.16c0.48 0.16 0.96 0.32 1.6 0.48 0.48 0 0.64 0.32 0.64 0.8s0 0.96 0.16 1.28c0 0.32 0 0.64-0.48 0.96-0.64 0.32-1.28 0.64-1.76 0.8s-0.48 0.32-0.32 0.8c0.8 1.6 1.44 3.2 2.24 4.64 0.16 0.32 0.32 0.32 0.32 0.32 0.16 0 0.16 0 0.32-0.16l0.32-0.16c0.64 0 1.12-0.32 1.6-0.48 0.16 0 0.32-0.16 0.48-0.16 0.32 0 0.48 0.16 0.64 0.32 0.32 0.32 0.64 0.64 1.12 0.96 0.32 0.32 0.48 0.64 0.32 0.96-0.16 0.48-0.32 1.12-0.64 1.6l-0.16 0.32c-0.16 0.32 0 0.48 0.32 0.64 1.6 0.64 3.36 1.12 4.96 1.76 0.16 0 0.16 0 0.32 0s0.32 0 0.32-0.32c0-0.16 0.16-0.48 0.16-0.64 0.16-0.48 0.32-0.8 0.48-1.28 0.16-0.32 0.48-0.48 0.8-0.64 0.32 0 0.48 0 0.8 0 0.16 0 0.48 0 0.64 0 0 0 0 0 0.16 0 0.32 0 0.64 0.16 0.8 0.48s0.32 0.8 0.48 1.12c0.16 0.16 0.16 0.48 0.32 0.64 0.16 0.48 0.32 0.48 0.48 0.48 0 0 0.16 0 0.32-0.16 0.8-0.32 1.6-0.8 2.4-1.12-1.44-1.6-2.72-2.72-4-4z"></path>
<path fill="#a2a3a3" d="M25.12 26.56c0.8-0.8 1.44-1.44 2.080-2.24-2.56-2.24-5.12-4.8-8.16-8-0.32-0.32-0.32-0.64-0.32-1.12 0.16-0.64 0.16-1.12 0-1.6-0.16-0.96-1.92-2.4-3.2-2.4 0 0-0.16 0-0.16 0s0 0 0 0-0.16 0-0.16 0c0 0-0.16 0-0.16 0-0.32 0.16-0.64 0.32-1.12 0.32 0.48 0.32 0.96 0.64 1.44 0.96 0.64 0.32 0.96 0.96 0.8 1.6 0 0.64-0.32 1.28-0.96 1.92-0.32 0.32-0.64 0.48-1.12 0.48-0.32 0-0.64-0.16-0.96-0.32-0.16-0.16-0.32-0.32-0.48-0.48-0.32-0.16-0.64-0.32-0.96-0.48 0 0.64 0.16 1.28 0.64 1.92 0.64 0.96 1.44 1.44 2.4 1.44 0.32 0 0.48 0 0.8-0.16 0.16 0 0.32 0 0.48 0 0.32 0 0.64 0.16 0.8 0.32 2.56 2.24 5.28 4.8 8.32 7.84z"></path>
</svg>
<svg id="icon-logo_disabled" width="32" height="32" viewBox="0 0 32 32" x="1248" y="0">
<path fill="#fff" d="M26.88 6.56l-8.32 13.28-8.48-5.44-1.6 2.4 11.040 7.040 9.12-14.72c-0.48-0.96-1.12-1.76-1.76-2.56z"></path>
<path fill="#a2a3a3" d="M28.64 9.12v0c0 0 0 0 0 0l-9.12 14.72-11.040-7.040 1.6-2.4 8.48 5.44 8.32-13.28c0 0 0 0 0 0-2.56-3.040-6.56-4.96-10.88-4.96-8 0-14.4 6.4-14.4 14.4s6.4 14.4 14.4 14.4 14.4-6.4 14.4-14.4c0-2.4-0.64-4.8-1.76-6.88z"></path>
</svg>
</svg>
