<svg width="46" height="46" viewBox="0 0 46 46" fill="none" xmlns="http://www.w3.org/2000/svg">
    <path opacity="0.85" d="M32.5 41.5C39.1274 41.5 44.5 36.1274 44.5 29.5C44.5 22.8726 39.1274 17.5 32.5 17.5C25.8726 17.5 20.5 22.8726 20.5 29.5C20.5 36.1274 25.8726 41.5 32.5 41.5Z" fill="#FFBF40"/>
    <path opacity="0.85" d="M20.5 41.5C30.4411 41.5 38.5 33.4411 38.5 23.5C38.5 13.5589 30.4411 5.5 20.5 5.5C10.5589 5.5 2.5 13.5589 2.5 23.5C2.5 33.4411 10.5589 41.5 20.5 41.5Z" fill="#F48220"/>
    <path d="M27.4099 20.45L19.6899 28.17L15.1699 23.6399" stroke="white" stroke-width="2.5" stroke-miterlimit="10" stroke-linecap="round" stroke-linejoin="round"/>
</svg>
